<svg width="2073" height="760" viewBox="0 0 2073 760" fill="none" xmlns="http://www.w3.org/2000/svg">
<g filter="url(#filter0_ddii_4083_52)">
<path d="M125.5 491C99.8333 491 76.5 486.667 55.5 478C34.8333 469 17.6667 456.167 4 439.5L58 375.5C67.3333 387.5 77 396.667 87 403C97 409 107.5 412 118.5 412C147.833 412 162.5 395 162.5 361V210.5H41.5V134H260.5V355C260.5 400.667 249 434.833 226 457.5C203 479.833 169.5 491 125.5 491ZM277.996 484L432.496 134H529.996L684.996 484H581.996L460.996 182.5H499.996L378.996 484H277.996ZM362.496 416L387.996 343H558.996L584.496 416H362.496ZM882.68 491C855.013 491 829.346 486.667 805.68 478C782.346 469 762.013 456.333 744.68 440C727.68 423.667 714.346 404.5 704.68 382.5C695.013 360.167 690.18 335.667 690.18 309C690.18 282.333 695.013 258 704.68 236C714.346 213.667 727.68 194.333 744.68 178C762.013 161.667 782.346 149.167 805.68 140.5C829.346 131.5 855.013 127 882.68 127C915.013 127 943.846 132.667 969.18 144C994.846 155.333 1016.18 171.667 1033.18 193L970.18 250C958.846 236.667 946.346 226.5 932.68 219.5C919.346 212.5 904.346 209 887.68 209C873.346 209 860.18 211.333 848.18 216C836.18 220.667 825.846 227.5 817.18 236.5C808.846 245.167 802.18 255.667 797.18 268C792.513 280.333 790.18 294 790.18 309C790.18 324 792.513 337.667 797.18 350C802.18 362.333 808.846 373 817.18 382C825.846 390.667 836.18 397.333 848.18 402C860.18 406.667 873.346 409 887.68 409C904.346 409 919.346 405.5 932.68 398.5C946.346 391.5 958.846 381.333 970.18 368L1033.18 425C1016.18 446 994.846 462.333 969.18 474C943.846 485.333 915.013 491 882.68 491ZM1077.32 484V134H1237.32C1269.32 134 1296.82 139.167 1319.82 149.5C1343.15 159.833 1361.15 174.833 1373.82 194.5C1386.49 213.833 1392.82 236.833 1392.82 263.5C1392.82 289.833 1386.49 312.667 1373.82 332C1361.15 351 1343.15 365.667 1319.82 376C1296.82 386 1269.32 391 1237.32 391H1132.32L1176.32 349.5V484H1077.32ZM1293.82 484L1206.82 356.5H1312.32L1399.82 484H1293.82ZM1176.32 360L1132.32 314.5H1231.32C1251.99 314.5 1267.32 310 1277.32 301C1287.65 292 1292.82 279.5 1292.82 263.5C1292.82 247.167 1287.65 234.5 1277.32 225.5C1267.32 216.5 1251.99 212 1231.32 212H1132.32L1176.32 166.5V360ZM1538.44 269.5H1700.94V343.5H1538.44V269.5ZM1545.44 407.5H1728.44V484H1447.44V134H1721.94V210.5H1545.44V407.5ZM1906.38 491C1877.71 491 1850.04 487.5 1823.38 480.5C1797.04 473.167 1775.54 463.833 1758.88 452.5L1791.38 379.5C1807.04 389.5 1825.04 397.833 1845.38 404.5C1866.04 410.833 1886.54 414 1906.88 414C1920.54 414 1931.54 412.833 1939.88 410.5C1948.21 407.833 1954.21 404.5 1957.88 400.5C1961.88 396.167 1963.88 391.167 1963.88 385.5C1963.88 377.5 1960.21 371.167 1952.88 366.5C1945.54 361.833 1936.04 358 1924.38 355C1912.71 352 1899.71 349 1885.38 346C1871.38 343 1857.21 339.167 1842.88 334.5C1828.88 329.833 1816.04 323.833 1804.38 316.5C1792.71 308.833 1783.21 299 1775.88 287C1768.54 274.667 1764.87 259.167 1764.87 240.5C1764.87 219.5 1770.54 200.5 1781.88 183.5C1793.54 166.5 1810.88 152.833 1833.88 142.5C1856.88 132.167 1885.54 127 1919.88 127C1942.88 127 1965.38 129.667 1987.38 135C2009.71 140 2029.54 147.5 2046.88 157.5L2016.38 231C1999.71 222 1983.21 215.333 1966.88 211C1950.54 206.333 1934.71 204 1919.38 204C1905.71 204 1894.71 205.5 1886.38 208.5C1878.04 211.167 1872.04 214.833 1868.38 219.5C1864.71 224.167 1862.88 229.5 1862.88 235.5C1862.88 243.167 1866.38 249.333 1873.38 254C1880.71 258.333 1890.21 262 1901.88 265C1913.88 267.667 1926.88 270.5 1940.88 273.5C1955.21 276.5 1969.38 280.333 1983.38 285C1997.71 289.333 2010.71 295.333 2022.38 303C2034.04 310.333 2043.38 320.167 2050.38 332.5C2057.71 344.5 2061.38 359.667 2061.38 378C2061.38 398.333 2055.54 417.167 2043.88 434.5C2032.54 451.5 2015.38 465.167 1992.38 475.5C1969.71 485.833 1941.04 491 1906.38 491Z" fill="url(#paint0_linear_4083_52)"/>
<path d="M217.95 570.65H266.7V592.85H217.95V570.65ZM220.05 612.05H274.95V635H190.65V530H273V552.95H220.05V612.05ZM321.432 635V530H345.882L403.782 599.9H392.232V530H421.332V635H396.882L338.982 565.1H350.532V635H321.432ZM494.631 635V553.55H462.381V530H556.431V553.55H524.331V635H494.631ZM624.796 570.65H673.546V592.85H624.796V570.65ZM626.896 612.05H681.796V635H597.496V530H679.846V552.95H626.896V612.05ZM728.277 635V530H776.277C785.877 530 794.127 531.55 801.027 534.65C808.027 537.75 813.427 542.25 817.227 548.15C821.027 553.95 822.927 560.85 822.927 568.85C822.927 576.75 821.027 583.6 817.227 589.4C813.427 595.1 808.027 599.5 801.027 602.6C794.127 605.6 785.877 607.1 776.277 607.1H744.777L757.977 594.65V635H728.277ZM793.227 635L767.127 596.75H798.777L825.027 635H793.227ZM757.977 597.8L744.777 584.15H774.477C780.677 584.15 785.277 582.8 788.277 580.1C791.377 577.4 792.927 573.65 792.927 568.85C792.927 563.95 791.377 560.15 788.277 557.45C785.277 554.75 780.677 553.4 774.477 553.4H744.777L757.977 539.75V597.8ZM890.198 635V553.55H857.948V530H951.998V553.55H919.898V635H890.198ZM975.189 635L1021.54 530H1050.79L1097.29 635H1066.39L1030.09 544.55H1041.79L1005.49 635H975.189ZM1000.54 614.6L1008.19 592.7H1059.49L1067.14 614.6H1000.54ZM1135.71 635V530H1165.41V635H1135.71ZM1216.54 635V530H1240.99L1298.89 599.9H1287.34V530H1316.44V635H1291.99L1234.09 565.1H1245.64V635H1216.54ZM1367.39 635V530H1391.84L1435.34 601.4H1422.44L1464.74 530H1489.19L1489.49 635H1462.19L1461.89 571.55H1466.54L1434.89 624.65H1421.69L1389.14 571.55H1394.84V635H1367.39ZM1567.8 570.65H1616.55V592.85H1567.8V570.65ZM1569.9 612.05H1624.8V635H1540.5V530H1622.85V552.95H1569.9V612.05ZM1671.29 635V530H1695.74L1753.64 599.9H1742.09V530H1771.19V635H1746.74L1688.84 565.1H1700.39V635H1671.29ZM1844.48 635V553.55H1812.23V530H1906.28V553.55H1874.18V635H1844.48Z" fill="url(#paint1_linear_4083_52)"/>
</g>
<defs>
<filter id="filter0_ddii_4083_52" x="0" y="127" width="2065.38" height="516" filterUnits="userSpaceOnUse" color-interpolation-filters="sRGB">
<feFlood flood-opacity="0" result="BackgroundImageFix"/>
<feColorMatrix in="SourceAlpha" type="matrix" values="0 0 0 0 0 0 0 0 0 0 0 0 0 0 0 0 0 0 127 0" result="hardAlpha"/>
<feOffset dy="4"/>
<feGaussianBlur stdDeviation="2"/>
<feComposite in2="hardAlpha" operator="out"/>
<feColorMatrix type="matrix" values="0 0 0 0 0 0 0 0 0 0 0 0 0 0 0 0 0 0 0.25 0"/>
<feBlend mode="normal" in2="BackgroundImageFix" result="effect1_dropShadow_4083_52"/>
<feColorMatrix in="SourceAlpha" type="matrix" values="0 0 0 0 0 0 0 0 0 0 0 0 0 0 0 0 0 0 127 0" result="hardAlpha"/>
<feOffset dy="4"/>
<feGaussianBlur stdDeviation="2"/>
<feComposite in2="hardAlpha" operator="out"/>
<feColorMatrix type="matrix" values="0 0 0 0 0 0 0 0 0 0 0 0 0 0 0 0 0 0 0.25 0"/>
<feBlend mode="normal" in2="effect1_dropShadow_4083_52" result="effect2_dropShadow_4083_52"/>
<feBlend mode="normal" in="SourceGraphic" in2="effect2_dropShadow_4083_52" result="shape"/>
<feColorMatrix in="SourceAlpha" type="matrix" values="0 0 0 0 0 0 0 0 0 0 0 0 0 0 0 0 0 0 127 0" result="hardAlpha"/>
<feOffset dy="-4"/>
<feComposite in2="hardAlpha" operator="arithmetic" k2="-1" k3="1"/>
<feColorMatrix type="matrix" values="0 0 0 0 0.288462 0 0 0 0 0.288462 0 0 0 0 0.288462 0 0 0 1 0"/>
<feBlend mode="normal" in2="shape" result="effect3_innerShadow_4083_52"/>
<feColorMatrix in="SourceAlpha" type="matrix" values="0 0 0 0 0 0 0 0 0 0 0 0 0 0 0 0 0 0 127 0" result="hardAlpha"/>
<feOffset dy="4"/>
<feComposite in2="hardAlpha" operator="arithmetic" k2="-1" k3="1"/>
<feColorMatrix type="matrix" values="0 0 0 0 1 0 0 0 0 1 0 0 0 0 1 0 0 0 1 0"/>
<feBlend mode="normal" in2="effect3_innerShadow_4083_52" result="effect4_innerShadow_4083_52"/>
</filter>
<linearGradient id="paint0_linear_4083_52" x1="1044" y1="135.5" x2="1044" y2="484" gradientUnits="userSpaceOnUse">
<stop stop-color="white"/>
<stop offset="1" stop-color="#969696"/>
</linearGradient>
<linearGradient id="paint1_linear_4083_52" x1="1040.67" y1="490" x2="1050.25" y2="759.861" gradientUnits="userSpaceOnUse">
<stop stop-color="white"/>
<stop offset="1" stop-color="#969696"/>
</linearGradient>
</defs>
</svg>
