<svg width="701" height="272" viewBox="0 0 701 272" fill="none" xmlns="http://www.w3.org/2000/svg">
<g filter="url(#filter0_dddi_4194_7)">
<path d="M418.907 46C435.95 46 451.108 48.8687 464.382 54.6064C477.82 60.3441 488.882 68.5409 497.567 79.1965L460.449 111.902C455.041 105.672 449.142 101 442.751 97.8853C436.523 94.6068 429.558 92.9677 421.856 92.9677C415.465 92.9677 409.647 93.9507 404.404 95.9179C399.323 97.8851 394.981 100.754 391.375 104.524C387.77 108.295 384.985 112.803 383.019 118.049C381.052 123.295 380.068 129.279 380.068 136C380.068 142.393 381.052 148.295 383.019 153.705C384.985 158.951 387.77 163.459 391.375 167.23C394.981 171 399.241 173.951 404.158 176.082C409.237 178.049 414.892 179.033 421.119 179.033C427.674 179.033 434.065 177.967 440.292 175.836C440.943 175.596 441.599 175.338 442.259 175.064V131.328H492.651V200.935L558.638 49.9314H615.667L690.886 222.063H630.907L619.38 192.062H553.941L542.414 222.063H483.419L490.702 205.394C480.688 211.822 469.375 216.805 456.763 220.344C443.325 224.114 430.296 226 417.677 226C403.748 226 390.884 223.869 379.085 219.607C367.45 215.18 357.29 208.951 348.604 200.918C344.094 196.667 340.112 192.001 336.657 186.924L352.014 222.066H292.036L280.509 192.066H215.069L203.543 222.066H144.547L154.709 198.809C148.839 206.664 140.426 213.106 129.466 218.131C117.667 223.377 102.836 226 84.9737 226C70.5525 226 56.6226 224.361 43.1847 221.082C29.747 217.804 18.6854 213.541 10 208.295L28.6821 166C36.8759 170.754 45.9711 174.607 55.9676 177.557C66.1278 180.344 75.9602 181.738 85.4649 181.738C91.0366 181.738 95.3793 181.41 98.4931 180.754C101.77 179.935 104.147 178.869 105.622 177.557C107.097 176.082 107.834 174.361 107.834 172.393C107.834 169.278 106.113 166.819 102.672 165.016C99.2305 163.213 94.6416 161.738 88.9062 160.59C83.3344 159.279 77.1891 157.967 70.4702 156.656C63.7513 155.18 56.9501 153.295 50.0674 151C43.3487 148.704 37.1216 145.672 31.3862 141.902C25.8145 138.131 21.3074 133.213 17.866 127.148C14.4246 120.918 12.704 113.213 12.704 104.033C12.704 93.3771 15.6539 83.705 21.5534 75.0164C27.6168 66.164 36.5477 59.1147 48.3467 53.8688C60.3097 48.6229 75.141 46 92.8397 46C104.474 46 115.946 47.2298 127.253 49.6887C138.561 52.1477 148.722 55.9181 157.734 61.0001L140.281 103.049C131.761 98.7868 123.484 95.5902 115.454 93.459C107.588 91.3279 99.8854 90.2626 92.3476 90.2626C86.7758 90.2626 82.351 90.7542 79.0735 91.7378C75.7961 92.7214 73.4196 94.0325 71.9448 95.6718C70.6338 97.3111 69.979 99.1146 69.9789 101.082C69.9789 104.033 71.6995 106.41 75.1409 108.213C78.5822 109.852 83.0886 111.246 88.6602 112.393C94.3958 113.541 100.624 114.77 107.342 116.082C114.225 117.393 121.026 119.197 127.745 121.492C134.464 123.787 140.609 126.82 146.181 130.59C151.916 134.361 156.505 139.279 159.947 145.344C163.388 151.41 165.109 158.951 165.109 167.967C165.109 170.938 164.865 173.843 164.378 176.684L219.765 49.9348H276.794L323.929 157.797C322.353 150.912 321.565 143.647 321.565 136C321.565 122.722 323.94 110.59 328.693 99.6066C333.445 88.623 340.164 79.1143 348.85 71.0816C357.535 63.0489 367.777 56.9013 379.576 52.639C391.539 48.2127 404.649 46 418.907 46ZM231.131 150.262H264.447L247.788 106.904L231.131 150.262ZM570.002 150.26H603.319L586.66 106.902L570.002 150.26ZM659.35 56.3054H652.151V74.4667H643.864V56.3054H636.664V49.8765H659.35V56.3054ZM676.33 62.9641L684.117 49.8765H690.93L691 74.4667H683.45L683.39 63.2488L678.042 72.254H674.39L669.052 63.6382V74.4667H661.502V49.8765H668.315L676.33 62.9641Z" fill="url(#paint0_linear_4194_7)"/>
</g>
<defs>
<filter id="filter0_dddi_4194_7" x="0" y="38" width="701" height="208" filterUnits="userSpaceOnUse" color-interpolation-filters="sRGB">
<feFlood flood-opacity="0" result="BackgroundImageFix"/>
<feColorMatrix in="SourceAlpha" type="matrix" values="0 0 0 0 0 0 0 0 0 0 0 0 0 0 0 0 0 0 127 0" result="hardAlpha"/>
<feOffset dy="10"/>
<feGaussianBlur stdDeviation="5"/>
<feComposite in2="hardAlpha" operator="out"/>
<feColorMatrix type="matrix" values="0 0 0 0 0 0 0 0 0 0 0 0 0 0 0 0 0 0 0.5 0"/>
<feBlend mode="normal" in2="BackgroundImageFix" result="effect1_dropShadow_4194_7"/>
<feColorMatrix in="SourceAlpha" type="matrix" values="0 0 0 0 0 0 0 0 0 0 0 0 0 0 0 0 0 0 127 0" result="hardAlpha"/>
<feOffset dy="-4"/>
<feGaussianBlur stdDeviation="2"/>
<feComposite in2="hardAlpha" operator="out"/>
<feColorMatrix type="matrix" values="0 0 0 0 1 0 0 0 0 1 0 0 0 0 1 0 0 0 0.1 0"/>
<feBlend mode="normal" in2="effect1_dropShadow_4194_7" result="effect2_dropShadow_4194_7"/>
<feColorMatrix in="SourceAlpha" type="matrix" values="0 0 0 0 0 0 0 0 0 0 0 0 0 0 0 0 0 0 127 0" result="hardAlpha"/>
<feOffset dy="4"/>
<feGaussianBlur stdDeviation="2"/>
<feComposite in2="hardAlpha" operator="out"/>
<feColorMatrix type="matrix" values="0 0 0 0 0 0 0 0 0 0 0 0 0 0 0 0 0 0 0.25 0"/>
<feBlend mode="normal" in2="effect2_dropShadow_4194_7" result="effect3_dropShadow_4194_7"/>
<feBlend mode="normal" in="SourceGraphic" in2="effect3_dropShadow_4194_7" result="shape"/>
<feColorMatrix in="SourceAlpha" type="matrix" values="0 0 0 0 0 0 0 0 0 0 0 0 0 0 0 0 0 0 127 0" result="hardAlpha"/>
<feOffset dy="4"/>
<feComposite in2="hardAlpha" operator="arithmetic" k2="-1" k3="1"/>
<feColorMatrix type="matrix" values="0 0 0 0 1 0 0 0 0 1 0 0 0 0 1 0 0 0 1 0"/>
<feBlend mode="normal" in2="shape" result="effect4_innerShadow_4194_7"/>
</filter>
<linearGradient id="paint0_linear_4194_7" x1="362.777" y1="46" x2="365.479" y2="226.035" gradientUnits="userSpaceOnUse">
<stop stop-color="white"/>
<stop offset="1" stop-color="#BCBCBC"/>
</linearGradient>
</defs>
</svg>
