<svg width="691" height="233" viewBox="0 0 691 233" fill="none" xmlns="http://www.w3.org/2000/svg">
<g filter="url(#filter0_ddi_4227_11)">
<path d="M413.907 8C430.95 8.00004 446.108 10.8687 459.382 16.6064C472.82 22.3441 483.882 30.5409 492.567 41.1965L455.449 73.9016C450.041 67.6722 444.142 63 437.751 59.8853C431.523 56.6068 424.558 54.9677 416.856 54.9677C410.465 54.9677 404.647 55.9507 399.404 57.9179C394.323 59.8851 389.981 62.7539 386.375 66.5242C382.77 70.2948 379.985 74.8034 378.019 80.0492C376.052 85.2951 375.068 91.2791 375.068 98C375.068 104.393 376.052 110.295 378.019 115.705C379.985 120.951 382.77 125.459 386.375 129.23C389.981 133 394.241 135.951 399.158 138.082C404.237 140.049 409.892 141.033 416.119 141.033C422.674 141.033 429.065 139.967 435.292 137.836C435.943 137.596 436.599 137.338 437.259 137.064V93.328H487.651V162.935L553.638 11.9314H610.667L685.886 184.063H625.907L614.38 154.062H548.941L537.414 184.063H478.419L485.702 167.394C475.688 173.822 464.375 178.805 451.763 182.344C438.325 186.114 425.296 188 412.677 188C398.748 188 385.884 185.869 374.085 181.607C362.45 177.18 352.29 170.951 343.604 162.918C339.094 158.667 335.112 154.001 331.657 148.924L347.014 184.066H287.036L275.509 154.066H210.069L198.543 184.066H139.547L149.709 160.809C143.839 168.664 135.426 175.106 124.466 180.131C112.667 185.377 97.8361 188 79.9737 188C65.5525 188 51.6226 186.361 38.1847 183.082C24.747 179.804 13.6854 175.541 5 170.295L23.6821 128C31.8759 132.754 40.9711 136.607 50.9676 139.557C61.1278 142.344 70.9602 143.738 80.4649 143.738C86.0366 143.738 90.3793 143.41 93.4931 142.754C96.7703 141.935 99.1468 140.869 100.622 139.557C102.097 138.082 102.834 136.361 102.834 134.393C102.834 131.278 101.113 128.819 97.6719 127.016C94.2305 125.213 89.6416 123.738 83.9062 122.59C78.3344 121.279 72.1891 119.967 65.4702 118.656C58.7513 117.18 51.9501 115.295 45.0674 113C38.3487 110.704 32.1216 107.672 26.3862 103.902C20.8145 100.131 16.3074 95.2133 12.866 89.1479C9.42463 82.9184 7.70403 75.2132 7.70403 66.0329C7.70403 55.3771 10.6539 45.705 16.5534 37.0164C22.6168 28.164 31.5477 21.1147 43.3467 15.8688C55.3097 10.6229 70.141 8 87.8397 8C99.4743 8.00002 110.946 9.22975 122.253 11.6887C133.561 14.1477 143.722 17.9181 152.734 23.0001L135.281 65.0492C126.761 60.7868 118.484 57.5902 110.454 55.459C102.588 53.3279 94.8854 52.2626 87.3476 52.2626C81.7758 52.2626 77.351 52.7542 74.0735 53.7378C70.7961 54.7214 68.4196 56.0325 66.9448 57.6718C65.6338 59.3111 64.979 61.1146 64.9789 63.0817C64.9789 66.0325 66.6995 68.4097 70.1409 70.2129C73.5822 71.8523 78.0886 73.2456 83.6602 74.3931C89.3958 75.5407 95.6238 76.7703 102.342 78.0818C109.225 79.3932 116.026 81.1967 122.745 83.4918C129.464 85.7869 135.609 88.82 141.181 92.5904C146.916 96.3612 151.505 101.279 154.947 107.344C158.388 113.41 160.109 120.951 160.109 129.967C160.109 132.938 159.865 135.843 159.378 138.684L214.765 11.9348H271.794L318.929 119.797C317.353 112.912 316.565 105.647 316.565 98C316.565 84.7218 318.94 72.5902 323.693 61.6066C328.445 50.623 335.164 41.1143 343.85 33.0816C352.535 25.0489 362.777 18.9013 374.576 14.639C386.539 10.2127 399.649 8 413.907 8ZM226.131 112.262H259.447L242.788 68.9042L226.131 112.262ZM565.002 112.26H598.319L581.66 68.9017L565.002 112.26ZM654.35 18.3054H647.151V36.4667H638.864V18.3054H631.664V11.8765H654.35V18.3054ZM671.33 24.9641L679.117 11.8765H685.93L686 36.4667H678.45L678.39 25.2488L673.042 34.254H669.39L664.052 25.6382V36.4667H656.502V11.8765H663.315L671.33 24.9641Z" fill="url(#paint0_linear_4227_11)"/>
</g>
<g filter="url(#filter1_di_4227_11)">
<path d="M202.194 222.24C200.474 222.24 198.944 221.88 197.604 221.16C196.284 220.44 195.234 219.46 194.454 218.22C193.694 216.96 193.314 215.53 193.314 213.93C193.314 212.31 193.694 210.88 194.454 209.64C195.234 208.38 196.284 207.4 197.604 206.7C198.944 205.98 200.474 205.62 202.194 205.62C203.894 205.62 205.414 205.98 206.754 206.7C208.094 207.4 209.144 208.37 209.904 209.61C210.664 210.85 211.044 212.29 211.044 213.93C211.044 215.53 210.664 216.96 209.904 218.22C209.144 219.46 208.094 220.44 206.754 221.16C205.414 221.88 203.894 222.24 202.194 222.24ZM202.194 218.4C202.974 218.4 203.674 218.22 204.294 217.86C204.914 217.5 205.404 216.99 205.764 216.33C206.124 215.65 206.304 214.85 206.304 213.93C206.304 212.99 206.124 212.19 205.764 211.53C205.404 210.87 204.914 210.36 204.294 210C203.674 209.64 202.974 209.46 202.194 209.46C201.414 209.46 200.714 209.64 200.094 210C199.474 210.36 198.974 210.87 198.594 211.53C198.234 212.19 198.054 212.99 198.054 213.93C198.054 214.85 198.234 215.65 198.594 216.33C198.974 216.99 199.474 217.5 200.094 217.86C200.714 218.22 201.414 218.4 202.194 218.4ZM214.743 222V205.5C214.743 203.68 215.283 202.23 216.363 201.15C217.443 200.05 218.983 199.5 220.983 199.5C221.663 199.5 222.313 199.57 222.933 199.71C223.573 199.85 224.113 200.07 224.553 200.37L223.323 203.76C223.063 203.58 222.773 203.44 222.453 203.34C222.133 203.24 221.793 203.19 221.433 203.19C220.753 203.19 220.223 203.39 219.843 203.79C219.483 204.17 219.303 204.75 219.303 205.53V207.03L219.423 209.04V222H214.743ZM212.253 209.82V206.22H223.443V209.82H212.253ZM241.5 222.36C239.82 222.36 238.21 222.14 236.67 221.7C235.13 221.24 233.89 220.65 232.95 219.93L234.6 216.27C235.5 216.91 236.56 217.44 237.78 217.86C239.02 218.26 240.27 218.46 241.53 218.46C242.49 218.46 243.26 218.37 243.84 218.19C244.44 217.99 244.88 217.72 245.16 217.38C245.44 217.04 245.58 216.65 245.58 216.21C245.58 215.65 245.36 215.21 244.92 214.89C244.48 214.55 243.9 214.28 243.18 214.08C242.46 213.86 241.66 213.66 240.78 213.48C239.92 213.28 239.05 213.04 238.17 212.76C237.31 212.48 236.52 212.12 235.8 211.68C235.08 211.24 234.49 210.66 234.03 209.94C233.59 209.22 233.37 208.3 233.37 207.18C233.37 205.98 233.69 204.89 234.33 203.91C234.99 202.91 235.97 202.12 237.27 201.54C238.59 200.94 240.24 200.64 242.22 200.64C243.54 200.64 244.84 200.8 246.12 201.12C247.4 201.42 248.53 201.88 249.51 202.5L248.01 206.19C247.03 205.63 246.05 205.22 245.07 204.96C244.09 204.68 243.13 204.54 242.19 204.54C241.25 204.54 240.48 204.65 239.88 204.87C239.28 205.09 238.85 205.38 238.59 205.74C238.33 206.08 238.2 206.48 238.2 206.94C238.2 207.48 238.42 207.92 238.86 208.26C239.3 208.58 239.88 208.84 240.6 209.04C241.32 209.24 242.11 209.44 242.97 209.64C243.85 209.84 244.72 210.07 245.58 210.33C246.46 210.59 247.26 210.94 247.98 211.38C248.7 211.82 249.28 212.4 249.72 213.12C250.18 213.84 250.41 214.75 250.41 215.85C250.41 217.03 250.08 218.11 249.42 219.09C248.76 220.07 247.77 220.86 246.45 221.46C245.15 222.06 243.5 222.36 241.5 222.36ZM261.081 222.24C259.361 222.24 257.831 221.88 256.491 221.16C255.171 220.44 254.121 219.46 253.341 218.22C252.581 216.96 252.201 215.53 252.201 213.93C252.201 212.31 252.581 210.88 253.341 209.64C254.121 208.38 255.171 207.4 256.491 206.7C257.831 205.98 259.361 205.62 261.081 205.62C262.781 205.62 264.301 205.98 265.641 206.7C266.981 207.4 268.031 208.37 268.791 209.61C269.551 210.85 269.931 212.29 269.931 213.93C269.931 215.53 269.551 216.96 268.791 218.22C268.031 219.46 266.981 220.44 265.641 221.16C264.301 221.88 262.781 222.24 261.081 222.24ZM261.081 218.4C261.861 218.4 262.561 218.22 263.181 217.86C263.801 217.5 264.291 216.99 264.651 216.33C265.011 215.65 265.191 214.85 265.191 213.93C265.191 212.99 265.011 212.19 264.651 211.53C264.291 210.87 263.801 210.36 263.181 210C262.561 209.64 261.861 209.46 261.081 209.46C260.301 209.46 259.601 209.64 258.981 210C258.361 210.36 257.861 210.87 257.481 211.53C257.121 212.19 256.941 212.99 256.941 213.93C256.941 214.85 257.121 215.65 257.481 216.33C257.861 216.99 258.361 217.5 258.981 217.86C259.601 218.22 260.301 218.4 261.081 218.4ZM279.869 222.24C278.529 222.24 277.329 221.98 276.269 221.46C275.229 220.94 274.419 220.15 273.839 219.09C273.259 218.01 272.969 216.64 272.969 214.98V205.86H277.649V214.29C277.649 215.63 277.929 216.62 278.489 217.26C279.069 217.88 279.879 218.19 280.919 218.19C281.639 218.19 282.279 218.04 282.839 217.74C283.399 217.42 283.839 216.94 284.159 216.3C284.479 215.64 284.639 214.82 284.639 213.84V205.86H289.319V222H284.879V217.56L285.689 218.85C285.149 219.97 284.349 220.82 283.289 221.4C282.249 221.96 281.109 222.24 279.869 222.24ZM300.255 222.24C298.355 222.24 296.875 221.76 295.815 220.8C294.755 219.82 294.225 218.37 294.225 216.45V202.29H298.905V216.39C298.905 217.07 299.085 217.6 299.445 217.98C299.805 218.34 300.295 218.52 300.915 218.52C301.655 218.52 302.285 218.32 302.805 217.92L304.065 221.22C303.585 221.56 303.005 221.82 302.325 222C301.665 222.16 300.975 222.24 300.255 222.24ZM291.735 209.82V206.22H302.925V209.82H291.735ZM316.502 205.62C317.782 205.62 318.922 205.88 319.922 206.4C320.942 206.9 321.742 207.68 322.322 208.74C322.902 209.78 323.192 211.12 323.192 212.76V222H318.512V213.48C318.512 212.18 318.222 211.22 317.642 210.6C317.082 209.98 316.282 209.67 315.242 209.67C314.502 209.67 313.832 209.83 313.232 210.15C312.652 210.45 312.192 210.92 311.852 211.56C311.532 212.2 311.372 213.02 311.372 214.02V222H306.692V199.74H311.372V210.33L310.322 208.98C310.902 207.9 311.732 207.07 312.812 206.49C313.892 205.91 315.122 205.62 316.502 205.62ZM335.562 222.24C333.722 222.24 332.102 221.88 330.702 221.16C329.322 220.44 328.252 219.46 327.492 218.22C326.732 216.96 326.352 215.53 326.352 213.93C326.352 212.31 326.722 210.88 327.462 209.64C328.222 208.38 329.252 207.4 330.552 206.7C331.852 205.98 333.322 205.62 334.962 205.62C336.542 205.62 337.962 205.96 339.222 206.64C340.502 207.3 341.512 208.26 342.252 209.52C342.992 210.76 343.362 212.25 343.362 213.99C343.362 214.17 343.352 214.38 343.332 214.62C343.312 214.84 343.292 215.05 343.272 215.25H330.162V212.52H340.812L339.012 213.33C339.012 212.49 338.842 211.76 338.502 211.14C338.162 210.52 337.692 210.04 337.092 209.7C336.492 209.34 335.792 209.16 334.992 209.16C334.192 209.16 333.482 209.34 332.862 209.7C332.262 210.04 331.792 210.53 331.452 211.17C331.112 211.79 330.942 212.53 330.942 213.39V214.11C330.942 214.99 331.132 215.77 331.512 216.45C331.912 217.11 332.462 217.62 333.162 217.98C333.882 218.32 334.722 218.49 335.682 218.49C336.542 218.49 337.292 218.36 337.932 218.1C338.592 217.84 339.192 217.45 339.732 216.93L342.222 219.63C341.482 220.47 340.552 221.12 339.432 221.58C338.312 222.02 337.022 222.24 335.562 222.24ZM346.477 222V205.86H350.947V210.42L350.317 209.1C350.797 207.96 351.567 207.1 352.627 206.52C353.687 205.92 354.977 205.62 356.497 205.62V209.94C356.297 209.92 356.117 209.91 355.957 209.91C355.797 209.89 355.627 209.88 355.447 209.88C354.167 209.88 353.127 210.25 352.327 210.99C351.547 211.71 351.157 212.84 351.157 214.38V222H346.477ZM369.09 205.62C370.37 205.62 371.51 205.88 372.51 206.4C373.53 206.9 374.33 207.68 374.91 208.74C375.49 209.78 375.78 211.12 375.78 212.76V222H371.1V213.48C371.1 212.18 370.81 211.22 370.23 210.6C369.67 209.98 368.87 209.67 367.83 209.67C367.09 209.67 366.42 209.83 365.82 210.15C365.24 210.45 364.78 210.92 364.44 211.56C364.12 212.2 363.96 213.02 363.96 214.02V222H359.28V205.86H363.75V210.33L362.91 208.98C363.49 207.9 364.32 207.07 365.4 206.49C366.48 205.91 367.71 205.62 369.09 205.62ZM388.848 222V201H393.708V218.04H404.238V222H388.848ZM413.317 222.24C411.977 222.24 410.777 221.98 409.717 221.46C408.677 220.94 407.867 220.15 407.287 219.09C406.707 218.01 406.417 216.64 406.417 214.98V205.86H411.097V214.29C411.097 215.63 411.377 216.62 411.937 217.26C412.517 217.88 413.327 218.19 414.367 218.19C415.087 218.19 415.727 218.04 416.287 217.74C416.847 217.42 417.287 216.94 417.607 216.3C417.927 215.64 418.087 214.82 418.087 213.84V205.86H422.767V222H418.327V217.56L419.137 218.85C418.597 219.97 417.797 220.82 416.737 221.4C415.697 221.96 414.557 222.24 413.317 222.24ZM434.902 222.24C433.162 222.24 431.612 221.89 430.252 221.19C428.892 220.47 427.822 219.48 427.042 218.22C426.282 216.96 425.902 215.53 425.902 213.93C425.902 212.31 426.282 210.88 427.042 209.64C427.822 208.38 428.892 207.4 430.252 206.7C431.612 205.98 433.162 205.62 434.902 205.62C436.602 205.62 438.082 205.98 439.342 206.7C440.602 207.4 441.532 208.41 442.132 209.73L438.502 211.68C438.082 210.92 437.552 210.36 436.912 210C436.292 209.64 435.612 209.46 434.872 209.46C434.072 209.46 433.352 209.64 432.712 210C432.072 210.36 431.562 210.87 431.182 211.53C430.822 212.19 430.642 212.99 430.642 213.93C430.642 214.87 430.822 215.67 431.182 216.33C431.562 216.99 432.072 217.5 432.712 217.86C433.352 218.22 434.072 218.4 434.872 218.4C435.612 218.4 436.292 218.23 436.912 217.89C437.552 217.53 438.082 216.96 438.502 216.18L442.132 218.16C441.532 219.46 440.602 220.47 439.342 221.19C438.082 221.89 436.602 222.24 434.902 222.24ZM452.632 222.24C450.792 222.24 449.172 221.88 447.772 221.16C446.392 220.44 445.322 219.46 444.562 218.22C443.802 216.96 443.422 215.53 443.422 213.93C443.422 212.31 443.792 210.88 444.532 209.64C445.292 208.38 446.322 207.4 447.622 206.7C448.922 205.98 450.392 205.62 452.032 205.62C453.612 205.62 455.032 205.96 456.292 206.64C457.572 207.3 458.582 208.26 459.322 209.52C460.062 210.76 460.432 212.25 460.432 213.99C460.432 214.17 460.422 214.38 460.402 214.62C460.382 214.84 460.362 215.05 460.342 215.25H447.232V212.52H457.882L456.082 213.33C456.082 212.49 455.912 211.76 455.572 211.14C455.232 210.52 454.762 210.04 454.162 209.7C453.562 209.34 452.862 209.16 452.062 209.16C451.262 209.16 450.552 209.34 449.932 209.7C449.332 210.04 448.862 210.53 448.522 211.17C448.182 211.79 448.012 212.53 448.012 213.39V214.11C448.012 214.99 448.202 215.77 448.582 216.45C448.982 217.11 449.532 217.62 450.232 217.98C450.952 218.32 451.792 218.49 452.752 218.49C453.612 218.49 454.362 218.36 455.002 218.1C455.662 217.84 456.262 217.45 456.802 216.93L459.292 219.63C458.552 220.47 457.622 221.12 456.502 221.58C455.382 222.02 454.092 222.24 452.632 222.24ZM473.358 205.62C474.638 205.62 475.778 205.88 476.778 206.4C477.798 206.9 478.598 207.68 479.178 208.74C479.758 209.78 480.048 211.12 480.048 212.76V222H475.368V213.48C475.368 212.18 475.078 211.22 474.498 210.6C473.938 209.98 473.138 209.67 472.098 209.67C471.358 209.67 470.688 209.83 470.088 210.15C469.508 210.45 469.048 210.92 468.708 211.56C468.388 212.2 468.228 213.02 468.228 214.02V222H463.548V205.86H468.018V210.33L467.178 208.98C467.758 207.9 468.588 207.07 469.668 206.49C470.748 205.91 471.978 205.62 473.358 205.62ZM494.19 222V218.85L493.89 218.16V212.52C493.89 211.52 493.58 210.74 492.96 210.18C492.36 209.62 491.43 209.34 490.17 209.34C489.31 209.34 488.46 209.48 487.62 209.76C486.8 210.02 486.1 210.38 485.52 210.84L483.84 207.57C484.72 206.95 485.78 206.47 487.02 206.13C488.26 205.79 489.52 205.62 490.8 205.62C493.26 205.62 495.17 206.2 496.53 207.36C497.89 208.52 498.57 210.33 498.57 212.79V222H494.19ZM489.27 222.24C488.01 222.24 486.93 222.03 486.03 221.61C485.13 221.17 484.44 220.58 483.96 219.84C483.48 219.1 483.24 218.27 483.24 217.35C483.24 216.39 483.47 215.55 483.93 214.83C484.41 214.11 485.16 213.55 486.18 213.15C487.2 212.73 488.53 212.52 490.17 212.52H494.46V215.25H490.68C489.58 215.25 488.82 215.43 488.4 215.79C488 216.15 487.8 216.6 487.8 217.14C487.8 217.74 488.03 218.22 488.49 218.58C488.97 218.92 489.62 219.09 490.44 219.09C491.22 219.09 491.92 218.91 492.54 218.55C493.16 218.17 493.61 217.62 493.89 216.9L494.61 219.06C494.27 220.1 493.65 220.89 492.75 221.43C491.85 221.97 490.69 222.24 489.27 222.24Z" fill="url(#paint1_linear_4227_11)"/>
</g>
<defs>
<filter id="filter0_ddi_4227_11" x="0" y="0" width="691" height="198" filterUnits="userSpaceOnUse" color-interpolation-filters="sRGB">
<feFlood flood-opacity="0" result="BackgroundImageFix"/>
<feColorMatrix in="SourceAlpha" type="matrix" values="0 0 0 0 0 0 0 0 0 0 0 0 0 0 0 0 0 0 127 0" result="hardAlpha"/>
<feOffset dy="5"/>
<feGaussianBlur stdDeviation="2.5"/>
<feComposite in2="hardAlpha" operator="out"/>
<feColorMatrix type="matrix" values="0 0 0 0 0.0156863 0 0 0 0 0.0509804 0 0 0 0 0.00784314 0 0 0 0.5 0"/>
<feBlend mode="normal" in2="BackgroundImageFix" result="effect1_dropShadow_4227_11"/>
<feColorMatrix in="SourceAlpha" type="matrix" values="0 0 0 0 0 0 0 0 0 0 0 0 0 0 0 0 0 0 127 0" result="hardAlpha"/>
<feOffset dy="-4"/>
<feGaussianBlur stdDeviation="2"/>
<feComposite in2="hardAlpha" operator="out"/>
<feColorMatrix type="matrix" values="0 0 0 0 0.266667 0 0 0 0 1 0 0 0 0 0 0 0 0 0.1 0"/>
<feBlend mode="normal" in2="effect1_dropShadow_4227_11" result="effect2_dropShadow_4227_11"/>
<feBlend mode="normal" in="SourceGraphic" in2="effect2_dropShadow_4227_11" result="shape"/>
<feColorMatrix in="SourceAlpha" type="matrix" values="0 0 0 0 0 0 0 0 0 0 0 0 0 0 0 0 0 0 127 0" result="hardAlpha"/>
<feOffset dy="2"/>
<feComposite in2="hardAlpha" operator="arithmetic" k2="-1" k3="1"/>
<feColorMatrix type="matrix" values="0 0 0 0 0.0921474 0 0 0 0 0.552885 0 0 0 0 0 0 0 0 1 0"/>
<feBlend mode="normal" in2="shape" result="effect3_innerShadow_4227_11"/>
</filter>
<filter id="filter1_di_4227_11" x="188.312" y="199.5" width="315.258" height="32.8594" filterUnits="userSpaceOnUse" color-interpolation-filters="sRGB">
<feFlood flood-opacity="0" result="BackgroundImageFix"/>
<feColorMatrix in="SourceAlpha" type="matrix" values="0 0 0 0 0 0 0 0 0 0 0 0 0 0 0 0 0 0 127 0" result="hardAlpha"/>
<feOffset dy="5"/>
<feGaussianBlur stdDeviation="2.5"/>
<feComposite in2="hardAlpha" operator="out"/>
<feColorMatrix type="matrix" values="0 0 0 0 0.0156863 0 0 0 0 0.0509804 0 0 0 0 0.00784314 0 0 0 0.5 0"/>
<feBlend mode="normal" in2="BackgroundImageFix" result="effect1_dropShadow_4227_11"/>
<feBlend mode="normal" in="SourceGraphic" in2="effect1_dropShadow_4227_11" result="shape"/>
<feColorMatrix in="SourceAlpha" type="matrix" values="0 0 0 0 0 0 0 0 0 0 0 0 0 0 0 0 0 0 127 0" result="hardAlpha"/>
<feOffset dy="1"/>
<feComposite in2="hardAlpha" operator="arithmetic" k2="-1" k3="1"/>
<feColorMatrix type="matrix" values="0 0 0 0 0.0901961 0 0 0 0 0.552941 0 0 0 0 0 0 0 0 1 0"/>
<feBlend mode="normal" in2="shape" result="effect2_innerShadow_4227_11"/>
</filter>
<linearGradient id="paint0_linear_4227_11" x1="357.777" y1="8" x2="360.479" y2="188.035" gradientUnits="userSpaceOnUse">
<stop stop-color="#236515"/>
<stop offset="1" stop-color="#0A2601"/>
</linearGradient>
<linearGradient id="paint1_linear_4227_11" x1="354.743" y1="197.549" x2="354.743" y2="222.115" gradientUnits="userSpaceOnUse">
<stop stop-color="#236515"/>
<stop offset="1" stop-color="#0A2601"/>
</linearGradient>
</defs>
</svg>
