<svg width="3206" height="1610" viewBox="0 0 3206 1610" fill="none" xmlns="http://www.w3.org/2000/svg">
<g filter="url(#filter0_ddii_4251_168)">
<path d="M292.07 1282.68C284.23 1282.68 276.717 1281.65 269.53 1279.6C262.343 1277.45 256.557 1274.7 252.17 1271.34L259.87 1254.26C264.07 1257.25 269.017 1259.72 274.71 1261.68C280.497 1263.55 286.33 1264.48 292.21 1264.48C296.69 1264.48 300.283 1264.06 302.99 1263.22C305.79 1262.29 307.843 1261.03 309.15 1259.44C310.457 1257.85 311.11 1256.03 311.11 1253.98C311.11 1251.37 310.083 1249.31 308.03 1247.82C305.977 1246.23 303.27 1244.97 299.91 1244.04C296.55 1243.01 292.817 1242.08 288.71 1241.24C284.697 1240.31 280.637 1239.19 276.53 1237.88C272.517 1236.57 268.83 1234.89 265.47 1232.84C262.11 1230.79 259.357 1228.08 257.21 1224.72C255.157 1221.36 254.13 1217.07 254.13 1211.84C254.13 1206.24 255.623 1201.15 258.61 1196.58C261.69 1191.91 266.263 1188.23 272.33 1185.52C278.49 1182.72 286.19 1181.32 295.43 1181.32C301.59 1181.32 307.657 1182.07 313.63 1183.56C319.603 1184.96 324.877 1187.11 329.45 1190L322.45 1207.22C317.877 1204.61 313.303 1202.69 308.73 1201.48C304.157 1200.17 299.677 1199.52 295.29 1199.52C290.903 1199.52 287.31 1200.03 284.51 1201.06C281.71 1202.09 279.703 1203.44 278.49 1205.12C277.277 1206.71 276.67 1208.57 276.67 1210.72C276.67 1213.24 277.697 1215.29 279.75 1216.88C281.803 1218.37 284.51 1219.59 287.87 1220.52C291.23 1221.45 294.917 1222.39 298.93 1223.32C303.037 1224.25 307.097 1225.33 311.11 1226.54C315.217 1227.75 318.95 1229.39 322.31 1231.44C325.67 1233.49 328.377 1236.2 330.43 1239.56C332.577 1242.92 333.65 1247.17 333.65 1252.3C333.65 1257.81 332.11 1262.85 329.03 1267.42C325.95 1271.99 321.33 1275.68 315.17 1278.48C309.103 1281.28 301.403 1282.68 292.07 1282.68ZM378.407 1282.12C369.541 1282.12 362.634 1279.88 357.687 1275.4C352.741 1270.83 350.267 1264.06 350.267 1255.1V1189.02H372.107V1254.82C372.107 1257.99 372.947 1260.47 374.627 1262.24C376.307 1263.92 378.594 1264.76 381.487 1264.76C384.941 1264.76 387.881 1263.83 390.307 1261.96L396.187 1277.36C393.947 1278.95 391.241 1280.16 388.067 1281C384.987 1281.75 381.767 1282.12 378.407 1282.12ZM338.647 1224.16V1207.36H390.867V1224.16H338.647ZM440.227 1282.12C433.974 1282.12 428.374 1280.91 423.427 1278.48C418.574 1276.05 414.794 1272.37 412.087 1267.42C409.381 1262.38 408.027 1255.99 408.027 1248.24V1205.68H429.867V1245.02C429.867 1251.27 431.174 1255.89 433.787 1258.88C436.494 1261.77 440.274 1263.22 445.127 1263.22C448.487 1263.22 451.474 1262.52 454.087 1261.12C456.701 1259.63 458.754 1257.39 460.247 1254.4C461.741 1251.32 462.487 1247.49 462.487 1242.92V1205.68H484.327V1281H463.607V1260.28L467.387 1266.3C464.867 1271.53 461.134 1275.49 456.187 1278.2C451.334 1280.81 446.014 1282.12 440.227 1282.12ZM536.9 1282.12C529.807 1282.12 523.414 1280.53 517.72 1277.36C512.027 1274.09 507.5 1269.57 504.14 1263.78C500.874 1257.99 499.24 1251.18 499.24 1243.34C499.24 1235.41 500.874 1228.55 504.14 1222.76C507.5 1216.97 512.027 1212.49 517.72 1209.32C523.414 1206.15 529.807 1204.56 536.9 1204.56C543.247 1204.56 548.8 1205.96 553.56 1208.76C558.32 1211.56 562.007 1215.81 564.62 1221.5C567.234 1227.19 568.54 1234.47 568.54 1243.34C568.54 1252.11 567.28 1259.39 564.76 1265.18C562.24 1270.87 558.6 1275.12 553.84 1277.92C549.174 1280.72 543.527 1282.12 536.9 1282.12ZM540.68 1264.2C544.227 1264.2 547.447 1263.36 550.34 1261.68C553.234 1260 555.52 1257.62 557.2 1254.54C558.974 1251.37 559.86 1247.63 559.86 1243.34C559.86 1238.95 558.974 1235.22 557.2 1232.14C555.52 1229.06 553.234 1226.68 550.34 1225C547.447 1223.32 544.227 1222.48 540.68 1222.48C537.04 1222.48 533.774 1223.32 530.88 1225C527.987 1226.68 525.654 1229.06 523.88 1232.14C522.2 1235.22 521.36 1238.95 521.36 1243.34C521.36 1247.63 522.2 1251.37 523.88 1254.54C525.654 1257.62 527.987 1260 530.88 1261.68C533.774 1263.36 537.04 1264.2 540.68 1264.2ZM560.42 1281V1265.6L560.84 1243.2L559.44 1220.94V1177.12H581.28V1281H560.42ZM611.014 1309.28C607.094 1309.28 603.221 1308.67 599.394 1307.46C595.567 1306.25 592.441 1304.57 590.014 1302.42L597.994 1286.88C599.674 1288.37 601.587 1289.54 603.734 1290.38C605.974 1291.22 608.167 1291.64 610.314 1291.64C613.394 1291.64 615.821 1290.89 617.594 1289.4C619.461 1288 621.141 1285.62 622.634 1282.26L626.554 1273.02L628.234 1270.64L655.254 1205.68H676.254L642.234 1285.62C639.807 1291.69 637.007 1296.45 633.834 1299.9C630.754 1303.35 627.301 1305.78 623.474 1307.18C619.741 1308.58 615.587 1309.28 611.014 1309.28ZM623.894 1283.94L590.294 1205.68H612.834L638.874 1268.68L623.894 1283.94ZM713.474 1281L757.154 1183H779.554L823.374 1281H799.574L763.734 1194.48H772.694L736.714 1281H713.474ZM735.314 1260L741.334 1242.78H791.734L797.894 1260H735.314ZM856.658 1282.12C850.218 1282.12 844.012 1281.37 838.038 1279.88C832.158 1278.29 827.492 1276.33 824.038 1274L831.318 1258.32C834.772 1260.47 838.832 1262.24 843.498 1263.64C848.258 1264.95 852.925 1265.6 857.498 1265.6C862.538 1265.6 866.085 1264.99 868.138 1263.78C870.285 1262.57 871.358 1260.89 871.358 1258.74C871.358 1256.97 870.518 1255.66 868.838 1254.82C867.252 1253.89 865.105 1253.19 862.398 1252.72C859.692 1252.25 856.705 1251.79 853.438 1251.32C850.265 1250.85 847.045 1250.25 843.778 1249.5C840.512 1248.66 837.525 1247.45 834.818 1245.86C832.112 1244.27 829.918 1242.13 828.238 1239.42C826.652 1236.71 825.858 1233.21 825.858 1228.92C825.858 1224.16 827.212 1219.96 829.918 1216.32C832.718 1212.68 836.732 1209.83 841.958 1207.78C847.185 1205.63 853.438 1204.56 860.718 1204.56C865.852 1204.56 871.078 1205.12 876.398 1206.24C881.718 1207.36 886.152 1208.99 889.698 1211.14L882.418 1226.68C878.778 1224.53 875.092 1223.09 871.358 1222.34C867.718 1221.5 864.172 1221.08 860.718 1221.08C855.865 1221.08 852.318 1221.73 850.078 1223.04C847.838 1224.35 846.718 1226.03 846.718 1228.08C846.718 1229.95 847.512 1231.35 849.098 1232.28C850.778 1233.21 852.972 1233.96 855.678 1234.52C858.385 1235.08 861.325 1235.59 864.498 1236.06C867.765 1236.43 871.032 1237.04 874.298 1237.88C877.565 1238.72 880.505 1239.93 883.118 1241.52C885.825 1243.01 888.018 1245.11 889.698 1247.82C891.378 1250.43 892.218 1253.89 892.218 1258.18C892.218 1262.85 890.818 1267 888.018 1270.64C885.218 1274.19 881.158 1276.99 875.838 1279.04C870.612 1281.09 864.218 1282.12 856.658 1282.12ZM931.033 1282.12C924.593 1282.12 918.387 1281.37 912.413 1279.88C906.533 1278.29 901.867 1276.33 898.413 1274L905.693 1258.32C909.147 1260.47 913.207 1262.24 917.873 1263.64C922.633 1264.95 927.3 1265.6 931.873 1265.6C936.913 1265.6 940.46 1264.99 942.513 1263.78C944.66 1262.57 945.733 1260.89 945.733 1258.74C945.733 1256.97 944.893 1255.66 943.213 1254.82C941.627 1253.89 939.48 1253.19 936.773 1252.72C934.067 1252.25 931.08 1251.79 927.813 1251.32C924.64 1250.85 921.42 1250.25 918.153 1249.5C914.887 1248.66 911.9 1247.45 909.193 1245.86C906.487 1244.27 904.293 1242.13 902.613 1239.42C901.027 1236.71 900.233 1233.21 900.233 1228.92C900.233 1224.16 901.587 1219.96 904.293 1216.32C907.093 1212.68 911.107 1209.83 916.333 1207.78C921.56 1205.63 927.813 1204.56 935.093 1204.56C940.227 1204.56 945.453 1205.12 950.773 1206.24C956.093 1207.36 960.527 1208.99 964.073 1211.14L956.793 1226.68C953.153 1224.53 949.467 1223.09 945.733 1222.34C942.093 1221.5 938.547 1221.08 935.093 1221.08C930.24 1221.08 926.693 1221.73 924.453 1223.04C922.213 1224.35 921.093 1226.03 921.093 1228.08C921.093 1229.95 921.887 1231.35 923.473 1232.28C925.153 1233.21 927.347 1233.96 930.053 1234.52C932.76 1235.08 935.7 1235.59 938.873 1236.06C942.14 1236.43 945.407 1237.04 948.673 1237.88C951.94 1238.72 954.88 1239.93 957.493 1241.52C960.2 1243.01 962.393 1245.11 964.073 1247.82C965.753 1250.43 966.593 1253.89 966.593 1258.18C966.593 1262.85 965.193 1267 962.393 1270.64C959.593 1274.19 955.533 1276.99 950.213 1279.04C944.987 1281.09 938.593 1282.12 931.033 1282.12ZM980.068 1281V1205.68H1001.91V1281H980.068ZM990.988 1195.18C986.975 1195.18 983.708 1194.01 981.188 1191.68C978.668 1189.35 977.408 1186.45 977.408 1183C977.408 1179.55 978.668 1176.65 981.188 1174.32C983.708 1171.99 986.975 1170.82 990.988 1170.82C995.002 1170.82 998.268 1171.94 1000.79 1174.18C1003.31 1176.33 1004.57 1179.13 1004.57 1182.58C1004.57 1186.22 1003.31 1189.25 1000.79 1191.68C998.362 1194.01 995.095 1195.18 990.988 1195.18ZM1047.52 1282.12C1041.08 1282.12 1034.87 1281.37 1028.9 1279.88C1023.02 1278.29 1018.35 1276.33 1014.9 1274L1022.18 1258.32C1025.63 1260.47 1029.69 1262.24 1034.36 1263.64C1039.12 1264.95 1043.78 1265.6 1048.36 1265.6C1053.4 1265.6 1056.94 1264.99 1059 1263.78C1061.14 1262.57 1062.22 1260.89 1062.22 1258.74C1062.22 1256.97 1061.38 1255.66 1059.7 1254.82C1058.11 1253.89 1055.96 1253.19 1053.26 1252.72C1050.55 1252.25 1047.56 1251.79 1044.3 1251.32C1041.12 1250.85 1037.9 1250.25 1034.64 1249.5C1031.37 1248.66 1028.38 1247.45 1025.68 1245.86C1022.97 1244.27 1020.78 1242.13 1019.1 1239.42C1017.51 1236.71 1016.72 1233.21 1016.72 1228.92C1016.72 1224.16 1018.07 1219.96 1020.78 1216.32C1023.58 1212.68 1027.59 1209.83 1032.82 1207.78C1038.04 1205.63 1044.3 1204.56 1051.58 1204.56C1056.71 1204.56 1061.94 1205.12 1067.26 1206.24C1072.58 1207.36 1077.01 1208.99 1080.56 1211.14L1073.28 1226.68C1069.64 1224.53 1065.95 1223.09 1062.22 1222.34C1058.58 1221.5 1055.03 1221.08 1051.58 1221.08C1046.72 1221.08 1043.18 1221.73 1040.94 1223.04C1038.7 1224.35 1037.58 1226.03 1037.58 1228.08C1037.58 1229.95 1038.37 1231.35 1039.96 1232.28C1041.64 1233.21 1043.83 1233.96 1046.54 1234.52C1049.24 1235.08 1052.18 1235.59 1055.36 1236.06C1058.62 1236.43 1061.89 1237.04 1065.16 1237.88C1068.42 1238.72 1071.36 1239.93 1073.98 1241.52C1076.68 1243.01 1078.88 1245.11 1080.56 1247.82C1082.24 1250.43 1083.08 1253.89 1083.08 1258.18C1083.08 1262.85 1081.68 1267 1078.88 1270.64C1076.08 1274.19 1072.02 1276.99 1066.7 1279.04C1061.47 1281.09 1055.08 1282.12 1047.52 1282.12ZM1127.35 1282.12C1118.49 1282.12 1111.58 1279.88 1106.63 1275.4C1101.69 1270.83 1099.21 1264.06 1099.21 1255.1V1189.02H1121.05V1254.82C1121.05 1257.99 1121.89 1260.47 1123.57 1262.24C1125.25 1263.92 1127.54 1264.76 1130.43 1264.76C1133.89 1264.76 1136.83 1263.83 1139.25 1261.96L1145.13 1277.36C1142.89 1278.95 1140.19 1280.16 1137.01 1281C1133.93 1281.75 1130.71 1282.12 1127.35 1282.12ZM1087.59 1224.16V1207.36H1139.81V1224.16H1087.59ZM1243.24 1281V1266.3L1241.84 1263.08V1236.76C1241.84 1232.09 1240.39 1228.45 1237.5 1225.84C1234.7 1223.23 1230.36 1221.92 1224.48 1221.92C1220.47 1221.92 1216.5 1222.57 1212.58 1223.88C1208.75 1225.09 1205.49 1226.77 1202.78 1228.92L1194.94 1213.66C1199.05 1210.77 1203.99 1208.53 1209.78 1206.94C1215.57 1205.35 1221.45 1204.56 1227.42 1204.56C1238.9 1204.56 1247.81 1207.27 1254.16 1212.68C1260.51 1218.09 1263.68 1226.54 1263.68 1238.02V1281H1243.24ZM1220.28 1282.12C1214.4 1282.12 1209.36 1281.14 1205.16 1279.18C1200.96 1277.13 1197.74 1274.37 1195.5 1270.92C1193.26 1267.47 1192.14 1263.59 1192.14 1259.3C1192.14 1254.82 1193.21 1250.9 1195.36 1247.54C1197.6 1244.18 1201.1 1241.57 1205.86 1239.7C1210.62 1237.74 1216.83 1236.76 1224.48 1236.76H1244.5V1249.5H1226.86C1221.73 1249.5 1218.18 1250.34 1216.22 1252.02C1214.35 1253.7 1213.42 1255.8 1213.42 1258.32C1213.42 1261.12 1214.49 1263.36 1216.64 1265.04C1218.88 1266.63 1221.91 1267.42 1225.74 1267.42C1229.38 1267.42 1232.65 1266.58 1235.54 1264.9C1238.43 1263.13 1240.53 1260.56 1241.84 1257.2L1245.2 1267.28C1243.61 1272.13 1240.72 1275.82 1236.52 1278.34C1232.32 1280.86 1226.91 1282.12 1220.28 1282.12ZM1329.23 1204.56C1335.2 1204.56 1340.52 1205.77 1345.19 1208.2C1349.95 1210.53 1353.68 1214.17 1356.39 1219.12C1359.09 1223.97 1360.45 1230.23 1360.45 1237.88V1281H1338.61V1241.24C1338.61 1235.17 1337.25 1230.69 1334.55 1227.8C1331.93 1224.91 1328.2 1223.46 1323.35 1223.46C1319.89 1223.46 1316.77 1224.21 1313.97 1225.7C1311.26 1227.1 1309.11 1229.29 1307.53 1232.28C1306.03 1235.27 1305.29 1239.09 1305.29 1243.76V1281H1283.45V1205.68H1304.31V1226.54L1300.39 1220.24C1303.09 1215.2 1306.97 1211.33 1312.01 1208.62C1317.05 1205.91 1322.79 1204.56 1329.23 1204.56ZM1413.13 1282.12C1406.04 1282.12 1399.64 1280.53 1393.95 1277.36C1388.26 1274.09 1383.73 1269.57 1380.37 1263.78C1377.1 1257.99 1375.47 1251.18 1375.47 1243.34C1375.47 1235.41 1377.1 1228.55 1380.37 1222.76C1383.73 1216.97 1388.26 1212.49 1393.95 1209.32C1399.64 1206.15 1406.04 1204.56 1413.13 1204.56C1419.48 1204.56 1425.03 1205.96 1429.79 1208.76C1434.55 1211.56 1438.24 1215.81 1440.85 1221.5C1443.46 1227.19 1444.77 1234.47 1444.77 1243.34C1444.77 1252.11 1443.51 1259.39 1440.99 1265.18C1438.47 1270.87 1434.83 1275.12 1430.07 1277.92C1425.4 1280.72 1419.76 1282.12 1413.13 1282.12ZM1416.91 1264.2C1420.46 1264.2 1423.68 1263.36 1426.57 1261.68C1429.46 1260 1431.75 1257.62 1433.43 1254.54C1435.2 1251.37 1436.09 1247.63 1436.09 1243.34C1436.09 1238.95 1435.2 1235.22 1433.43 1232.14C1431.75 1229.06 1429.46 1226.68 1426.57 1225C1423.68 1223.32 1420.46 1222.48 1416.91 1222.48C1413.27 1222.48 1410 1223.32 1407.11 1225C1404.22 1226.68 1401.88 1229.06 1400.11 1232.14C1398.43 1235.22 1397.59 1238.95 1397.59 1243.34C1397.59 1247.63 1398.43 1251.37 1400.11 1254.54C1401.88 1257.62 1404.22 1260 1407.11 1261.68C1410 1263.36 1413.27 1264.2 1416.91 1264.2ZM1436.65 1281V1265.6L1437.07 1243.2L1435.67 1220.94V1177.12H1457.51V1281H1436.65ZM1566.23 1282.68C1558.49 1282.68 1551.35 1281.47 1544.81 1279.04C1538.37 1276.52 1532.73 1272.97 1527.87 1268.4C1523.11 1263.83 1519.38 1258.46 1516.67 1252.3C1514.06 1246.14 1512.75 1239.37 1512.75 1232C1512.75 1224.63 1514.06 1217.86 1516.67 1211.7C1519.38 1205.54 1523.16 1200.17 1528.01 1195.6C1532.87 1191.03 1538.56 1187.53 1545.09 1185.1C1551.63 1182.58 1558.81 1181.32 1566.65 1181.32C1575.33 1181.32 1583.13 1182.77 1590.03 1185.66C1597.03 1188.55 1602.91 1192.75 1607.67 1198.26L1593.11 1211.7C1589.57 1207.97 1585.69 1205.21 1581.49 1203.44C1577.29 1201.57 1572.72 1200.64 1567.77 1200.64C1563.01 1200.64 1558.67 1201.39 1554.75 1202.88C1550.83 1204.37 1547.43 1206.52 1544.53 1209.32C1541.73 1212.12 1539.54 1215.43 1537.95 1219.26C1536.46 1223.09 1535.71 1227.33 1535.71 1232C1535.71 1236.57 1536.46 1240.77 1537.95 1244.6C1539.54 1248.43 1541.73 1251.79 1544.53 1254.68C1547.43 1257.48 1550.79 1259.63 1554.61 1261.12C1558.53 1262.61 1562.83 1263.36 1567.49 1263.36C1571.97 1263.36 1576.31 1262.66 1580.51 1261.26C1584.81 1259.77 1588.96 1257.29 1592.97 1253.84L1605.85 1270.22C1600.53 1274.23 1594.33 1277.31 1587.23 1279.46C1580.23 1281.61 1573.23 1282.68 1566.23 1282.68ZM1585.13 1267.28V1230.46H1605.85V1270.22L1585.13 1267.28ZM1657.16 1282.12C1650.91 1282.12 1645.31 1280.91 1640.36 1278.48C1635.51 1276.05 1631.73 1272.37 1629.02 1267.42C1626.31 1262.38 1624.96 1255.99 1624.96 1248.24V1205.68H1646.8V1245.02C1646.8 1251.27 1648.11 1255.89 1650.72 1258.88C1653.43 1261.77 1657.21 1263.22 1662.06 1263.22C1665.42 1263.22 1668.41 1262.52 1671.02 1261.12C1673.63 1259.63 1675.69 1257.39 1677.18 1254.4C1678.67 1251.32 1679.42 1247.49 1679.42 1242.92V1205.68H1701.26V1281H1680.54V1260.28L1684.32 1266.3C1681.8 1271.53 1678.07 1275.49 1673.12 1278.2C1668.27 1280.81 1662.95 1282.12 1657.16 1282.12ZM1721.49 1281V1205.68H1743.33V1281H1721.49ZM1732.41 1195.18C1728.4 1195.18 1725.13 1194.01 1722.61 1191.68C1720.09 1189.35 1718.83 1186.45 1718.83 1183C1718.83 1179.55 1720.09 1176.65 1722.61 1174.32C1725.13 1171.99 1728.4 1170.82 1732.41 1170.82C1736.43 1170.82 1739.69 1171.94 1742.21 1174.18C1744.73 1176.33 1745.99 1179.13 1745.99 1182.58C1745.99 1186.22 1744.73 1189.25 1742.21 1191.68C1739.79 1194.01 1736.52 1195.18 1732.41 1195.18ZM1795.94 1282.12C1788.85 1282.12 1782.46 1280.53 1776.76 1277.36C1771.07 1274.09 1766.54 1269.57 1763.18 1263.78C1759.92 1257.99 1758.28 1251.18 1758.28 1243.34C1758.28 1235.41 1759.92 1228.55 1763.18 1222.76C1766.54 1216.97 1771.07 1212.49 1776.76 1209.32C1782.46 1206.15 1788.85 1204.56 1795.94 1204.56C1802.29 1204.56 1807.84 1205.96 1812.6 1208.76C1817.36 1211.56 1821.05 1215.81 1823.66 1221.5C1826.28 1227.19 1827.58 1234.47 1827.58 1243.34C1827.58 1252.11 1826.32 1259.39 1823.8 1265.18C1821.28 1270.87 1817.64 1275.12 1812.88 1277.92C1808.22 1280.72 1802.57 1282.12 1795.94 1282.12ZM1799.72 1264.2C1803.27 1264.2 1806.49 1263.36 1809.38 1261.68C1812.28 1260 1814.56 1257.62 1816.24 1254.54C1818.02 1251.37 1818.9 1247.63 1818.9 1243.34C1818.9 1238.95 1818.02 1235.22 1816.24 1232.14C1814.56 1229.06 1812.28 1226.68 1809.38 1225C1806.49 1223.32 1803.27 1222.48 1799.72 1222.48C1796.08 1222.48 1792.82 1223.32 1789.92 1225C1787.03 1226.68 1784.7 1229.06 1782.92 1232.14C1781.24 1235.22 1780.4 1238.95 1780.4 1243.34C1780.4 1247.63 1781.24 1251.37 1782.92 1254.54C1784.7 1257.62 1787.03 1260 1789.92 1261.68C1792.82 1263.36 1796.08 1264.2 1799.72 1264.2ZM1819.46 1281V1265.6L1819.88 1243.2L1818.48 1220.94V1177.12H1840.32V1281H1819.46ZM1897.92 1282.12C1889.33 1282.12 1881.77 1280.44 1875.24 1277.08C1868.8 1273.72 1863.8 1269.15 1860.26 1263.36C1856.71 1257.48 1854.94 1250.81 1854.94 1243.34C1854.94 1235.78 1856.66 1229.11 1860.12 1223.32C1863.66 1217.44 1868.47 1212.87 1874.54 1209.6C1880.6 1206.24 1887.46 1204.56 1895.12 1204.56C1902.49 1204.56 1909.12 1206.15 1915 1209.32C1920.97 1212.4 1925.68 1216.88 1929.14 1222.76C1932.59 1228.55 1934.32 1235.5 1934.32 1243.62C1934.32 1244.46 1934.27 1245.44 1934.18 1246.56C1934.08 1247.59 1933.99 1248.57 1933.9 1249.5H1872.72V1236.76H1922.42L1914.02 1240.54C1914.02 1236.62 1913.22 1233.21 1911.64 1230.32C1910.05 1227.43 1907.86 1225.19 1905.06 1223.6C1902.26 1221.92 1898.99 1221.08 1895.26 1221.08C1891.52 1221.08 1888.21 1221.92 1885.32 1223.6C1882.52 1225.19 1880.32 1227.47 1878.74 1230.46C1877.15 1233.35 1876.36 1236.81 1876.36 1240.82V1244.18C1876.36 1248.29 1877.24 1251.93 1879.02 1255.1C1880.88 1258.18 1883.45 1260.56 1886.72 1262.24C1890.08 1263.83 1894 1264.62 1898.48 1264.62C1902.49 1264.62 1905.99 1264.01 1908.98 1262.8C1912.06 1261.59 1914.86 1259.77 1917.38 1257.34L1929 1269.94C1925.54 1273.86 1921.2 1276.89 1915.98 1279.04C1910.75 1281.09 1904.73 1282.12 1897.92 1282.12ZM1991.17 1281V1204C1991.17 1195.51 1993.69 1188.74 1998.73 1183.7C2003.77 1178.57 2010.95 1176 2020.29 1176C2023.46 1176 2026.49 1176.33 2029.39 1176.98C2032.37 1177.63 2034.89 1178.66 2036.95 1180.06L2031.21 1195.88C2029.99 1195.04 2028.64 1194.39 2027.15 1193.92C2025.65 1193.45 2024.07 1193.22 2022.39 1193.22C2019.21 1193.22 2016.74 1194.15 2014.97 1196.02C2013.29 1197.79 2012.45 1200.5 2012.45 1204.14V1211.14L2013.01 1220.52V1281H1991.17ZM1979.55 1224.16V1207.36H2031.77V1224.16H1979.55ZM2077.53 1282.12C2069.5 1282.12 2062.36 1280.44 2056.11 1277.08C2049.95 1273.72 2045.05 1269.15 2041.41 1263.36C2037.86 1257.48 2036.09 1250.81 2036.09 1243.34C2036.09 1235.78 2037.86 1229.11 2041.41 1223.32C2045.05 1217.44 2049.95 1212.87 2056.11 1209.6C2062.36 1206.24 2069.5 1204.56 2077.53 1204.56C2085.46 1204.56 2092.56 1206.24 2098.81 1209.6C2105.06 1212.87 2109.96 1217.39 2113.51 1223.18C2117.06 1228.97 2118.83 1235.69 2118.83 1243.34C2118.83 1250.81 2117.06 1257.48 2113.51 1263.36C2109.96 1269.15 2105.06 1273.72 2098.81 1277.08C2092.56 1280.44 2085.46 1282.12 2077.53 1282.12ZM2077.53 1264.2C2081.17 1264.2 2084.44 1263.36 2087.33 1261.68C2090.22 1260 2092.51 1257.62 2094.19 1254.54C2095.87 1251.37 2096.71 1247.63 2096.71 1243.34C2096.71 1238.95 2095.87 1235.22 2094.19 1232.14C2092.51 1229.06 2090.22 1226.68 2087.33 1225C2084.44 1223.32 2081.17 1222.48 2077.53 1222.48C2073.89 1222.48 2070.62 1223.32 2067.73 1225C2064.84 1226.68 2062.5 1229.06 2060.73 1232.14C2059.05 1235.22 2058.21 1238.95 2058.21 1243.34C2058.21 1247.63 2059.05 1251.37 2060.73 1254.54C2062.5 1257.62 2064.84 1260 2067.73 1261.68C2070.62 1263.36 2073.89 1264.2 2077.53 1264.2ZM2133.43 1281V1205.68H2154.29V1226.96L2151.35 1220.8C2153.59 1215.48 2157.18 1211.47 2162.13 1208.76C2167.07 1205.96 2173.09 1204.56 2180.19 1204.56V1224.72C2179.25 1224.63 2178.41 1224.58 2177.67 1224.58C2176.92 1224.49 2176.13 1224.44 2175.29 1224.44C2169.31 1224.44 2164.46 1226.17 2160.73 1229.62C2157.09 1232.98 2155.27 1238.25 2155.27 1245.44V1281H2133.43ZM2222.03 1281L2265.71 1183H2288.11L2331.93 1281H2308.13L2272.29 1194.48H2281.25L2245.27 1281H2222.03ZM2243.87 1260L2249.89 1242.78H2300.29L2306.45 1260H2243.87ZM2376.27 1282.12C2368.15 1282.12 2360.92 1280.49 2354.57 1277.22C2348.23 1273.86 2343.23 1269.24 2339.59 1263.36C2336.05 1257.48 2334.27 1250.81 2334.27 1243.34C2334.27 1235.78 2336.05 1229.11 2339.59 1223.32C2343.23 1217.44 2348.23 1212.87 2354.57 1209.6C2360.92 1206.24 2368.15 1204.56 2376.27 1204.56C2384.21 1204.56 2391.11 1206.24 2396.99 1209.6C2402.87 1212.87 2407.21 1217.58 2410.01 1223.74L2393.07 1232.84C2391.11 1229.29 2388.64 1226.68 2385.65 1225C2382.76 1223.32 2379.59 1222.48 2376.13 1222.48C2372.4 1222.48 2369.04 1223.32 2366.05 1225C2363.07 1226.68 2360.69 1229.06 2358.91 1232.14C2357.23 1235.22 2356.39 1238.95 2356.39 1243.34C2356.39 1247.73 2357.23 1251.46 2358.91 1254.54C2360.69 1257.62 2363.07 1260 2366.05 1261.68C2369.04 1263.36 2372.4 1264.2 2376.13 1264.2C2379.59 1264.2 2382.76 1263.41 2385.65 1261.82C2388.64 1260.14 2391.11 1257.48 2393.07 1253.84L2410.01 1263.08C2407.21 1269.15 2402.87 1273.86 2396.99 1277.22C2391.11 1280.49 2384.21 1282.12 2376.27 1282.12ZM2468.79 1281V1266.3L2467.39 1263.08V1236.76C2467.39 1232.09 2465.94 1228.45 2463.05 1225.84C2460.25 1223.23 2455.91 1221.92 2450.03 1221.92C2446.01 1221.92 2442.05 1222.57 2438.13 1223.88C2434.3 1225.09 2431.03 1226.77 2428.33 1228.92L2420.49 1213.66C2424.59 1210.77 2429.54 1208.53 2435.33 1206.94C2441.11 1205.35 2446.99 1204.56 2452.97 1204.56C2464.45 1204.56 2473.36 1207.27 2479.71 1212.68C2486.05 1218.09 2489.23 1226.54 2489.23 1238.02V1281H2468.79ZM2445.83 1282.12C2439.95 1282.12 2434.91 1281.14 2430.71 1279.18C2426.51 1277.13 2423.29 1274.37 2421.05 1270.92C2418.81 1267.47 2417.69 1263.59 2417.69 1259.3C2417.69 1254.82 2418.76 1250.9 2420.91 1247.54C2423.15 1244.18 2426.65 1241.57 2431.41 1239.7C2436.17 1237.74 2442.37 1236.76 2450.03 1236.76H2470.05V1249.5H2452.41C2447.27 1249.5 2443.73 1250.34 2441.77 1252.02C2439.9 1253.7 2438.97 1255.8 2438.97 1258.32C2438.97 1261.12 2440.04 1263.36 2442.19 1265.04C2444.43 1266.63 2447.46 1267.42 2451.29 1267.42C2454.93 1267.42 2458.19 1266.58 2461.09 1264.9C2463.98 1263.13 2466.08 1260.56 2467.39 1257.2L2470.75 1267.28C2469.16 1272.13 2466.27 1275.82 2462.07 1278.34C2457.87 1280.86 2452.45 1282.12 2445.83 1282.12ZM2541.88 1282.12C2534.79 1282.12 2528.39 1280.53 2522.7 1277.36C2517.01 1274.09 2512.48 1269.57 2509.12 1263.78C2505.85 1257.99 2504.22 1251.18 2504.22 1243.34C2504.22 1235.41 2505.85 1228.55 2509.12 1222.76C2512.48 1216.97 2517.01 1212.49 2522.7 1209.32C2528.39 1206.15 2534.79 1204.56 2541.88 1204.56C2548.23 1204.56 2553.78 1205.96 2558.54 1208.76C2563.3 1211.56 2566.99 1215.81 2569.6 1221.5C2572.21 1227.19 2573.52 1234.47 2573.52 1243.34C2573.52 1252.11 2572.26 1259.39 2569.74 1265.18C2567.22 1270.87 2563.58 1275.12 2558.82 1277.92C2554.15 1280.72 2548.51 1282.12 2541.88 1282.12ZM2545.66 1264.2C2549.21 1264.2 2552.43 1263.36 2555.32 1261.68C2558.21 1260 2560.5 1257.62 2562.18 1254.54C2563.95 1251.37 2564.84 1247.63 2564.84 1243.34C2564.84 1238.95 2563.95 1235.22 2562.18 1232.14C2560.5 1229.06 2558.21 1226.68 2555.32 1225C2552.43 1223.32 2549.21 1222.48 2545.66 1222.48C2542.02 1222.48 2538.75 1223.32 2535.86 1225C2532.97 1226.68 2530.63 1229.06 2528.86 1232.14C2527.18 1235.22 2526.34 1238.95 2526.34 1243.34C2526.34 1247.63 2527.18 1251.37 2528.86 1254.54C2530.63 1257.62 2532.97 1260 2535.86 1261.68C2538.75 1263.36 2542.02 1264.2 2545.66 1264.2ZM2565.4 1281V1265.6L2565.82 1243.2L2564.42 1220.94V1177.12H2586.26V1281H2565.4ZM2643.85 1282.12C2635.27 1282.12 2627.71 1280.44 2621.17 1277.08C2614.73 1273.72 2609.74 1269.15 2606.19 1263.36C2602.65 1257.48 2600.87 1250.81 2600.87 1243.34C2600.87 1235.78 2602.6 1229.11 2606.05 1223.32C2609.6 1217.44 2614.41 1212.87 2620.47 1209.6C2626.54 1206.24 2633.4 1204.56 2641.05 1204.56C2648.43 1204.56 2655.05 1206.15 2660.93 1209.32C2666.91 1212.4 2671.62 1216.88 2675.07 1222.76C2678.53 1228.55 2680.25 1235.5 2680.25 1243.62C2680.25 1244.46 2680.21 1245.44 2680.11 1246.56C2680.02 1247.59 2679.93 1248.57 2679.83 1249.5H2618.65V1236.76H2668.35L2659.95 1240.54C2659.95 1236.62 2659.16 1233.21 2657.57 1230.32C2655.99 1227.43 2653.79 1225.19 2650.99 1223.6C2648.19 1221.92 2644.93 1221.08 2641.19 1221.08C2637.46 1221.08 2634.15 1221.92 2631.25 1223.6C2628.45 1225.19 2626.26 1227.47 2624.67 1230.46C2623.09 1233.35 2622.29 1236.81 2622.29 1240.82V1244.18C2622.29 1248.29 2623.18 1251.93 2624.95 1255.1C2626.82 1258.18 2629.39 1260.56 2632.65 1262.24C2636.01 1263.83 2639.93 1264.62 2644.41 1264.62C2648.43 1264.62 2651.93 1264.01 2654.91 1262.8C2657.99 1261.59 2660.79 1259.77 2663.31 1257.34L2674.93 1269.94C2671.48 1273.86 2667.14 1276.89 2661.91 1279.04C2656.69 1281.09 2650.67 1282.12 2643.85 1282.12ZM2791.25 1204.56C2797.23 1204.56 2802.5 1205.77 2807.07 1208.2C2811.74 1210.53 2815.38 1214.17 2817.99 1219.12C2820.7 1223.97 2822.05 1230.23 2822.05 1237.88V1281H2800.21V1241.24C2800.21 1235.17 2798.95 1230.69 2796.43 1227.8C2793.91 1224.91 2790.37 1223.46 2785.79 1223.46C2782.62 1223.46 2779.77 1224.21 2777.25 1225.7C2774.73 1227.1 2772.77 1229.25 2771.37 1232.14C2769.97 1235.03 2769.27 1238.72 2769.27 1243.2V1281H2747.43V1241.24C2747.43 1235.17 2746.17 1230.69 2743.65 1227.8C2741.23 1224.91 2737.73 1223.46 2733.15 1223.46C2729.98 1223.46 2727.13 1224.21 2724.61 1225.7C2722.09 1227.1 2720.13 1229.25 2718.73 1232.14C2717.33 1235.03 2716.63 1238.72 2716.63 1243.2V1281H2694.79V1205.68H2715.65V1226.26L2711.73 1220.24C2714.35 1215.11 2718.03 1211.23 2722.79 1208.62C2727.65 1205.91 2733.15 1204.56 2739.31 1204.56C2746.22 1204.56 2752.24 1206.33 2757.37 1209.88C2762.6 1213.33 2766.05 1218.65 2767.73 1225.84L2760.03 1223.74C2762.55 1217.86 2766.57 1213.19 2772.07 1209.74C2777.67 1206.29 2784.07 1204.56 2791.25 1204.56ZM2841.63 1281V1205.68H2863.47V1281H2841.63ZM2852.55 1195.18C2848.54 1195.18 2845.27 1194.01 2842.75 1191.68C2840.23 1189.35 2838.97 1186.45 2838.97 1183C2838.97 1179.55 2840.23 1176.65 2842.75 1174.32C2845.27 1171.99 2848.54 1170.82 2852.55 1170.82C2856.56 1170.82 2859.83 1171.94 2862.35 1174.18C2864.87 1176.33 2866.13 1179.13 2866.13 1182.58C2866.13 1186.22 2864.87 1189.25 2862.35 1191.68C2859.92 1194.01 2856.66 1195.18 2852.55 1195.18ZM2920.14 1282.12C2912.02 1282.12 2904.79 1280.49 2898.44 1277.22C2892.09 1273.86 2887.1 1269.24 2883.46 1263.36C2879.91 1257.48 2878.14 1250.81 2878.14 1243.34C2878.14 1235.78 2879.91 1229.11 2883.46 1223.32C2887.1 1217.44 2892.09 1212.87 2898.44 1209.6C2904.79 1206.24 2912.02 1204.56 2920.14 1204.56C2928.07 1204.56 2934.98 1206.24 2940.86 1209.6C2946.74 1212.87 2951.08 1217.58 2953.88 1223.74L2936.94 1232.84C2934.98 1229.29 2932.51 1226.68 2929.52 1225C2926.63 1223.32 2923.45 1222.48 2920 1222.48C2916.27 1222.48 2912.91 1223.32 2909.92 1225C2906.93 1226.68 2904.55 1229.06 2902.78 1232.14C2901.1 1235.22 2900.26 1238.95 2900.26 1243.34C2900.26 1247.73 2901.1 1251.46 2902.78 1254.54C2904.55 1257.62 2906.93 1260 2909.92 1261.68C2912.91 1263.36 2916.27 1264.2 2920 1264.2C2923.45 1264.2 2926.63 1263.41 2929.52 1261.82C2932.51 1260.14 2934.98 1257.48 2936.94 1253.84L2953.88 1263.08C2951.08 1269.15 2946.74 1273.86 2940.86 1277.22C2934.98 1280.49 2928.07 1282.12 2920.14 1282.12ZM2991.8 1282.12C2985.36 1282.12 2979.15 1281.37 2973.18 1279.88C2967.3 1278.29 2962.63 1276.33 2959.18 1274L2966.46 1258.32C2969.91 1260.47 2973.97 1262.24 2978.64 1263.64C2983.4 1264.95 2988.06 1265.6 2992.64 1265.6C2997.68 1265.6 3001.22 1264.99 3003.28 1263.78C3005.42 1262.57 3006.5 1260.89 3006.5 1258.74C3006.5 1256.97 3005.66 1255.66 3003.98 1254.82C3002.39 1253.89 3000.24 1253.19 2997.53 1252.72C2994.83 1252.25 2991.84 1251.79 2988.58 1251.32C2985.4 1250.85 2982.18 1250.25 2978.92 1249.5C2975.65 1248.66 2972.66 1247.45 2969.96 1245.86C2967.25 1244.27 2965.06 1242.13 2963.38 1239.42C2961.79 1236.71 2960.99 1233.21 2960.99 1228.92C2960.99 1224.16 2962.35 1219.96 2965.06 1216.32C2967.86 1212.68 2971.87 1209.83 2977.1 1207.78C2982.32 1205.63 2988.58 1204.56 2995.86 1204.56C3000.99 1204.56 3006.22 1205.12 3011.54 1206.24C3016.86 1207.36 3021.29 1208.99 3024.84 1211.14L3017.56 1226.68C3013.92 1224.53 3010.23 1223.09 3006.5 1222.34C3002.86 1221.5 2999.31 1221.08 2995.86 1221.08C2991 1221.08 2987.46 1221.73 2985.22 1223.04C2982.98 1224.35 2981.86 1226.03 2981.86 1228.08C2981.86 1229.95 2982.65 1231.35 2984.24 1232.28C2985.92 1233.21 2988.11 1233.96 2990.82 1234.52C2993.52 1235.08 2996.46 1235.59 2999.64 1236.06C3002.9 1236.43 3006.17 1237.04 3009.44 1237.88C3012.7 1238.72 3015.64 1239.93 3018.26 1241.52C3020.96 1243.01 3023.16 1245.11 3024.84 1247.82C3026.52 1250.43 3027.36 1253.89 3027.36 1258.18C3027.36 1262.85 3025.96 1267 3023.16 1270.64C3020.36 1274.19 3016.3 1276.99 3010.98 1279.04C3005.75 1281.09 2999.36 1282.12 2991.8 1282.12Z" fill="url(#paint0_linear_4251_168)"/>
<path d="M1920.74 282C1999.97 282 2070.43 295.33 2132.13 321.991C2194.6 348.653 2246.01 386.741 2286.39 436.255L2113.85 588.225C2088.71 559.279 2061.29 537.569 2031.58 523.096C2002.63 507.861 1970.26 500.245 1934.46 500.245C1904.75 500.245 1877.7 504.813 1853.33 513.954C1829.71 523.095 1809.53 536.425 1792.77 553.945C1776.01 571.465 1763.06 592.416 1753.92 616.791C1744.78 641.168 1740.21 668.973 1740.21 700.203C1740.21 729.912 1744.78 757.335 1753.92 782.473C1763.06 806.848 1776.01 827.799 1792.77 845.318C1809.53 862.837 1829.33 876.548 1852.19 886.452C1875.8 895.593 1902.08 900.164 1931.03 900.164C1961.5 900.164 1991.21 895.21 2020.15 885.31C2023.18 884.196 2026.23 882.996 2029.29 881.723V678.494H2263.53V1001.94L2570.27 300.268H2835.36L3185 1100.11H2906.2L2852.62 960.707H2548.43L2494.85 1100.11H2220.62L2254.47 1022.66C2207.92 1052.53 2155.34 1075.68 2096.71 1092.13C2034.25 1109.65 1973.68 1118.41 1915.03 1118.41C1850.28 1118.41 1790.48 1108.5 1735.64 1088.7C1681.55 1068.13 1634.33 1039.19 1593.95 1001.86C1572.99 982.103 1554.48 960.426 1538.42 936.83L1609.81 1100.12H1331L1277.42 960.724H973.233L919.656 1100.12H645.424L692.659 992.06C665.375 1028.56 626.268 1058.49 575.319 1081.84C520.473 1106.22 451.535 1118.41 368.504 1118.41C301.47 1118.41 236.719 1110.79 174.255 1095.55C111.791 1080.32 60.3729 1060.51 20 1036.14L106.841 839.604C144.929 861.694 187.207 879.597 233.674 893.308C280.902 906.257 326.607 912.733 370.788 912.733C396.687 912.733 416.874 911.211 431.348 908.162C446.581 904.355 457.628 899.401 464.484 893.308C471.34 886.452 474.768 878.454 474.768 869.313C474.768 854.838 466.769 843.412 450.772 835.034C434.775 826.652 413.445 819.8 386.785 814.467C360.885 808.374 332.319 802.277 301.087 796.184C269.855 789.329 238.241 780.567 206.247 769.904C175.017 759.237 146.071 745.146 119.411 727.627C93.5112 710.108 72.5607 687.254 56.5641 659.07C40.5673 630.124 32.5693 594.32 32.5693 551.662C32.5693 502.147 46.2812 457.204 73.7045 416.831C101.889 375.696 143.403 342.94 198.249 318.564C253.858 294.188 322.799 282 405.069 282C459.15 282 512.474 287.714 565.036 299.14C617.597 310.567 664.828 328.086 706.722 351.701L625.595 547.091C585.986 527.285 547.517 512.431 510.189 502.528C473.625 492.625 437.82 487.675 402.781 487.675C376.882 487.675 356.313 489.959 341.078 494.53C325.844 499.101 314.797 505.193 307.942 512.81C301.848 520.427 298.804 528.808 298.803 537.948C298.803 551.66 306.802 562.706 322.798 571.085C338.795 578.703 359.742 585.177 385.641 590.509C412.302 595.841 441.252 601.555 472.482 607.649C504.476 613.743 536.09 622.123 567.321 632.788C598.551 643.453 627.117 657.546 653.018 675.067C679.678 692.589 701.009 715.441 717.006 743.623C733.002 771.81 741.001 806.848 741.001 848.746C741.001 862.551 739.866 876.05 737.606 889.248L995.065 300.284H1260.16L1479.26 801.49C1471.93 769.496 1468.27 735.735 1468.27 700.203C1468.27 638.503 1479.3 582.132 1501.4 531.094C1523.49 480.057 1554.72 435.873 1595.09 398.547C1635.47 361.221 1683.08 332.655 1737.92 312.849C1793.53 292.282 1854.47 282 1920.74 282ZM1047.9 766.476H1202.76L1125.33 565.004L1047.9 766.476ZM2623.09 766.464H2777.96L2700.52 564.992L2623.09 766.464ZM3038.41 329.886H3004.95V414.276H2966.43V329.886H2932.96V300.013H3038.41V329.886ZM3117.34 360.827L3153.54 300.013H3185.21L3185.53 414.276H3150.44L3150.16 362.15L3125.3 403.994H3108.32L3083.51 363.959V414.276H3048.42V300.013H3080.08L3117.34 360.827Z" fill="url(#paint1_linear_4251_168)"/>
</g>
<defs>
<filter id="filter0_ddii_4251_168" x="0" y="282" width="3205.53" height="1067.28" filterUnits="userSpaceOnUse" color-interpolation-filters="sRGB">
<feFlood flood-opacity="0" result="BackgroundImageFix"/>
<feColorMatrix in="SourceAlpha" type="matrix" values="0 0 0 0 0 0 0 0 0 0 0 0 0 0 0 0 0 0 127 0" result="hardAlpha"/>
<feOffset dy="20"/>
<feGaussianBlur stdDeviation="10"/>
<feComposite in2="hardAlpha" operator="out"/>
<feColorMatrix type="matrix" values="0 0 0 0 0.0705882 0 0 0 0 0.0705882 0 0 0 0 0.0705882 0 0 0 0.2 0"/>
<feBlend mode="normal" in2="BackgroundImageFix" result="effect1_dropShadow_4251_168"/>
<feColorMatrix in="SourceAlpha" type="matrix" values="0 0 0 0 0 0 0 0 0 0 0 0 0 0 0 0 0 0 127 0" result="hardAlpha"/>
<feOffset dy="5"/>
<feGaussianBlur stdDeviation="2.5"/>
<feComposite in2="hardAlpha" operator="out"/>
<feColorMatrix type="matrix" values="0 0 0 0 0.0721154 0 0 0 0 0.0721154 0 0 0 0 0.0721154 0 0 0 0.5 0"/>
<feBlend mode="normal" in2="effect1_dropShadow_4251_168" result="effect2_dropShadow_4251_168"/>
<feBlend mode="normal" in="SourceGraphic" in2="effect2_dropShadow_4251_168" result="shape"/>
<feColorMatrix in="SourceAlpha" type="matrix" values="0 0 0 0 0 0 0 0 0 0 0 0 0 0 0 0 0 0 127 0" result="hardAlpha"/>
<feOffset dy="5"/>
<feComposite in2="hardAlpha" operator="arithmetic" k2="-1" k3="1"/>
<feColorMatrix type="matrix" values="0 0 0 0 1 0 0 0 0 1 0 0 0 0 1 0 0 0 1 0"/>
<feBlend mode="normal" in2="shape" result="effect3_innerShadow_4251_168"/>
<feColorMatrix in="SourceAlpha" type="matrix" values="0 0 0 0 0 0 0 0 0 0 0 0 0 0 0 0 0 0 127 0" result="hardAlpha"/>
<feOffset dy="-5"/>
<feComposite in2="hardAlpha" operator="arithmetic" k2="-1" k3="1"/>
<feColorMatrix type="matrix" values="0 0 0 0 0 0 0 0 0 0 0 0 0 0 0 0 0 0 0.5 0"/>
<feBlend mode="normal" in2="effect3_innerShadow_4251_168" result="effect4_innerShadow_4251_168"/>
</filter>
<linearGradient id="paint0_linear_4251_168" x1="1639.46" y1="1145" x2="1639.54" y2="1316" gradientUnits="userSpaceOnUse">
<stop stop-color="white"/>
<stop offset="1" stop-color="#969696"/>
</linearGradient>
<linearGradient id="paint1_linear_4251_168" x1="1692.72" y1="74.0393" x2="1692.72" y2="1159.81" gradientUnits="userSpaceOnUse">
<stop stop-color="white"/>
<stop offset="1" stop-color="#969696"/>
</linearGradient>
</defs>
</svg>
