<svg width="691" height="241" viewBox="0 0 691 241" fill="none" xmlns="http://www.w3.org/2000/svg">
<g filter="url(#filter0_ddi_4227_2)">
<path d="M413.907 8C430.95 8.00004 446.108 10.8687 459.382 16.6064C472.82 22.3441 483.882 30.5409 492.567 41.1965L455.449 73.9016C450.041 67.6722 444.142 63 437.751 59.8853C431.523 56.6068 424.558 54.9677 416.856 54.9677C410.465 54.9677 404.647 55.9507 399.404 57.9179C394.323 59.8851 389.981 62.7539 386.375 66.5242C382.77 70.2948 379.985 74.8034 378.019 80.0492C376.052 85.2951 375.068 91.2791 375.068 98C375.068 104.393 376.052 110.295 378.019 115.705C379.985 120.951 382.77 125.459 386.375 129.23C389.981 133 394.241 135.951 399.158 138.082C404.237 140.049 409.892 141.033 416.119 141.033C422.674 141.033 429.065 139.967 435.292 137.836C435.943 137.596 436.599 137.338 437.259 137.064V93.328H487.651V162.935L553.638 11.9314H610.667L685.886 184.063H625.907L614.38 154.062H548.941L537.414 184.063H478.419L485.702 167.394C475.688 173.822 464.375 178.805 451.763 182.344C438.325 186.114 425.296 188 412.677 188C398.748 188 385.884 185.869 374.085 181.607C362.45 177.18 352.29 170.951 343.604 162.918C339.094 158.667 335.112 154.001 331.657 148.924L347.014 184.066H287.036L275.509 154.066H210.069L198.543 184.066H139.547L149.709 160.809C143.839 168.664 135.426 175.106 124.466 180.131C112.667 185.377 97.8361 188 79.9737 188C65.5525 188 51.6226 186.361 38.1847 183.082C24.747 179.804 13.6854 175.541 5 170.295L23.6821 128C31.8759 132.754 40.9711 136.607 50.9676 139.557C61.1278 142.344 70.9602 143.738 80.4649 143.738C86.0366 143.738 90.3793 143.41 93.4931 142.754C96.7703 141.935 99.1468 140.869 100.622 139.557C102.097 138.082 102.834 136.361 102.834 134.393C102.834 131.278 101.113 128.819 97.6719 127.016C94.2305 125.213 89.6416 123.738 83.9062 122.59C78.3344 121.279 72.1891 119.967 65.4702 118.656C58.7513 117.18 51.9501 115.295 45.0674 113C38.3487 110.704 32.1216 107.672 26.3862 103.902C20.8145 100.131 16.3074 95.2133 12.866 89.1479C9.42463 82.9184 7.70403 75.2132 7.70403 66.0329C7.70403 55.3771 10.6539 45.705 16.5534 37.0164C22.6168 28.164 31.5477 21.1147 43.3467 15.8688C55.3097 10.6229 70.141 8 87.8397 8C99.4743 8.00002 110.946 9.22975 122.253 11.6887C133.561 14.1477 143.722 17.9181 152.734 23.0001L135.281 65.0492C126.761 60.7868 118.484 57.5902 110.454 55.459C102.588 53.3279 94.8854 52.2626 87.3476 52.2626C81.7758 52.2626 77.351 52.7542 74.0735 53.7378C70.7961 54.7214 68.4196 56.0325 66.9448 57.6718C65.6338 59.3111 64.979 61.1146 64.9789 63.0817C64.9789 66.0325 66.6995 68.4097 70.1409 70.2129C73.5822 71.8523 78.0886 73.2456 83.6602 74.3931C89.3958 75.5407 95.6238 76.7703 102.342 78.0818C109.225 79.3932 116.026 81.1967 122.745 83.4918C129.464 85.7869 135.609 88.82 141.181 92.5904C146.916 96.3612 151.505 101.279 154.947 107.344C158.388 113.41 160.109 120.951 160.109 129.967C160.109 132.938 159.865 135.843 159.378 138.684L214.765 11.9348H271.794L318.929 119.797C317.353 112.912 316.565 105.647 316.565 98C316.565 84.7218 318.94 72.5902 323.693 61.6066C328.445 50.623 335.164 41.1143 343.85 33.0816C352.535 25.0489 362.777 18.9013 374.576 14.639C386.539 10.2127 399.649 8 413.907 8ZM226.131 112.262H259.447L242.788 68.9042L226.131 112.262ZM565.002 112.26H598.319L581.66 68.9017L565.002 112.26ZM654.35 18.3054H647.151V36.4667H638.864V18.3054H631.664V11.8765H654.35V18.3054ZM671.33 24.9641L679.117 11.8765H685.93L686 36.4667H678.45L678.39 25.2488L673.042 34.254H669.39L664.052 25.6382V36.4667H656.502V11.8765H663.315L671.33 24.9641Z" fill="url(#paint0_linear_4227_2)"/>
</g>
<g filter="url(#filter1_di_4227_2)">
<path d="M121.258 225.24C119.538 225.24 118.008 224.88 116.668 224.16C115.348 223.44 114.298 222.46 113.518 221.22C112.758 219.96 112.378 218.53 112.378 216.93C112.378 215.31 112.758 213.88 113.518 212.64C114.298 211.38 115.348 210.4 116.668 209.7C118.008 208.98 119.538 208.62 121.258 208.62C122.958 208.62 124.478 208.98 125.818 209.7C127.158 210.4 128.208 211.37 128.968 212.61C129.728 213.85 130.108 215.29 130.108 216.93C130.108 218.53 129.728 219.96 128.968 221.22C128.208 222.46 127.158 223.44 125.818 224.16C124.478 224.88 122.958 225.24 121.258 225.24ZM121.258 221.4C122.038 221.4 122.738 221.22 123.358 220.86C123.978 220.5 124.468 219.99 124.828 219.33C125.188 218.65 125.368 217.85 125.368 216.93C125.368 215.99 125.188 215.19 124.828 214.53C124.468 213.87 123.978 213.36 123.358 213C122.738 212.64 122.038 212.46 121.258 212.46C120.478 212.46 119.778 212.64 119.158 213C118.538 213.36 118.038 213.87 117.658 214.53C117.298 215.19 117.118 215.99 117.118 216.93C117.118 217.85 117.298 218.65 117.658 219.33C118.038 219.99 118.538 220.5 119.158 220.86C119.778 221.22 120.478 221.4 121.258 221.4ZM133.806 225V208.5C133.806 206.68 134.346 205.23 135.426 204.15C136.506 203.05 138.046 202.5 140.046 202.5C140.726 202.5 141.376 202.57 141.996 202.71C142.636 202.85 143.176 203.07 143.616 203.37L142.386 206.76C142.126 206.58 141.836 206.44 141.516 206.34C141.196 206.24 140.856 206.19 140.496 206.19C139.816 206.19 139.286 206.39 138.906 206.79C138.546 207.17 138.366 207.75 138.366 208.53V210.03L138.486 212.04V225H133.806ZM131.316 212.82V209.22H142.506V212.82H131.316ZM162.994 225.36C160.014 225.36 157.684 224.53 156.004 222.87C154.324 221.21 153.484 218.84 153.484 215.76V204H158.344V215.58C158.344 217.58 158.754 219.02 159.574 219.9C160.394 220.78 161.544 221.22 163.024 221.22C164.504 221.22 165.654 220.78 166.474 219.9C167.294 219.02 167.704 217.58 167.704 215.58V204H172.504V215.76C172.504 218.84 171.664 221.21 169.984 222.87C168.304 224.53 165.974 225.36 162.994 225.36ZM177.306 225V204H186.396C188.276 204 189.896 204.31 191.256 204.93C192.616 205.53 193.666 206.4 194.406 207.54C195.146 208.68 195.516 210.04 195.516 211.62C195.516 213.18 195.146 214.53 194.406 215.67C193.666 216.81 192.616 217.69 191.256 218.31C189.896 218.91 188.276 219.21 186.396 219.21H180.006L182.166 217.02V225H177.306ZM182.166 217.56L180.006 215.25H186.126C187.626 215.25 188.746 214.93 189.486 214.29C190.226 213.65 190.596 212.76 190.596 211.62C190.596 210.46 190.226 209.56 189.486 208.92C188.746 208.28 187.626 207.96 186.126 207.96H180.006L182.166 205.65V217.56ZM213.386 204H218.246V225H213.386V204ZM203.846 225H198.986V204H203.846V225ZM213.746 216.39H203.486V212.28H213.746V216.39ZM230.115 225.36C228.435 225.36 226.825 225.14 225.285 224.7C223.745 224.24 222.505 223.65 221.565 222.93L223.215 219.27C224.115 219.91 225.175 220.44 226.395 220.86C227.635 221.26 228.885 221.46 230.145 221.46C231.105 221.46 231.875 221.37 232.455 221.19C233.055 220.99 233.495 220.72 233.775 220.38C234.055 220.04 234.195 219.65 234.195 219.21C234.195 218.65 233.975 218.21 233.535 217.89C233.095 217.55 232.515 217.28 231.795 217.08C231.075 216.86 230.275 216.66 229.395 216.48C228.535 216.28 227.665 216.04 226.785 215.76C225.925 215.48 225.135 215.12 224.415 214.68C223.695 214.24 223.105 213.66 222.645 212.94C222.205 212.22 221.985 211.3 221.985 210.18C221.985 208.98 222.305 207.89 222.945 206.91C223.605 205.91 224.585 205.12 225.885 204.54C227.205 203.94 228.855 203.64 230.835 203.64C232.155 203.64 233.455 203.8 234.735 204.12C236.015 204.42 237.145 204.88 238.125 205.5L236.625 209.19C235.645 208.63 234.665 208.22 233.685 207.96C232.705 207.68 231.745 207.54 230.805 207.54C229.865 207.54 229.095 207.65 228.495 207.87C227.895 208.09 227.465 208.38 227.205 208.74C226.945 209.08 226.815 209.48 226.815 209.94C226.815 210.48 227.035 210.92 227.475 211.26C227.915 211.58 228.495 211.84 229.215 212.04C229.935 212.24 230.725 212.44 231.585 212.64C232.465 212.84 233.335 213.07 234.195 213.33C235.075 213.59 235.875 213.94 236.595 214.38C237.315 214.82 237.895 215.4 238.335 216.12C238.795 216.84 239.025 217.75 239.025 218.85C239.025 220.03 238.695 221.11 238.035 222.09C237.375 223.07 236.385 223.86 235.065 224.46C233.765 225.06 232.115 225.36 230.115 225.36ZM242.345 225V204H251.885C254.165 204 256.175 204.44 257.915 205.32C259.655 206.18 261.015 207.39 261.995 208.95C262.975 210.51 263.465 212.36 263.465 214.5C263.465 216.62 262.975 218.47 261.995 220.05C261.015 221.61 259.655 222.83 257.915 223.71C256.175 224.57 254.165 225 251.885 225H242.345ZM247.205 221.01H251.645C253.045 221.01 254.255 220.75 255.275 220.23C256.315 219.69 257.115 218.93 257.675 217.95C258.255 216.97 258.545 215.82 258.545 214.5C258.545 213.16 258.255 212.01 257.675 211.05C257.115 210.07 256.315 209.32 255.275 208.8C254.255 208.26 253.045 207.99 251.645 207.99H247.205V221.01ZM279.077 230.82C277.877 229 276.947 226.9 276.287 224.52C275.647 222.12 275.327 219.54 275.327 216.78C275.327 214.02 275.647 211.44 276.287 209.04C276.947 206.62 277.877 204.52 279.077 202.74H283.547C282.287 205 281.367 207.28 280.787 209.58C280.207 211.86 279.917 214.26 279.917 216.78C279.917 219.3 280.207 221.71 280.787 224.01C281.367 226.29 282.287 228.56 283.547 230.82H279.077ZM286.349 225V204H291.209V221.04H301.739V225H286.349ZM314.142 225V221.85L313.842 221.16V215.52C313.842 214.52 313.532 213.74 312.912 213.18C312.312 212.62 311.382 212.34 310.122 212.34C309.262 212.34 308.412 212.48 307.572 212.76C306.752 213.02 306.052 213.38 305.472 213.84L303.792 210.57C304.672 209.95 305.732 209.47 306.972 209.13C308.212 208.79 309.472 208.62 310.752 208.62C313.212 208.62 315.122 209.2 316.482 210.36C317.842 211.52 318.522 213.33 318.522 215.79V225H314.142ZM309.222 225.24C307.962 225.24 306.882 225.03 305.982 224.61C305.082 224.17 304.392 223.58 303.912 222.84C303.432 222.1 303.192 221.27 303.192 220.35C303.192 219.39 303.422 218.55 303.882 217.83C304.362 217.11 305.112 216.55 306.132 216.15C307.152 215.73 308.482 215.52 310.122 215.52H314.412V218.25H310.632C309.532 218.25 308.772 218.43 308.352 218.79C307.952 219.15 307.752 219.6 307.752 220.14C307.752 220.74 307.982 221.22 308.442 221.58C308.922 221.92 309.572 222.09 310.392 222.09C311.172 222.09 311.872 221.91 312.492 221.55C313.112 221.17 313.562 220.62 313.842 219.9L314.562 222.06C314.222 223.1 313.602 223.89 312.702 224.43C311.802 224.97 310.642 225.24 309.222 225.24ZM328.188 225.24C326.808 225.24 325.478 225.08 324.198 224.76C322.938 224.42 321.938 224 321.198 223.5L322.758 220.14C323.498 220.6 324.368 220.98 325.368 221.28C326.388 221.56 327.388 221.7 328.368 221.7C329.448 221.7 330.208 221.57 330.648 221.31C331.108 221.05 331.338 220.69 331.338 220.23C331.338 219.85 331.158 219.57 330.798 219.39C330.458 219.19 329.998 219.04 329.418 218.94C328.838 218.84 328.198 218.74 327.498 218.64C326.818 218.54 326.128 218.41 325.428 218.25C324.728 218.07 324.088 217.81 323.508 217.47C322.928 217.13 322.458 216.67 322.098 216.09C321.758 215.51 321.588 214.76 321.588 213.84C321.588 212.82 321.878 211.92 322.458 211.14C323.058 210.36 323.918 209.75 325.038 209.31C326.158 208.85 327.498 208.62 329.058 208.62C330.158 208.62 331.278 208.74 332.418 208.98C333.558 209.22 334.508 209.57 335.268 210.03L333.708 213.36C332.928 212.9 332.138 212.59 331.338 212.43C330.558 212.25 329.798 212.16 329.058 212.16C328.018 212.16 327.258 212.3 326.778 212.58C326.298 212.86 326.058 213.22 326.058 213.66C326.058 214.06 326.228 214.36 326.568 214.56C326.928 214.76 327.398 214.92 327.978 215.04C328.558 215.16 329.188 215.27 329.868 215.37C330.568 215.45 331.268 215.58 331.968 215.76C332.668 215.94 333.298 216.2 333.858 216.54C334.438 216.86 334.908 217.31 335.268 217.89C335.628 218.45 335.808 219.19 335.808 220.11C335.808 221.11 335.508 222 334.908 222.78C334.308 223.54 333.438 224.14 332.298 224.58C331.178 225.02 329.808 225.24 328.188 225.24ZM347.521 225V204H356.611C358.491 204 360.111 204.31 361.471 204.93C362.831 205.53 363.881 206.4 364.621 207.54C365.361 208.68 365.731 210.04 365.731 211.62C365.731 213.18 365.361 214.53 364.621 215.67C363.881 216.81 362.831 217.69 361.471 218.31C360.111 218.91 358.491 219.21 356.611 219.21H350.221L352.381 217.02V225H347.521ZM352.381 217.56L350.221 215.25H356.341C357.841 215.25 358.961 214.93 359.701 214.29C360.441 213.65 360.811 212.76 360.811 211.62C360.811 210.46 360.441 209.56 359.701 208.92C358.961 208.28 357.841 207.96 356.341 207.96H350.221L352.381 205.65V217.56ZM369.164 225V208.86H373.844V225H369.164ZM371.504 206.61C370.644 206.61 369.944 206.36 369.404 205.86C368.864 205.36 368.594 204.74 368.594 204C368.594 203.26 368.864 202.64 369.404 202.14C369.944 201.64 370.644 201.39 371.504 201.39C372.364 201.39 373.064 201.63 373.604 202.11C374.144 202.57 374.414 203.17 374.414 203.91C374.414 204.69 374.144 205.34 373.604 205.86C373.084 206.36 372.384 206.61 371.504 206.61ZM387.997 208.62C389.277 208.62 390.417 208.88 391.417 209.4C392.437 209.9 393.237 210.68 393.817 211.74C394.397 212.78 394.687 214.12 394.687 215.76V225H390.007V216.48C390.007 215.18 389.717 214.22 389.137 213.6C388.577 212.98 387.777 212.67 386.737 212.67C385.997 212.67 385.327 212.83 384.727 213.15C384.147 213.45 383.687 213.92 383.347 214.56C383.027 215.2 382.867 216.02 382.867 217.02V225H378.187V208.86H382.657V213.33L381.817 211.98C382.397 210.9 383.227 210.07 384.307 209.49C385.387 208.91 386.617 208.62 387.997 208.62ZM408.83 225V221.85L408.53 221.16V215.52C408.53 214.52 408.22 213.74 407.6 213.18C407 212.62 406.07 212.34 404.81 212.34C403.95 212.34 403.1 212.48 402.26 212.76C401.44 213.02 400.74 213.38 400.16 213.84L398.48 210.57C399.36 209.95 400.42 209.47 401.66 209.13C402.9 208.79 404.16 208.62 405.44 208.62C407.9 208.62 409.81 209.2 411.17 210.36C412.53 211.52 413.21 213.33 413.21 215.79V225H408.83ZM403.91 225.24C402.65 225.24 401.57 225.03 400.67 224.61C399.77 224.17 399.08 223.58 398.6 222.84C398.12 222.1 397.88 221.27 397.88 220.35C397.88 219.39 398.11 218.55 398.57 217.83C399.05 217.11 399.8 216.55 400.82 216.15C401.84 215.73 403.17 215.52 404.81 215.52H409.1V218.25H405.32C404.22 218.25 403.46 218.43 403.04 218.79C402.64 219.15 402.44 219.6 402.44 220.14C402.44 220.74 402.67 221.22 403.13 221.58C403.61 221.92 404.26 222.09 405.08 222.09C405.86 222.09 406.56 221.91 407.18 221.55C407.8 221.17 408.25 220.62 408.53 219.9L409.25 222.06C408.91 223.1 408.29 223.89 407.39 224.43C406.49 224.97 405.33 225.24 403.91 225.24ZM422.875 225.24C421.495 225.24 420.165 225.08 418.885 224.76C417.625 224.42 416.625 224 415.885 223.5L417.445 220.14C418.185 220.6 419.055 220.98 420.055 221.28C421.075 221.56 422.075 221.7 423.055 221.7C424.135 221.7 424.895 221.57 425.335 221.31C425.795 221.05 426.025 220.69 426.025 220.23C426.025 219.85 425.845 219.57 425.485 219.39C425.145 219.19 424.685 219.04 424.105 218.94C423.525 218.84 422.885 218.74 422.185 218.64C421.505 218.54 420.815 218.41 420.115 218.25C419.415 218.07 418.775 217.81 418.195 217.47C417.615 217.13 417.145 216.67 416.785 216.09C416.445 215.51 416.275 214.76 416.275 213.84C416.275 212.82 416.565 211.92 417.145 211.14C417.745 210.36 418.605 209.75 419.725 209.31C420.845 208.85 422.185 208.62 423.745 208.62C424.845 208.62 425.965 208.74 427.105 208.98C428.245 209.22 429.195 209.57 429.955 210.03L428.395 213.36C427.615 212.9 426.825 212.59 426.025 212.43C425.245 212.25 424.485 212.16 423.745 212.16C422.705 212.16 421.945 212.3 421.465 212.58C420.985 212.86 420.745 213.22 420.745 213.66C420.745 214.06 420.915 214.36 421.255 214.56C421.615 214.76 422.085 214.92 422.665 215.04C423.245 215.16 423.875 215.27 424.555 215.37C425.255 215.45 425.955 215.58 426.655 215.76C427.355 215.94 427.985 216.2 428.545 216.54C429.125 216.86 429.595 217.31 429.955 217.89C430.315 218.45 430.495 219.19 430.495 220.11C430.495 221.11 430.195 222 429.595 222.78C428.995 223.54 428.125 224.14 426.985 224.58C425.865 225.02 424.495 225.24 422.875 225.24ZM452.259 225.36C450.639 225.36 449.129 225.1 447.729 224.58C446.349 224.04 445.149 223.28 444.129 222.3C443.109 221.32 442.309 220.17 441.729 218.85C441.169 217.53 440.889 216.08 440.889 214.5C440.889 212.92 441.169 211.47 441.729 210.15C442.309 208.83 443.109 207.68 444.129 206.7C445.169 205.72 446.379 204.97 447.759 204.45C449.139 203.91 450.649 203.64 452.289 203.64C454.109 203.64 455.749 203.96 457.209 204.6C458.689 205.22 459.929 206.14 460.929 207.36L457.809 210.24C457.089 209.42 456.289 208.81 455.409 208.41C454.529 207.99 453.569 207.78 452.529 207.78C451.549 207.78 450.649 207.94 449.829 208.26C449.009 208.58 448.299 209.04 447.699 209.64C447.099 210.24 446.629 210.95 446.289 211.77C445.969 212.59 445.809 213.5 445.809 214.5C445.809 215.5 445.969 216.41 446.289 217.23C446.629 218.05 447.099 218.76 447.699 219.36C448.299 219.96 449.009 220.42 449.829 220.74C450.649 221.06 451.549 221.22 452.529 221.22C453.569 221.22 454.529 221.02 455.409 220.62C456.289 220.2 457.089 219.57 457.809 218.73L460.929 221.61C459.929 222.83 458.689 223.76 457.209 224.4C455.749 225.04 454.099 225.36 452.259 225.36ZM473.664 225V221.85L473.364 221.16V215.52C473.364 214.52 473.054 213.74 472.434 213.18C471.834 212.62 470.904 212.34 469.644 212.34C468.784 212.34 467.934 212.48 467.094 212.76C466.274 213.02 465.574 213.38 464.994 213.84L463.314 210.57C464.194 209.95 465.254 209.47 466.494 209.13C467.734 208.79 468.994 208.62 470.274 208.62C472.734 208.62 474.644 209.2 476.004 210.36C477.364 211.52 478.044 213.33 478.044 215.79V225H473.664ZM468.744 225.24C467.484 225.24 466.404 225.03 465.504 224.61C464.604 224.17 463.914 223.58 463.434 222.84C462.954 222.1 462.714 221.27 462.714 220.35C462.714 219.39 462.944 218.55 463.404 217.83C463.884 217.11 464.634 216.55 465.654 216.15C466.674 215.73 468.004 215.52 469.644 215.52H473.934V218.25H470.154C469.054 218.25 468.294 218.43 467.874 218.79C467.474 219.15 467.274 219.6 467.274 220.14C467.274 220.74 467.504 221.22 467.964 221.58C468.444 221.92 469.094 222.09 469.914 222.09C470.694 222.09 471.394 221.91 472.014 221.55C472.634 221.17 473.084 220.62 473.364 219.9L474.084 222.06C473.744 223.1 473.124 223.89 472.224 224.43C471.324 224.97 470.164 225.24 468.744 225.24ZM502.949 208.62C504.229 208.62 505.359 208.88 506.339 209.4C507.339 209.9 508.119 210.68 508.679 211.74C509.259 212.78 509.549 214.12 509.549 215.76V225H504.869V216.48C504.869 215.18 504.599 214.22 504.059 213.6C503.519 212.98 502.759 212.67 501.779 212.67C501.099 212.67 500.489 212.83 499.949 213.15C499.409 213.45 498.989 213.91 498.689 214.53C498.389 215.15 498.239 215.94 498.239 216.9V225H493.559V216.48C493.559 215.18 493.289 214.22 492.749 213.6C492.229 212.98 491.479 212.67 490.499 212.67C489.819 212.67 489.209 212.83 488.669 213.15C488.129 213.45 487.709 213.91 487.409 214.53C487.109 215.15 486.959 215.94 486.959 216.9V225H482.279V208.86H486.749V213.27L485.909 211.98C486.469 210.88 487.259 210.05 488.279 209.49C489.319 208.91 490.499 208.62 491.819 208.62C493.299 208.62 494.589 209 495.689 209.76C496.809 210.5 497.549 211.64 497.909 213.18L496.259 212.73C496.799 211.47 497.659 210.47 498.839 209.73C500.039 208.99 501.409 208.62 502.949 208.62ZM523.284 225.24C521.924 225.24 520.734 224.94 519.714 224.34C518.694 223.74 517.894 222.83 517.314 221.61C516.754 220.37 516.474 218.81 516.474 216.93C516.474 215.03 516.744 213.47 517.284 212.25C517.824 211.03 518.604 210.12 519.624 209.52C520.644 208.92 521.864 208.62 523.284 208.62C524.804 208.62 526.164 208.97 527.364 209.67C528.584 210.35 529.544 211.31 530.244 212.55C530.964 213.79 531.324 215.25 531.324 216.93C531.324 218.63 530.964 220.1 530.244 221.34C529.544 222.58 528.584 223.54 527.364 224.22C526.164 224.9 524.804 225.24 523.284 225.24ZM513.744 230.82V208.86H518.214V212.16L518.124 216.96L518.424 221.73V230.82H513.744ZM522.474 221.4C523.254 221.4 523.944 221.22 524.544 220.86C525.164 220.5 525.654 219.99 526.014 219.33C526.394 218.65 526.584 217.85 526.584 216.93C526.584 215.99 526.394 215.19 526.014 214.53C525.654 213.87 525.164 213.36 524.544 213C523.944 212.64 523.254 212.46 522.474 212.46C521.694 212.46 520.994 212.64 520.374 213C519.754 213.36 519.264 213.87 518.904 214.53C518.544 215.19 518.364 215.99 518.364 216.93C518.364 217.85 518.544 218.65 518.904 219.33C519.264 219.99 519.754 220.5 520.374 220.86C520.994 221.22 521.694 221.4 522.474 221.4ZM541.267 225.24C539.927 225.24 538.727 224.98 537.667 224.46C536.627 223.94 535.817 223.15 535.237 222.09C534.657 221.01 534.367 219.64 534.367 217.98V208.86H539.047V217.29C539.047 218.63 539.327 219.62 539.887 220.26C540.467 220.88 541.277 221.19 542.317 221.19C543.037 221.19 543.677 221.04 544.237 220.74C544.797 220.42 545.237 219.94 545.557 219.3C545.877 218.64 546.037 217.82 546.037 216.84V208.86H550.717V225H546.277V220.56L547.087 221.85C546.547 222.97 545.747 223.82 544.687 224.4C543.647 224.96 542.507 225.24 541.267 225.24ZM560.483 225.24C559.103 225.24 557.773 225.08 556.493 224.76C555.233 224.42 554.233 224 553.493 223.5L555.053 220.14C555.793 220.6 556.663 220.98 557.663 221.28C558.683 221.56 559.683 221.7 560.663 221.7C561.743 221.7 562.503 221.57 562.943 221.31C563.403 221.05 563.633 220.69 563.633 220.23C563.633 219.85 563.453 219.57 563.093 219.39C562.753 219.19 562.293 219.04 561.713 218.94C561.133 218.84 560.493 218.74 559.793 218.64C559.113 218.54 558.423 218.41 557.723 218.25C557.023 218.07 556.383 217.81 555.803 217.47C555.223 217.13 554.753 216.67 554.393 216.09C554.053 215.51 553.883 214.76 553.883 213.84C553.883 212.82 554.173 211.92 554.753 211.14C555.353 210.36 556.213 209.75 557.333 209.31C558.453 208.85 559.793 208.62 561.353 208.62C562.453 208.62 563.573 208.74 564.713 208.98C565.853 209.22 566.803 209.57 567.563 210.03L566.003 213.36C565.223 212.9 564.433 212.59 563.633 212.43C562.853 212.25 562.093 212.16 561.353 212.16C560.313 212.16 559.553 212.3 559.073 212.58C558.593 212.86 558.353 213.22 558.353 213.66C558.353 214.06 558.523 214.36 558.863 214.56C559.223 214.76 559.693 214.92 560.273 215.04C560.853 215.16 561.483 215.27 562.163 215.37C562.863 215.45 563.563 215.58 564.263 215.76C564.963 215.94 565.593 216.2 566.153 216.54C566.733 216.86 567.203 217.31 567.563 217.89C567.923 218.45 568.103 219.19 568.103 220.11C568.103 221.11 567.803 222 567.203 222.78C566.603 223.54 565.733 224.14 564.593 224.58C563.473 225.02 562.103 225.24 560.483 225.24ZM573.6 230.82H569.13C570.43 228.56 571.36 226.29 571.92 224.01C572.5 221.71 572.79 219.3 572.79 216.78C572.79 214.26 572.5 211.86 571.92 209.58C571.36 207.28 570.43 205 569.13 202.74H573.6C574.84 204.52 575.78 206.62 576.42 209.04C577.06 211.44 577.38 214.02 577.38 216.78C577.38 219.54 577.06 222.12 576.42 224.52C575.78 226.9 574.84 229 573.6 230.82Z" fill="url(#paint1_linear_4227_2)"/>
</g>
<defs>
<filter id="filter0_ddi_4227_2" x="0" y="0" width="691" height="198" filterUnits="userSpaceOnUse" color-interpolation-filters="sRGB">
<feFlood flood-opacity="0" result="BackgroundImageFix"/>
<feColorMatrix in="SourceAlpha" type="matrix" values="0 0 0 0 0 0 0 0 0 0 0 0 0 0 0 0 0 0 127 0" result="hardAlpha"/>
<feOffset dy="5"/>
<feGaussianBlur stdDeviation="2.5"/>
<feComposite in2="hardAlpha" operator="out"/>
<feColorMatrix type="matrix" values="0 0 0 0 0.0156863 0 0 0 0 0.0509804 0 0 0 0 0.00784314 0 0 0 0.5 0"/>
<feBlend mode="normal" in2="BackgroundImageFix" result="effect1_dropShadow_4227_2"/>
<feColorMatrix in="SourceAlpha" type="matrix" values="0 0 0 0 0 0 0 0 0 0 0 0 0 0 0 0 0 0 127 0" result="hardAlpha"/>
<feOffset dy="-4"/>
<feGaussianBlur stdDeviation="2"/>
<feComposite in2="hardAlpha" operator="out"/>
<feColorMatrix type="matrix" values="0 0 0 0 0.266667 0 0 0 0 1 0 0 0 0 0 0 0 0 0.1 0"/>
<feBlend mode="normal" in2="effect1_dropShadow_4227_2" result="effect2_dropShadow_4227_2"/>
<feBlend mode="normal" in="SourceGraphic" in2="effect2_dropShadow_4227_2" result="shape"/>
<feColorMatrix in="SourceAlpha" type="matrix" values="0 0 0 0 0 0 0 0 0 0 0 0 0 0 0 0 0 0 127 0" result="hardAlpha"/>
<feOffset dy="2"/>
<feComposite in2="hardAlpha" operator="arithmetic" k2="-1" k3="1"/>
<feColorMatrix type="matrix" values="0 0 0 0 0.769231 0 0 0 0 0 0 0 0 0 0 0 0 0 1 0"/>
<feBlend mode="normal" in2="shape" result="effect3_innerShadow_4227_2"/>
</filter>
<filter id="filter1_di_4227_2" x="107.375" y="201.391" width="475.008" height="39.4297" filterUnits="userSpaceOnUse" color-interpolation-filters="sRGB">
<feFlood flood-opacity="0" result="BackgroundImageFix"/>
<feColorMatrix in="SourceAlpha" type="matrix" values="0 0 0 0 0 0 0 0 0 0 0 0 0 0 0 0 0 0 127 0" result="hardAlpha"/>
<feOffset dy="5"/>
<feGaussianBlur stdDeviation="2.5"/>
<feComposite in2="hardAlpha" operator="out"/>
<feColorMatrix type="matrix" values="0 0 0 0 0.0156863 0 0 0 0 0.0509804 0 0 0 0 0.00784314 0 0 0 0.5 0"/>
<feBlend mode="normal" in2="BackgroundImageFix" result="effect1_dropShadow_4227_2"/>
<feBlend mode="normal" in="SourceGraphic" in2="effect1_dropShadow_4227_2" result="shape"/>
<feColorMatrix in="SourceAlpha" type="matrix" values="0 0 0 0 0 0 0 0 0 0 0 0 0 0 0 0 0 0 127 0" result="hardAlpha"/>
<feOffset dy="1"/>
<feComposite in2="hardAlpha" operator="arithmetic" k2="-1" k3="1"/>
<feColorMatrix type="matrix" values="0 0 0 0 0.768627 0 0 0 0 0 0 0 0 0 0 0 0 0 1 0"/>
<feBlend mode="normal" in2="shape" result="effect2_innerShadow_4227_2"/>
</filter>
<linearGradient id="paint0_linear_4227_2" x1="357.777" y1="8" x2="360.479" y2="188.035" gradientUnits="userSpaceOnUse">
<stop stop-color="#8D0000"/>
<stop offset="1" stop-color="#430000"/>
</linearGradient>
<linearGradient id="paint1_linear_4227_2" x1="358.011" y1="200.549" x2="358.011" y2="225.115" gradientUnits="userSpaceOnUse">
<stop stop-color="#8D0000"/>
<stop offset="1" stop-color="#430000"/>
</linearGradient>
</defs>
</svg>
