<svg width="691" height="241" viewBox="0 0 691 241" fill="none" xmlns="http://www.w3.org/2000/svg">
<g filter="url(#filter0_ddi_4227_5)">
<path d="M413.907 8C430.95 8.00004 446.108 10.8687 459.382 16.6064C472.82 22.3441 483.882 30.5409 492.567 41.1965L455.449 73.9016C450.041 67.6722 444.142 63 437.751 59.8853C431.523 56.6068 424.558 54.9677 416.856 54.9677C410.465 54.9677 404.647 55.9507 399.404 57.9179C394.323 59.8851 389.981 62.7539 386.375 66.5242C382.77 70.2948 379.985 74.8034 378.019 80.0492C376.052 85.2951 375.068 91.2791 375.068 98C375.068 104.393 376.052 110.295 378.019 115.705C379.985 120.951 382.77 125.459 386.375 129.23C389.981 133 394.241 135.951 399.158 138.082C404.237 140.049 409.892 141.033 416.119 141.033C422.674 141.033 429.065 139.967 435.292 137.836C435.943 137.596 436.599 137.338 437.259 137.064V93.328H487.651V162.935L553.638 11.9314H610.667L685.886 184.063H625.907L614.38 154.062H548.941L537.414 184.063H478.419L485.702 167.394C475.688 173.822 464.375 178.805 451.763 182.344C438.325 186.114 425.296 188 412.677 188C398.748 188 385.884 185.869 374.085 181.607C362.45 177.18 352.29 170.951 343.604 162.918C339.094 158.667 335.112 154.001 331.657 148.924L347.014 184.066H287.036L275.509 154.066H210.069L198.543 184.066H139.547L149.709 160.809C143.839 168.664 135.426 175.106 124.466 180.131C112.667 185.377 97.8361 188 79.9737 188C65.5525 188 51.6226 186.361 38.1847 183.082C24.747 179.804 13.6854 175.541 5 170.295L23.6821 128C31.8759 132.754 40.9711 136.607 50.9676 139.557C61.1278 142.344 70.9602 143.738 80.4649 143.738C86.0366 143.738 90.3793 143.41 93.4931 142.754C96.7703 141.935 99.1468 140.869 100.622 139.557C102.097 138.082 102.834 136.361 102.834 134.393C102.834 131.278 101.113 128.819 97.6719 127.016C94.2305 125.213 89.6416 123.738 83.9062 122.59C78.3344 121.279 72.1891 119.967 65.4702 118.656C58.7513 117.18 51.9501 115.295 45.0674 113C38.3487 110.704 32.1216 107.672 26.3862 103.902C20.8145 100.131 16.3074 95.2133 12.866 89.1479C9.42463 82.9184 7.70403 75.2132 7.70403 66.0329C7.70403 55.3771 10.6539 45.705 16.5534 37.0164C22.6168 28.164 31.5477 21.1147 43.3467 15.8688C55.3097 10.6229 70.141 8 87.8397 8C99.4743 8.00002 110.946 9.22975 122.253 11.6887C133.561 14.1477 143.722 17.9181 152.734 23.0001L135.281 65.0492C126.761 60.7868 118.484 57.5902 110.454 55.459C102.588 53.3279 94.8854 52.2626 87.3476 52.2626C81.7758 52.2626 77.351 52.7542 74.0735 53.7378C70.7961 54.7214 68.4196 56.0325 66.9448 57.6718C65.6338 59.3111 64.979 61.1146 64.9789 63.0817C64.9789 66.0325 66.6995 68.4097 70.1409 70.2129C73.5822 71.8523 78.0886 73.2456 83.6602 74.3931C89.3958 75.5407 95.6238 76.7703 102.342 78.0818C109.225 79.3932 116.026 81.1967 122.745 83.4918C129.464 85.7869 135.609 88.82 141.181 92.5904C146.916 96.3612 151.505 101.279 154.947 107.344C158.388 113.41 160.109 120.951 160.109 129.967C160.109 132.938 159.865 135.843 159.378 138.684L214.765 11.9348H271.794L318.929 119.797C317.353 112.912 316.565 105.647 316.565 98C316.565 84.7218 318.94 72.5902 323.693 61.6066C328.445 50.623 335.164 41.1143 343.85 33.0816C352.535 25.0489 362.777 18.9013 374.576 14.639C386.539 10.2127 399.649 8 413.907 8ZM226.131 112.262H259.447L242.788 68.9042L226.131 112.262ZM565.002 112.26H598.319L581.66 68.9017L565.002 112.26ZM654.35 18.3054H647.151V36.4667H638.864V18.3054H631.664V11.8765H654.35V18.3054ZM671.33 24.9641L679.117 11.8765H685.93L686 36.4667H678.45L678.39 25.2488L673.042 34.254H669.39L664.052 25.6382V36.4667H656.502V11.8765H663.315L671.33 24.9641Z" fill="url(#paint0_linear_4227_5)"/>
</g>
<g filter="url(#filter1_di_4227_5)">
<path d="M141.002 225.24C139.282 225.24 137.752 224.88 136.412 224.16C135.092 223.44 134.042 222.46 133.262 221.22C132.502 219.96 132.122 218.53 132.122 216.93C132.122 215.31 132.502 213.88 133.262 212.64C134.042 211.38 135.092 210.4 136.412 209.7C137.752 208.98 139.282 208.62 141.002 208.62C142.702 208.62 144.222 208.98 145.562 209.7C146.902 210.4 147.952 211.37 148.712 212.61C149.472 213.85 149.852 215.29 149.852 216.93C149.852 218.53 149.472 219.96 148.712 221.22C147.952 222.46 146.902 223.44 145.562 224.16C144.222 224.88 142.702 225.24 141.002 225.24ZM141.002 221.4C141.782 221.4 142.482 221.22 143.102 220.86C143.722 220.5 144.212 219.99 144.572 219.33C144.932 218.65 145.112 217.85 145.112 216.93C145.112 215.99 144.932 215.19 144.572 214.53C144.212 213.87 143.722 213.36 143.102 213C142.482 212.64 141.782 212.46 141.002 212.46C140.222 212.46 139.522 212.64 138.902 213C138.282 213.36 137.782 213.87 137.402 214.53C137.042 215.19 136.862 215.99 136.862 216.93C136.862 217.85 137.042 218.65 137.402 219.33C137.782 219.99 138.282 220.5 138.902 220.86C139.522 221.22 140.222 221.4 141.002 221.4ZM153.55 225V208.5C153.55 206.68 154.09 205.23 155.17 204.15C156.25 203.05 157.79 202.5 159.79 202.5C160.47 202.5 161.12 202.57 161.74 202.71C162.38 202.85 162.92 203.07 163.36 203.37L162.13 206.76C161.87 206.58 161.58 206.44 161.26 206.34C160.94 206.24 160.6 206.19 160.24 206.19C159.56 206.19 159.03 206.39 158.65 206.79C158.29 207.17 158.11 207.75 158.11 208.53V210.03L158.23 212.04V225H153.55ZM151.06 212.82V209.22H162.25V212.82H151.06ZM182.738 225.36C179.758 225.36 177.428 224.53 175.748 222.87C174.068 221.21 173.228 218.84 173.228 215.76V204H178.088V215.58C178.088 217.58 178.498 219.02 179.318 219.9C180.138 220.78 181.288 221.22 182.768 221.22C184.248 221.22 185.398 220.78 186.218 219.9C187.038 219.02 187.448 217.58 187.448 215.58V204H192.248V215.76C192.248 218.84 191.408 221.21 189.728 222.87C188.048 224.53 185.718 225.36 182.738 225.36ZM197.051 225V204H206.141C208.021 204 209.641 204.31 211.001 204.93C212.361 205.53 213.411 206.4 214.151 207.54C214.891 208.68 215.261 210.04 215.261 211.62C215.261 213.18 214.891 214.53 214.151 215.67C213.411 216.81 212.361 217.69 211.001 218.31C209.641 218.91 208.021 219.21 206.141 219.21H199.751L201.911 217.02V225H197.051ZM201.911 217.56L199.751 215.25H205.871C207.371 215.25 208.491 214.93 209.231 214.29C209.971 213.65 210.341 212.76 210.341 211.62C210.341 210.46 209.971 209.56 209.231 208.92C208.491 208.28 207.371 207.96 205.871 207.96H199.751L201.911 205.65V217.56ZM233.13 204H237.99V225H233.13V204ZM223.59 225H218.73V204H223.59V225ZM233.49 216.39H223.23V212.28H233.49V216.39ZM249.859 225.36C248.179 225.36 246.569 225.14 245.029 224.7C243.489 224.24 242.249 223.65 241.309 222.93L242.959 219.27C243.859 219.91 244.919 220.44 246.139 220.86C247.379 221.26 248.629 221.46 249.889 221.46C250.849 221.46 251.619 221.37 252.199 221.19C252.799 220.99 253.239 220.72 253.519 220.38C253.799 220.04 253.939 219.65 253.939 219.21C253.939 218.65 253.719 218.21 253.279 217.89C252.839 217.55 252.259 217.28 251.539 217.08C250.819 216.86 250.019 216.66 249.139 216.48C248.279 216.28 247.409 216.04 246.529 215.76C245.669 215.48 244.879 215.12 244.159 214.68C243.439 214.24 242.849 213.66 242.389 212.94C241.949 212.22 241.729 211.3 241.729 210.18C241.729 208.98 242.049 207.89 242.689 206.91C243.349 205.91 244.329 205.12 245.629 204.54C246.949 203.94 248.599 203.64 250.579 203.64C251.899 203.64 253.199 203.8 254.479 204.12C255.759 204.42 256.889 204.88 257.869 205.5L256.369 209.19C255.389 208.63 254.409 208.22 253.429 207.96C252.449 207.68 251.489 207.54 250.549 207.54C249.609 207.54 248.839 207.65 248.239 207.87C247.639 208.09 247.209 208.38 246.949 208.74C246.689 209.08 246.559 209.48 246.559 209.94C246.559 210.48 246.779 210.92 247.219 211.26C247.659 211.58 248.239 211.84 248.959 212.04C249.679 212.24 250.469 212.44 251.329 212.64C252.209 212.84 253.079 213.07 253.939 213.33C254.819 213.59 255.619 213.94 256.339 214.38C257.059 214.82 257.639 215.4 258.079 216.12C258.539 216.84 258.769 217.75 258.769 218.85C258.769 220.03 258.439 221.11 257.779 222.09C257.119 223.07 256.129 223.86 254.809 224.46C253.509 225.06 251.859 225.36 249.859 225.36ZM262.09 225V204H271.63C273.91 204 275.92 204.44 277.66 205.32C279.4 206.18 280.76 207.39 281.74 208.95C282.72 210.51 283.21 212.36 283.21 214.5C283.21 216.62 282.72 218.47 281.74 220.05C280.76 221.61 279.4 222.83 277.66 223.71C275.92 224.57 273.91 225 271.63 225H262.09ZM266.95 221.01H271.39C272.79 221.01 274 220.75 275.02 220.23C276.06 219.69 276.86 218.93 277.42 217.95C278 216.97 278.29 215.82 278.29 214.5C278.29 213.16 278 212.01 277.42 211.05C276.86 210.07 276.06 209.32 275.02 208.8C274 208.26 272.79 207.99 271.39 207.99H266.95V221.01ZM298.821 230.82C297.621 229 296.691 226.9 296.031 224.52C295.391 222.12 295.071 219.54 295.071 216.78C295.071 214.02 295.391 211.44 296.031 209.04C296.691 206.62 297.621 204.52 298.821 202.74H303.291C302.031 205 301.111 207.28 300.531 209.58C299.951 211.86 299.661 214.26 299.661 216.78C299.661 219.3 299.951 221.71 300.531 224.01C301.111 226.29 302.031 228.56 303.291 230.82H298.821ZM306.094 225V204H310.114L319.054 218.82H316.924L325.714 204H329.704L329.764 225H325.204L325.174 210.99H326.014L318.994 222.78H316.804L309.634 210.99H310.654V225H306.094ZM342.096 225.24C340.376 225.24 338.846 224.88 337.506 224.16C336.186 223.44 335.136 222.46 334.356 221.22C333.596 219.96 333.216 218.53 333.216 216.93C333.216 215.31 333.596 213.88 334.356 212.64C335.136 211.38 336.186 210.4 337.506 209.7C338.846 208.98 340.376 208.62 342.096 208.62C343.796 208.62 345.316 208.98 346.656 209.7C347.996 210.4 349.046 211.37 349.806 212.61C350.566 213.85 350.946 215.29 350.946 216.93C350.946 218.53 350.566 219.96 349.806 221.22C349.046 222.46 347.996 223.44 346.656 224.16C345.316 224.88 343.796 225.24 342.096 225.24ZM342.096 221.4C342.876 221.4 343.576 221.22 344.196 220.86C344.816 220.5 345.306 219.99 345.666 219.33C346.026 218.65 346.206 217.85 346.206 216.93C346.206 215.99 346.026 215.19 345.666 214.53C345.306 213.87 344.816 213.36 344.196 213C343.576 212.64 342.876 212.46 342.096 212.46C341.316 212.46 340.616 212.64 339.996 213C339.376 213.36 338.876 213.87 338.496 214.53C338.136 215.19 337.956 215.99 337.956 216.93C337.956 217.85 338.136 218.65 338.496 219.33C338.876 219.99 339.376 220.5 339.996 220.86C340.616 221.22 341.316 221.4 342.096 221.4ZM354.074 225V202.74H358.754V225H354.074ZM363.098 225V208.86H367.778V225H363.098ZM365.438 206.61C364.578 206.61 363.878 206.36 363.338 205.86C362.798 205.36 362.528 204.74 362.528 204C362.528 203.26 362.798 202.64 363.338 202.14C363.878 201.64 364.578 201.39 365.438 201.39C366.298 201.39 366.998 201.63 367.538 202.11C368.078 202.57 368.348 203.17 368.348 203.91C368.348 204.69 368.078 205.34 367.538 205.86C367.018 206.36 366.318 206.61 365.438 206.61ZM381.931 208.62C383.211 208.62 384.351 208.88 385.351 209.4C386.371 209.9 387.171 210.68 387.751 211.74C388.331 212.78 388.621 214.12 388.621 215.76V225H383.941V216.48C383.941 215.18 383.651 214.22 383.071 213.6C382.511 212.98 381.711 212.67 380.671 212.67C379.931 212.67 379.261 212.83 378.661 213.15C378.081 213.45 377.621 213.92 377.281 214.56C376.961 215.2 376.801 216.02 376.801 217.02V225H372.121V208.86H376.591V213.33L375.751 211.98C376.331 210.9 377.161 210.07 378.241 209.49C379.321 208.91 380.551 208.62 381.931 208.62ZM400.66 225.24C398.94 225.24 397.41 224.88 396.07 224.16C394.75 223.44 393.7 222.46 392.92 221.22C392.16 219.96 391.78 218.53 391.78 216.93C391.78 215.31 392.16 213.88 392.92 212.64C393.7 211.38 394.75 210.4 396.07 209.7C397.41 208.98 398.94 208.62 400.66 208.62C402.36 208.62 403.88 208.98 405.22 209.7C406.56 210.4 407.61 211.37 408.37 212.61C409.13 213.85 409.51 215.29 409.51 216.93C409.51 218.53 409.13 219.96 408.37 221.22C407.61 222.46 406.56 223.44 405.22 224.16C403.88 224.88 402.36 225.24 400.66 225.24ZM400.66 221.4C401.44 221.4 402.14 221.22 402.76 220.86C403.38 220.5 403.87 219.99 404.23 219.33C404.59 218.65 404.77 217.85 404.77 216.93C404.77 215.99 404.59 215.19 404.23 214.53C403.87 213.87 403.38 213.36 402.76 213C402.14 212.64 401.44 212.46 400.66 212.46C399.88 212.46 399.18 212.64 398.56 213C397.94 213.36 397.44 213.87 397.06 214.53C396.7 215.19 396.52 215.99 396.52 216.93C396.52 217.85 396.7 218.65 397.06 219.33C397.44 219.99 397.94 220.5 398.56 220.86C399.18 221.22 399.88 221.4 400.66 221.4ZM431.515 225.36C429.895 225.36 428.385 225.1 426.985 224.58C425.605 224.04 424.405 223.28 423.385 222.3C422.365 221.32 421.565 220.17 420.985 218.85C420.425 217.53 420.145 216.08 420.145 214.5C420.145 212.92 420.425 211.47 420.985 210.15C421.565 208.83 422.365 207.68 423.385 206.7C424.425 205.72 425.635 204.97 427.015 204.45C428.395 203.91 429.905 203.64 431.545 203.64C433.365 203.64 435.005 203.96 436.465 204.6C437.945 205.22 439.185 206.14 440.185 207.36L437.065 210.24C436.345 209.42 435.545 208.81 434.665 208.41C433.785 207.99 432.825 207.78 431.785 207.78C430.805 207.78 429.905 207.94 429.085 208.26C428.265 208.58 427.555 209.04 426.955 209.64C426.355 210.24 425.885 210.95 425.545 211.77C425.225 212.59 425.065 213.5 425.065 214.5C425.065 215.5 425.225 216.41 425.545 217.23C425.885 218.05 426.355 218.76 426.955 219.36C427.555 219.96 428.265 220.42 429.085 220.74C429.905 221.06 430.805 221.22 431.785 221.22C432.825 221.22 433.785 221.02 434.665 220.62C435.545 220.2 436.345 219.57 437.065 218.73L440.185 221.61C439.185 222.83 437.945 223.76 436.465 224.4C435.005 225.04 433.355 225.36 431.515 225.36ZM452.919 225V221.85L452.619 221.16V215.52C452.619 214.52 452.309 213.74 451.689 213.18C451.089 212.62 450.159 212.34 448.899 212.34C448.039 212.34 447.189 212.48 446.349 212.76C445.529 213.02 444.829 213.38 444.249 213.84L442.569 210.57C443.449 209.95 444.509 209.47 445.749 209.13C446.989 208.79 448.249 208.62 449.529 208.62C451.989 208.62 453.899 209.2 455.259 210.36C456.619 211.52 457.299 213.33 457.299 215.79V225H452.919ZM447.999 225.24C446.739 225.24 445.659 225.03 444.759 224.61C443.859 224.17 443.169 223.58 442.689 222.84C442.209 222.1 441.969 221.27 441.969 220.35C441.969 219.39 442.199 218.55 442.659 217.83C443.139 217.11 443.889 216.55 444.909 216.15C445.929 215.73 447.259 215.52 448.899 215.52H453.189V218.25H449.409C448.309 218.25 447.549 218.43 447.129 218.79C446.729 219.15 446.529 219.6 446.529 220.14C446.529 220.74 446.759 221.22 447.219 221.58C447.699 221.92 448.349 222.09 449.169 222.09C449.949 222.09 450.649 221.91 451.269 221.55C451.889 221.17 452.339 220.62 452.619 219.9L453.339 222.06C452.999 223.1 452.379 223.89 451.479 224.43C450.579 224.97 449.419 225.24 447.999 225.24ZM482.205 208.62C483.485 208.62 484.615 208.88 485.595 209.4C486.595 209.9 487.375 210.68 487.935 211.74C488.515 212.78 488.805 214.12 488.805 215.76V225H484.125V216.48C484.125 215.18 483.855 214.22 483.315 213.6C482.775 212.98 482.015 212.67 481.035 212.67C480.355 212.67 479.745 212.83 479.205 213.15C478.665 213.45 478.245 213.91 477.945 214.53C477.645 215.15 477.495 215.94 477.495 216.9V225H472.815V216.48C472.815 215.18 472.545 214.22 472.005 213.6C471.485 212.98 470.735 212.67 469.755 212.67C469.075 212.67 468.465 212.83 467.925 213.15C467.385 213.45 466.965 213.91 466.665 214.53C466.365 215.15 466.215 215.94 466.215 216.9V225H461.535V208.86H466.005V213.27L465.165 211.98C465.725 210.88 466.515 210.05 467.535 209.49C468.575 208.91 469.755 208.62 471.075 208.62C472.555 208.62 473.845 209 474.945 209.76C476.065 210.5 476.805 211.64 477.165 213.18L475.515 212.73C476.055 211.47 476.915 210.47 478.095 209.73C479.295 208.99 480.665 208.62 482.205 208.62ZM502.54 225.24C501.18 225.24 499.99 224.94 498.97 224.34C497.95 223.74 497.15 222.83 496.57 221.61C496.01 220.37 495.73 218.81 495.73 216.93C495.73 215.03 496 213.47 496.54 212.25C497.08 211.03 497.86 210.12 498.88 209.52C499.9 208.92 501.12 208.62 502.54 208.62C504.06 208.62 505.42 208.97 506.62 209.67C507.84 210.35 508.8 211.31 509.5 212.55C510.22 213.79 510.58 215.25 510.58 216.93C510.58 218.63 510.22 220.1 509.5 221.34C508.8 222.58 507.84 223.54 506.62 224.22C505.42 224.9 504.06 225.24 502.54 225.24ZM493 230.82V208.86H497.47V212.16L497.38 216.96L497.68 221.73V230.82H493ZM501.73 221.4C502.51 221.4 503.2 221.22 503.8 220.86C504.42 220.5 504.91 219.99 505.27 219.33C505.65 218.65 505.84 217.85 505.84 216.93C505.84 215.99 505.65 215.19 505.27 214.53C504.91 213.87 504.42 213.36 503.8 213C503.2 212.64 502.51 212.46 501.73 212.46C500.95 212.46 500.25 212.64 499.63 213C499.01 213.36 498.52 213.87 498.16 214.53C497.8 215.19 497.62 215.99 497.62 216.93C497.62 217.85 497.8 218.65 498.16 219.33C498.52 219.99 499.01 220.5 499.63 220.86C500.25 221.22 500.95 221.4 501.73 221.4ZM520.523 225.24C519.183 225.24 517.983 224.98 516.923 224.46C515.883 223.94 515.073 223.15 514.493 222.09C513.913 221.01 513.623 219.64 513.623 217.98V208.86H518.303V217.29C518.303 218.63 518.583 219.62 519.143 220.26C519.723 220.88 520.533 221.19 521.573 221.19C522.293 221.19 522.933 221.04 523.493 220.74C524.053 220.42 524.493 219.94 524.813 219.3C525.133 218.64 525.293 217.82 525.293 216.84V208.86H529.973V225H525.533V220.56L526.343 221.85C525.803 222.97 525.003 223.82 523.943 224.4C522.903 224.96 521.763 225.24 520.523 225.24ZM539.738 225.24C538.358 225.24 537.028 225.08 535.748 224.76C534.488 224.42 533.488 224 532.748 223.5L534.308 220.14C535.048 220.6 535.918 220.98 536.918 221.28C537.938 221.56 538.938 221.7 539.918 221.7C540.998 221.7 541.758 221.57 542.198 221.31C542.658 221.05 542.888 220.69 542.888 220.23C542.888 219.85 542.708 219.57 542.348 219.39C542.008 219.19 541.548 219.04 540.968 218.94C540.388 218.84 539.748 218.74 539.048 218.64C538.368 218.54 537.678 218.41 536.978 218.25C536.278 218.07 535.638 217.81 535.058 217.47C534.478 217.13 534.008 216.67 533.648 216.09C533.308 215.51 533.138 214.76 533.138 213.84C533.138 212.82 533.428 211.92 534.008 211.14C534.608 210.36 535.468 209.75 536.588 209.31C537.708 208.85 539.048 208.62 540.608 208.62C541.708 208.62 542.828 208.74 543.968 208.98C545.108 209.22 546.058 209.57 546.818 210.03L545.258 213.36C544.478 212.9 543.688 212.59 542.888 212.43C542.108 212.25 541.348 212.16 540.608 212.16C539.568 212.16 538.808 212.3 538.328 212.58C537.848 212.86 537.608 213.22 537.608 213.66C537.608 214.06 537.778 214.36 538.118 214.56C538.478 214.76 538.948 214.92 539.528 215.04C540.108 215.16 540.738 215.27 541.418 215.37C542.118 215.45 542.818 215.58 543.518 215.76C544.218 215.94 544.848 216.2 545.408 216.54C545.988 216.86 546.458 217.31 546.818 217.89C547.178 218.45 547.358 219.19 547.358 220.11C547.358 221.11 547.058 222 546.458 222.78C545.858 223.54 544.988 224.14 543.848 224.58C542.728 225.02 541.358 225.24 539.738 225.24ZM552.856 230.82H548.386C549.686 228.56 550.616 226.29 551.176 224.01C551.756 221.71 552.046 219.3 552.046 216.78C552.046 214.26 551.756 211.86 551.176 209.58C550.616 207.28 549.686 205 548.386 202.74H552.856C554.096 204.52 555.036 206.62 555.676 209.04C556.316 211.44 556.636 214.02 556.636 216.78C556.636 219.54 556.316 222.12 555.676 224.52C555.036 226.9 554.096 229 552.856 230.82Z" fill="url(#paint1_linear_4227_5)"/>
</g>
<defs>
<filter id="filter0_ddi_4227_5" x="0" y="0" width="691" height="198" filterUnits="userSpaceOnUse" color-interpolation-filters="sRGB">
<feFlood flood-opacity="0" result="BackgroundImageFix"/>
<feColorMatrix in="SourceAlpha" type="matrix" values="0 0 0 0 0 0 0 0 0 0 0 0 0 0 0 0 0 0 127 0" result="hardAlpha"/>
<feOffset dy="5"/>
<feGaussianBlur stdDeviation="2.5"/>
<feComposite in2="hardAlpha" operator="out"/>
<feColorMatrix type="matrix" values="0 0 0 0 0.0156863 0 0 0 0 0.0509804 0 0 0 0 0.00784314 0 0 0 0.5 0"/>
<feBlend mode="normal" in2="BackgroundImageFix" result="effect1_dropShadow_4227_5"/>
<feColorMatrix in="SourceAlpha" type="matrix" values="0 0 0 0 0 0 0 0 0 0 0 0 0 0 0 0 0 0 127 0" result="hardAlpha"/>
<feOffset dy="-4"/>
<feGaussianBlur stdDeviation="2"/>
<feComposite in2="hardAlpha" operator="out"/>
<feColorMatrix type="matrix" values="0 0 0 0 0.266667 0 0 0 0 1 0 0 0 0 0 0 0 0 0.1 0"/>
<feBlend mode="normal" in2="effect1_dropShadow_4227_5" result="effect2_dropShadow_4227_5"/>
<feBlend mode="normal" in="SourceGraphic" in2="effect2_dropShadow_4227_5" result="shape"/>
<feColorMatrix in="SourceAlpha" type="matrix" values="0 0 0 0 0 0 0 0 0 0 0 0 0 0 0 0 0 0 127 0" result="hardAlpha"/>
<feOffset dy="2"/>
<feComposite in2="hardAlpha" operator="arithmetic" k2="-1" k3="1"/>
<feColorMatrix type="matrix" values="0 0 0 0 0.769231 0 0 0 0 0 0 0 0 0 0 0 0 0 1 0"/>
<feBlend mode="normal" in2="shape" result="effect3_innerShadow_4227_5"/>
</filter>
<filter id="filter1_di_4227_5" x="127.125" y="201.391" width="434.508" height="39.4297" filterUnits="userSpaceOnUse" color-interpolation-filters="sRGB">
<feFlood flood-opacity="0" result="BackgroundImageFix"/>
<feColorMatrix in="SourceAlpha" type="matrix" values="0 0 0 0 0 0 0 0 0 0 0 0 0 0 0 0 0 0 127 0" result="hardAlpha"/>
<feOffset dy="5"/>
<feGaussianBlur stdDeviation="2.5"/>
<feComposite in2="hardAlpha" operator="out"/>
<feColorMatrix type="matrix" values="0 0 0 0 0.0156863 0 0 0 0 0.0509804 0 0 0 0 0.00784314 0 0 0 0.5 0"/>
<feBlend mode="normal" in2="BackgroundImageFix" result="effect1_dropShadow_4227_5"/>
<feBlend mode="normal" in="SourceGraphic" in2="effect1_dropShadow_4227_5" result="shape"/>
<feColorMatrix in="SourceAlpha" type="matrix" values="0 0 0 0 0 0 0 0 0 0 0 0 0 0 0 0 0 0 127 0" result="hardAlpha"/>
<feOffset dy="1"/>
<feComposite in2="hardAlpha" operator="arithmetic" k2="-1" k3="1"/>
<feColorMatrix type="matrix" values="0 0 0 0 0.768627 0 0 0 0 0 0 0 0 0 0 0 0 0 1 0"/>
<feBlend mode="normal" in2="shape" result="effect2_innerShadow_4227_5"/>
</filter>
<linearGradient id="paint0_linear_4227_5" x1="357.777" y1="8" x2="360.479" y2="188.035" gradientUnits="userSpaceOnUse">
<stop stop-color="#8D0000"/>
<stop offset="1" stop-color="#430000"/>
</linearGradient>
<linearGradient id="paint1_linear_4227_5" x1="356.418" y1="200.549" x2="356.418" y2="225.115" gradientUnits="userSpaceOnUse">
<stop stop-color="#8D0000"/>
<stop offset="1" stop-color="#430000"/>
</linearGradient>
</defs>
</svg>
