<svg width="691" height="239" viewBox="0 0 691 239" fill="none" xmlns="http://www.w3.org/2000/svg">
<g filter="url(#filter0_ddi_4195_13)">
<path d="M413.907 8C430.95 8.00004 446.108 10.8687 459.382 16.6064C472.82 22.3441 483.882 30.5409 492.567 41.1965L455.449 73.9016C450.041 67.6722 444.142 63 437.751 59.8853C431.523 56.6068 424.558 54.9677 416.856 54.9677C410.465 54.9677 404.647 55.9507 399.404 57.9179C394.323 59.8851 389.981 62.7539 386.375 66.5242C382.77 70.2948 379.985 74.8034 378.019 80.0492C376.052 85.2951 375.068 91.2791 375.068 98C375.068 104.393 376.052 110.295 378.019 115.705C379.985 120.951 382.77 125.459 386.375 129.229C389.981 133 394.241 135.951 399.158 138.082C404.237 140.049 409.892 141.033 416.119 141.033C422.674 141.033 429.065 139.967 435.292 137.836C435.943 137.596 436.599 137.338 437.259 137.064V93.328H487.651V162.935L553.638 11.9314H610.667L685.886 184.063H625.907L614.38 154.062H548.941L537.414 184.063H478.419L485.702 167.394C475.688 173.822 464.375 178.805 451.763 182.344C438.325 186.114 425.296 188 412.677 188C398.748 188 385.884 185.869 374.085 181.607C362.45 177.18 352.29 170.951 343.604 162.918C339.094 158.667 335.112 154.001 331.657 148.924L347.014 184.066H287.036L275.509 154.066H210.069L198.543 184.066H139.547L149.709 160.809C143.839 168.664 135.426 175.106 124.466 180.131C112.667 185.377 97.8361 188 79.9737 188C65.5525 188 51.6226 186.361 38.1847 183.082C24.747 179.804 13.6854 175.541 5 170.295L23.6821 128C31.8759 132.754 40.9711 136.607 50.9676 139.557C61.1278 142.344 70.9602 143.738 80.4649 143.738C86.0366 143.738 90.3793 143.41 93.4931 142.754C96.7703 141.935 99.1468 140.869 100.622 139.557C102.097 138.082 102.834 136.361 102.834 134.393C102.834 131.278 101.113 128.819 97.6719 127.016C94.2305 125.213 89.6416 123.738 83.9062 122.59C78.3344 121.279 72.1891 119.967 65.4702 118.656C58.7513 117.18 51.9501 115.295 45.0674 113C38.3487 110.704 32.1216 107.672 26.3862 103.902C20.8145 100.131 16.3074 95.2133 12.866 89.1479C9.42463 82.9184 7.70403 75.2132 7.70403 66.0329C7.70403 55.3771 10.6539 45.705 16.5534 37.0164C22.6168 28.164 31.5478 21.1147 43.3467 15.8688C55.3097 10.6229 70.141 8 87.8397 8C99.4743 8.00002 110.946 9.22975 122.253 11.6887C133.561 14.1477 143.722 17.9181 152.734 23.0001L135.281 65.0492C126.761 60.7868 118.484 57.5902 110.454 55.459C102.588 53.3279 94.8854 52.2626 87.3476 52.2626C81.7758 52.2626 77.351 52.7542 74.0735 53.7378C70.7961 54.7214 68.4196 56.0325 66.9448 57.6718C65.6338 59.3111 64.979 61.1146 64.9789 63.0817C64.9789 66.0325 66.6995 68.4097 70.1409 70.2129C73.5822 71.8523 78.0886 73.2456 83.6602 74.3931C89.3958 75.5407 95.6238 76.7703 102.342 78.0818C109.225 79.3932 116.026 81.1967 122.745 83.4918C129.464 85.7869 135.609 88.82 141.181 92.5904C146.916 96.3612 151.505 101.279 154.947 107.344C158.388 113.41 160.109 120.951 160.109 129.967C160.109 132.938 159.865 135.843 159.378 138.684L214.766 11.9348H271.794L318.929 119.797C317.353 112.912 316.565 105.647 316.565 98C316.565 84.7218 318.94 72.5902 323.693 61.6066C328.445 50.623 335.164 41.1143 343.85 33.0816C352.535 25.0489 362.777 18.9013 374.576 14.639C386.539 10.2127 399.649 8 413.907 8ZM226.131 112.262H259.447L242.788 68.9042L226.131 112.262ZM565.002 112.26H598.319L581.66 68.9017L565.002 112.26ZM654.35 18.3054H647.151V36.4667H638.864V18.3054H631.664V11.8765H654.35V18.3054ZM671.33 24.9641L679.117 11.8765H685.93L686 36.4667H678.45L678.39 25.2488L673.042 34.254H669.39L664.052 25.6382V36.4667H656.502V11.8765H663.315L671.33 24.9641Z" fill="url(#paint0_linear_4195_13)"/>
</g>
<g filter="url(#filter1_di_4195_13)">
<path d="M76.84 222.24C75.12 222.24 73.59 221.88 72.25 221.16C70.93 220.44 69.88 219.46 69.1 218.22C68.34 216.96 67.96 215.53 67.96 213.93C67.96 212.31 68.34 210.88 69.1 209.64C69.88 208.38 70.93 207.4 72.25 206.7C73.59 205.98 75.12 205.62 76.84 205.62C78.54 205.62 80.06 205.98 81.4 206.7C82.74 207.4 83.79 208.37 84.55 209.61C85.31 210.85 85.69 212.29 85.69 213.93C85.69 215.53 85.31 216.96 84.55 218.22C83.79 219.46 82.74 220.44 81.4 221.16C80.06 221.88 78.54 222.24 76.84 222.24ZM76.84 218.4C77.62 218.4 78.32 218.22 78.94 217.86C79.56 217.5 80.05 216.99 80.41 216.33C80.77 215.65 80.95 214.85 80.95 213.93C80.95 212.99 80.77 212.19 80.41 211.53C80.05 210.87 79.56 210.36 78.94 210C78.32 209.64 77.62 209.46 76.84 209.46C76.06 209.46 75.36 209.64 74.74 210C74.12 210.36 73.62 210.87 73.24 211.53C72.88 212.19 72.7 212.99 72.7 213.93C72.7 214.85 72.88 215.65 73.24 216.33C73.62 216.99 74.12 217.5 74.74 217.86C75.36 218.22 76.06 218.4 76.84 218.4ZM89.3882 222V205.5C89.3882 203.68 89.9282 202.23 91.0082 201.15C92.0882 200.05 93.6282 199.5 95.6282 199.5C96.3082 199.5 96.9582 199.57 97.5782 199.71C98.2182 199.85 98.7582 200.07 99.1982 200.37L97.9682 203.76C97.7082 203.58 97.4182 203.44 97.0982 203.34C96.7782 203.24 96.4382 203.19 96.0782 203.19C95.3982 203.19 94.8682 203.39 94.4882 203.79C94.1282 204.17 93.9482 204.75 93.9482 205.53V207.03L94.0682 209.04V222H89.3882ZM86.8982 209.82V206.22H98.0882V209.82H86.8982ZM116.146 222.36C114.466 222.36 112.856 222.14 111.316 221.7C109.776 221.24 108.536 220.65 107.596 219.93L109.246 216.27C110.146 216.91 111.206 217.44 112.426 217.86C113.666 218.26 114.916 218.46 116.176 218.46C117.136 218.46 117.906 218.37 118.486 218.19C119.086 217.99 119.526 217.72 119.806 217.38C120.086 217.04 120.226 216.65 120.226 216.21C120.226 215.65 120.006 215.21 119.566 214.89C119.126 214.55 118.546 214.28 117.826 214.08C117.106 213.86 116.306 213.66 115.426 213.48C114.566 213.28 113.696 213.04 112.816 212.76C111.956 212.48 111.166 212.12 110.446 211.68C109.726 211.24 109.136 210.66 108.676 209.94C108.236 209.22 108.016 208.3 108.016 207.18C108.016 205.98 108.336 204.89 108.976 203.91C109.636 202.91 110.616 202.12 111.916 201.54C113.236 200.94 114.886 200.64 116.866 200.64C118.186 200.64 119.486 200.8 120.766 201.12C122.046 201.42 123.176 201.88 124.156 202.5L122.656 206.19C121.676 205.63 120.696 205.22 119.716 204.96C118.736 204.68 117.776 204.54 116.836 204.54C115.896 204.54 115.126 204.65 114.526 204.87C113.926 205.09 113.496 205.38 113.236 205.74C112.976 206.08 112.846 206.48 112.846 206.94C112.846 207.48 113.066 207.92 113.506 208.26C113.946 208.58 114.526 208.84 115.246 209.04C115.966 209.24 116.756 209.44 117.616 209.64C118.496 209.84 119.366 210.07 120.226 210.33C121.106 210.59 121.906 210.94 122.626 211.38C123.346 211.82 123.926 212.4 124.366 213.12C124.826 213.84 125.056 214.75 125.056 215.85C125.056 217.03 124.726 218.11 124.066 219.09C123.406 220.07 122.416 220.86 121.096 221.46C119.796 222.06 118.146 222.36 116.146 222.36ZM134.647 222.24C132.747 222.24 131.267 221.76 130.207 220.8C129.147 219.82 128.617 218.37 128.617 216.45V202.29H133.297V216.39C133.297 217.07 133.477 217.6 133.837 217.98C134.197 218.34 134.687 218.52 135.307 218.52C136.047 218.52 136.677 218.32 137.197 217.92L138.457 221.22C137.977 221.56 137.397 221.82 136.717 222C136.057 222.16 135.367 222.24 134.647 222.24ZM126.127 209.82V206.22H137.317V209.82H126.127ZM143.147 222.24C142.347 222.24 141.657 221.97 141.077 221.43C140.517 220.87 140.237 220.16 140.237 219.3C140.237 218.44 140.517 217.75 141.077 217.23C141.657 216.69 142.347 216.42 143.147 216.42C143.967 216.42 144.657 216.69 145.217 217.23C145.777 217.75 146.057 218.44 146.057 219.3C146.057 220.16 145.777 220.87 145.217 221.43C144.657 221.97 143.967 222.24 143.147 222.24ZM161.924 222.36C160.504 222.36 159.194 222.1 157.994 221.58C156.814 221.04 155.844 220.28 155.084 219.3L157.784 216.06C158.364 216.82 158.974 217.4 159.614 217.8C160.254 218.18 160.944 218.37 161.684 218.37C163.664 218.37 164.654 217.21 164.654 214.89V204.9H157.274V201H169.484V214.62C169.484 217.22 168.844 219.16 167.564 220.44C166.284 221.72 164.404 222.36 161.924 222.36ZM181.635 222.24C179.915 222.24 178.385 221.88 177.045 221.16C175.725 220.44 174.675 219.46 173.895 218.22C173.135 216.96 172.755 215.53 172.755 213.93C172.755 212.31 173.135 210.88 173.895 209.64C174.675 208.38 175.725 207.4 177.045 206.7C178.385 205.98 179.915 205.62 181.635 205.62C183.335 205.62 184.855 205.98 186.195 206.7C187.535 207.4 188.585 208.37 189.345 209.61C190.105 210.85 190.485 212.29 190.485 213.93C190.485 215.53 190.105 216.96 189.345 218.22C188.585 219.46 187.535 220.44 186.195 221.16C184.855 221.88 183.335 222.24 181.635 222.24ZM181.635 218.4C182.415 218.4 183.115 218.22 183.735 217.86C184.355 217.5 184.845 216.99 185.205 216.33C185.565 215.65 185.745 214.85 185.745 213.93C185.745 212.99 185.565 212.19 185.205 211.53C184.845 210.87 184.355 210.36 183.735 210C183.115 209.64 182.415 209.46 181.635 209.46C180.855 209.46 180.155 209.64 179.535 210C178.915 210.36 178.415 210.87 178.035 211.53C177.675 212.19 177.495 212.99 177.495 213.93C177.495 214.85 177.675 215.65 178.035 216.33C178.415 216.99 178.915 217.5 179.535 217.86C180.155 218.22 180.855 218.4 181.635 218.4ZM199.043 222.24C197.663 222.24 196.333 222.08 195.053 221.76C193.793 221.42 192.793 221 192.053 220.5L193.613 217.14C194.353 217.6 195.223 217.98 196.223 218.28C197.243 218.56 198.243 218.7 199.223 218.7C200.303 218.7 201.063 218.57 201.503 218.31C201.963 218.05 202.193 217.69 202.193 217.23C202.193 216.85 202.013 216.57 201.653 216.39C201.313 216.19 200.853 216.04 200.273 215.94C199.693 215.84 199.053 215.74 198.353 215.64C197.673 215.54 196.983 215.41 196.283 215.25C195.583 215.07 194.943 214.81 194.363 214.47C193.783 214.13 193.313 213.67 192.953 213.09C192.613 212.51 192.443 211.76 192.443 210.84C192.443 209.82 192.733 208.92 193.313 208.14C193.913 207.36 194.773 206.75 195.893 206.31C197.013 205.85 198.353 205.62 199.913 205.62C201.013 205.62 202.133 205.74 203.273 205.98C204.413 206.22 205.363 206.57 206.123 207.03L204.563 210.36C203.783 209.9 202.993 209.59 202.193 209.43C201.413 209.25 200.653 209.16 199.913 209.16C198.873 209.16 198.113 209.3 197.633 209.58C197.153 209.86 196.913 210.22 196.913 210.66C196.913 211.06 197.083 211.36 197.423 211.56C197.783 211.76 198.253 211.92 198.833 212.04C199.413 212.16 200.043 212.27 200.723 212.37C201.423 212.45 202.123 212.58 202.823 212.76C203.523 212.94 204.153 213.2 204.713 213.54C205.293 213.86 205.763 214.31 206.123 214.89C206.483 215.45 206.663 216.19 206.663 217.11C206.663 218.11 206.363 219 205.763 219.78C205.163 220.54 204.293 221.14 203.153 221.58C202.033 222.02 200.663 222.24 199.043 222.24ZM217.561 222.24C215.721 222.24 214.101 221.88 212.701 221.16C211.321 220.44 210.251 219.46 209.491 218.22C208.731 216.96 208.351 215.53 208.351 213.93C208.351 212.31 208.721 210.88 209.461 209.64C210.221 208.38 211.251 207.4 212.551 206.7C213.851 205.98 215.321 205.62 216.961 205.62C218.541 205.62 219.961 205.96 221.221 206.64C222.501 207.3 223.511 208.26 224.251 209.52C224.991 210.76 225.361 212.25 225.361 213.99C225.361 214.17 225.351 214.38 225.331 214.62C225.311 214.84 225.291 215.05 225.271 215.25H212.161V212.52H222.811L221.011 213.33C221.011 212.49 220.841 211.76 220.501 211.14C220.161 210.52 219.691 210.04 219.091 209.7C218.491 209.34 217.791 209.16 216.991 209.16C216.191 209.16 215.481 209.34 214.861 209.7C214.261 210.04 213.791 210.53 213.451 211.17C213.111 211.79 212.941 212.53 212.941 213.39V214.11C212.941 214.99 213.131 215.77 213.511 216.45C213.911 217.11 214.461 217.62 215.161 217.98C215.881 218.32 216.721 218.49 217.681 218.49C218.541 218.49 219.291 218.36 219.931 218.1C220.591 217.84 221.191 217.45 221.731 216.93L224.221 219.63C223.481 220.47 222.551 221.12 221.431 221.58C220.311 222.02 219.021 222.24 217.561 222.24ZM238.016 222.24C236.656 222.24 235.466 221.94 234.446 221.34C233.426 220.74 232.626 219.83 232.046 218.61C231.486 217.37 231.206 215.81 231.206 213.93C231.206 212.03 231.476 210.47 232.016 209.25C232.556 208.03 233.336 207.12 234.356 206.52C235.376 205.92 236.596 205.62 238.016 205.62C239.536 205.62 240.896 205.97 242.096 206.67C243.316 207.35 244.276 208.31 244.976 209.55C245.696 210.79 246.056 212.25 246.056 213.93C246.056 215.63 245.696 217.1 244.976 218.34C244.276 219.58 243.316 220.54 242.096 221.22C240.896 221.9 239.536 222.24 238.016 222.24ZM228.476 227.82V205.86H232.946V209.16L232.856 213.96L233.156 218.73V227.82H228.476ZM237.206 218.4C237.986 218.4 238.676 218.22 239.276 217.86C239.896 217.5 240.386 216.99 240.746 216.33C241.126 215.65 241.316 214.85 241.316 213.93C241.316 212.99 241.126 212.19 240.746 211.53C240.386 210.87 239.896 210.36 239.276 210C238.676 209.64 237.986 209.46 237.206 209.46C236.426 209.46 235.726 209.64 235.106 210C234.486 210.36 233.996 210.87 233.636 211.53C233.276 212.19 233.096 212.99 233.096 213.93C233.096 214.85 233.276 215.65 233.636 216.33C233.996 216.99 234.486 217.5 235.106 217.86C235.726 218.22 236.426 218.4 237.206 218.4ZM258.999 205.62C260.279 205.62 261.419 205.88 262.419 206.4C263.439 206.9 264.239 207.68 264.819 208.74C265.399 209.78 265.689 211.12 265.689 212.76V222H261.009V213.48C261.009 212.18 260.719 211.22 260.139 210.6C259.579 209.98 258.779 209.67 257.739 209.67C256.999 209.67 256.329 209.83 255.729 210.15C255.149 210.45 254.689 210.92 254.349 211.56C254.029 212.2 253.869 213.02 253.869 214.02V222H249.189V199.74H253.869V210.33L252.819 208.98C253.399 207.9 254.229 207.07 255.309 206.49C256.389 205.91 257.619 205.62 258.999 205.62ZM269.004 209.7L270.984 202.5L271.644 205.23C270.784 205.23 270.074 204.98 269.514 204.48C268.974 203.96 268.704 203.26 268.704 202.38C268.704 201.52 268.984 200.83 269.544 200.31C270.104 199.77 270.794 199.5 271.614 199.5C272.454 199.5 273.144 199.77 273.684 200.31C274.224 200.83 274.494 201.52 274.494 202.38C274.494 202.64 274.474 202.9 274.434 203.16C274.414 203.4 274.344 203.69 274.224 204.03C274.124 204.37 273.954 204.82 273.714 205.38L271.974 209.7H269.004ZM282.569 222.24C281.189 222.24 279.859 222.08 278.579 221.76C277.319 221.42 276.319 221 275.579 220.5L277.139 217.14C277.879 217.6 278.749 217.98 279.749 218.28C280.769 218.56 281.769 218.7 282.749 218.7C283.829 218.7 284.589 218.57 285.029 218.31C285.489 218.05 285.719 217.69 285.719 217.23C285.719 216.85 285.539 216.57 285.179 216.39C284.839 216.19 284.379 216.04 283.799 215.94C283.219 215.84 282.579 215.74 281.879 215.64C281.199 215.54 280.509 215.41 279.809 215.25C279.109 215.07 278.469 214.81 277.889 214.47C277.309 214.13 276.839 213.67 276.479 213.09C276.139 212.51 275.969 211.76 275.969 210.84C275.969 209.82 276.259 208.92 276.839 208.14C277.439 207.36 278.299 206.75 279.419 206.31C280.539 205.85 281.879 205.62 283.439 205.62C284.539 205.62 285.659 205.74 286.799 205.98C287.939 206.22 288.889 206.57 289.649 207.03L288.089 210.36C287.309 209.9 286.519 209.59 285.719 209.43C284.939 209.25 284.179 209.16 283.439 209.16C282.399 209.16 281.639 209.3 281.159 209.58C280.679 209.86 280.439 210.22 280.439 210.66C280.439 211.06 280.609 211.36 280.949 211.56C281.309 211.76 281.779 211.92 282.359 212.04C282.939 212.16 283.569 212.27 284.249 212.37C284.949 212.45 285.649 212.58 286.349 212.76C287.049 212.94 287.679 213.2 288.239 213.54C288.819 213.86 289.289 214.31 289.649 214.89C290.009 215.45 290.189 216.19 290.189 217.11C290.189 218.11 289.889 219 289.289 219.78C288.689 220.54 287.819 221.14 286.679 221.58C285.559 222.02 284.189 222.24 282.569 222.24ZM299.142 222L308.502 201H313.302L322.692 222H317.592L309.912 203.46H311.832L304.122 222H299.142ZM303.822 217.5L305.112 213.81H315.912L317.232 217.5H303.822ZM332.194 222.24C330.454 222.24 328.904 221.89 327.544 221.19C326.184 220.47 325.114 219.48 324.334 218.22C323.574 216.96 323.194 215.53 323.194 213.93C323.194 212.31 323.574 210.88 324.334 209.64C325.114 208.38 326.184 207.4 327.544 206.7C328.904 205.98 330.454 205.62 332.194 205.62C333.894 205.62 335.374 205.98 336.634 206.7C337.894 207.4 338.824 208.41 339.424 209.73L335.794 211.68C335.374 210.92 334.844 210.36 334.204 210C333.584 209.64 332.904 209.46 332.164 209.46C331.364 209.46 330.644 209.64 330.004 210C329.364 210.36 328.854 210.87 328.474 211.53C328.114 212.19 327.934 212.99 327.934 213.93C327.934 214.87 328.114 215.67 328.474 216.33C328.854 216.99 329.364 217.5 330.004 217.86C330.644 218.22 331.364 218.4 332.164 218.4C332.904 218.4 333.584 218.23 334.204 217.89C334.844 217.53 335.374 216.96 335.794 216.18L339.424 218.16C338.824 219.46 337.894 220.47 336.634 221.19C335.374 221.89 333.894 222.24 332.194 222.24ZM352.019 222V218.85L351.719 218.16V212.52C351.719 211.52 351.409 210.74 350.789 210.18C350.189 209.62 349.259 209.34 347.999 209.34C347.139 209.34 346.289 209.48 345.449 209.76C344.629 210.02 343.929 210.38 343.349 210.84L341.669 207.57C342.549 206.95 343.609 206.47 344.849 206.13C346.089 205.79 347.349 205.62 348.629 205.62C351.089 205.62 352.999 206.2 354.359 207.36C355.719 208.52 356.399 210.33 356.399 212.79V222H352.019ZM347.099 222.24C345.839 222.24 344.759 222.03 343.859 221.61C342.959 221.17 342.269 220.58 341.789 219.84C341.309 219.1 341.069 218.27 341.069 217.35C341.069 216.39 341.299 215.55 341.759 214.83C342.239 214.11 342.989 213.55 344.009 213.15C345.029 212.73 346.359 212.52 347.999 212.52H352.289V215.25H348.509C347.409 215.25 346.649 215.43 346.229 215.79C345.829 216.15 345.629 216.6 345.629 217.14C345.629 217.74 345.859 218.22 346.319 218.58C346.799 218.92 347.449 219.09 348.269 219.09C349.049 219.09 349.749 218.91 350.369 218.55C350.989 218.17 351.439 217.62 351.719 216.9L352.439 219.06C352.099 220.1 351.479 220.89 350.579 221.43C349.679 221.97 348.519 222.24 347.099 222.24ZM367.682 222.24C366.162 222.24 364.792 221.9 363.572 221.22C362.352 220.52 361.382 219.55 360.662 218.31C359.962 217.07 359.612 215.61 359.612 213.93C359.612 212.23 359.962 210.76 360.662 209.52C361.382 208.28 362.352 207.32 363.572 206.64C364.792 205.96 366.162 205.62 367.682 205.62C369.042 205.62 370.232 205.92 371.252 206.52C372.272 207.12 373.062 208.03 373.622 209.25C374.182 210.47 374.462 212.03 374.462 213.93C374.462 215.81 374.192 217.37 373.652 218.61C373.112 219.83 372.332 220.74 371.312 221.34C370.312 221.94 369.102 222.24 367.682 222.24ZM368.492 218.4C369.252 218.4 369.942 218.22 370.562 217.86C371.182 217.5 371.672 216.99 372.032 216.33C372.412 215.65 372.602 214.85 372.602 213.93C372.602 212.99 372.412 212.19 372.032 211.53C371.672 210.87 371.182 210.36 370.562 210C369.942 209.64 369.252 209.46 368.492 209.46C367.712 209.46 367.012 209.64 366.392 210C365.772 210.36 365.272 210.87 364.892 211.53C364.532 212.19 364.352 212.99 364.352 213.93C364.352 214.85 364.532 215.65 364.892 216.33C365.272 216.99 365.772 217.5 366.392 217.86C367.012 218.22 367.712 218.4 368.492 218.4ZM372.722 222V218.7L372.812 213.9L372.512 209.13V199.74H377.192V222H372.722ZM389.533 222.24C387.693 222.24 386.073 221.88 384.673 221.16C383.293 220.44 382.223 219.46 381.463 218.22C380.703 216.96 380.323 215.53 380.323 213.93C380.323 212.31 380.693 210.88 381.433 209.64C382.193 208.38 383.223 207.4 384.523 206.7C385.823 205.98 387.293 205.62 388.933 205.62C390.513 205.62 391.933 205.96 393.193 206.64C394.473 207.3 395.483 208.26 396.223 209.52C396.963 210.76 397.333 212.25 397.333 213.99C397.333 214.17 397.323 214.38 397.303 214.62C397.283 214.84 397.263 215.05 397.243 215.25H384.133V212.52H394.783L392.983 213.33C392.983 212.49 392.813 211.76 392.473 211.14C392.133 210.52 391.663 210.04 391.063 209.7C390.463 209.34 389.763 209.16 388.963 209.16C388.163 209.16 387.453 209.34 386.833 209.7C386.233 210.04 385.763 210.53 385.423 211.17C385.083 211.79 384.913 212.53 384.913 213.39V214.11C384.913 214.99 385.103 215.77 385.483 216.45C385.883 217.11 386.433 217.62 387.133 217.98C387.853 218.32 388.693 218.49 389.653 218.49C390.513 218.49 391.263 218.36 391.903 218.1C392.563 217.84 393.163 217.45 393.703 216.93L396.193 219.63C395.453 220.47 394.523 221.12 393.403 221.58C392.283 222.02 390.993 222.24 389.533 222.24ZM421.119 205.62C422.399 205.62 423.529 205.88 424.509 206.4C425.509 206.9 426.289 207.68 426.849 208.74C427.429 209.78 427.719 211.12 427.719 212.76V222H423.039V213.48C423.039 212.18 422.769 211.22 422.229 210.6C421.689 209.98 420.929 209.67 419.949 209.67C419.269 209.67 418.659 209.83 418.119 210.15C417.579 210.45 417.159 210.91 416.859 211.53C416.559 212.15 416.409 212.94 416.409 213.9V222H411.729V213.48C411.729 212.18 411.459 211.22 410.919 210.6C410.399 209.98 409.649 209.67 408.669 209.67C407.989 209.67 407.379 209.83 406.839 210.15C406.299 210.45 405.879 210.91 405.579 211.53C405.279 212.15 405.129 212.94 405.129 213.9V222H400.449V205.86H404.919V210.27L404.079 208.98C404.639 207.88 405.429 207.05 406.449 206.49C407.489 205.91 408.669 205.62 409.989 205.62C411.469 205.62 412.759 206 413.859 206.76C414.979 207.5 415.719 208.64 416.079 210.18L414.429 209.73C414.969 208.47 415.829 207.47 417.009 206.73C418.209 205.99 419.579 205.62 421.119 205.62ZM433.661 228.06C432.821 228.06 431.991 227.93 431.171 227.67C430.351 227.41 429.681 227.05 429.161 226.59L430.871 223.26C431.231 223.58 431.641 223.83 432.101 224.01C432.581 224.19 433.051 224.28 433.511 224.28C434.171 224.28 434.691 224.12 435.071 223.8C435.471 223.5 435.831 222.99 436.151 222.27L436.991 220.29L437.351 219.78L443.141 205.86H447.641L440.351 222.99C439.831 224.29 439.231 225.31 438.551 226.05C437.891 226.79 437.151 227.31 436.331 227.61C435.531 227.91 434.641 228.06 433.661 228.06ZM436.421 222.63L429.221 205.86H434.051L439.631 219.36L436.421 222.63ZM461.827 227.82C460.627 226 459.697 223.9 459.037 221.52C458.397 219.12 458.077 216.54 458.077 213.78C458.077 211.02 458.397 208.44 459.037 206.04C459.697 203.62 460.627 201.52 461.827 199.74H466.297C465.037 202 464.117 204.28 463.537 206.58C462.957 208.86 462.667 211.26 462.667 213.78C462.667 216.3 462.957 218.71 463.537 221.01C464.117 223.29 465.037 225.56 466.297 227.82H461.827ZM469.099 222V201H473.959V218.04H484.489V222H469.099ZM496.892 222V218.85L496.592 218.16V212.52C496.592 211.52 496.282 210.74 495.662 210.18C495.062 209.62 494.132 209.34 492.872 209.34C492.012 209.34 491.162 209.48 490.322 209.76C489.502 210.02 488.802 210.38 488.222 210.84L486.542 207.57C487.422 206.95 488.482 206.47 489.722 206.13C490.962 205.79 492.222 205.62 493.502 205.62C495.962 205.62 497.872 206.2 499.232 207.36C500.592 208.52 501.272 210.33 501.272 212.79V222H496.892ZM491.972 222.24C490.712 222.24 489.632 222.03 488.732 221.61C487.832 221.17 487.142 220.58 486.662 219.84C486.182 219.1 485.942 218.27 485.942 217.35C485.942 216.39 486.172 215.55 486.632 214.83C487.112 214.11 487.862 213.55 488.882 213.15C489.902 212.73 491.232 212.52 492.872 212.52H497.162V215.25H493.382C492.282 215.25 491.522 215.43 491.102 215.79C490.702 216.15 490.502 216.6 490.502 217.14C490.502 217.74 490.732 218.22 491.192 218.58C491.672 218.92 492.322 219.09 493.142 219.09C493.922 219.09 494.622 218.91 495.242 218.55C495.862 218.17 496.312 217.62 496.592 216.9L497.312 219.06C496.972 220.1 496.352 220.89 495.452 221.43C494.552 221.97 493.392 222.24 491.972 222.24ZM510.938 222.24C509.558 222.24 508.228 222.08 506.948 221.76C505.688 221.42 504.688 221 503.948 220.5L505.508 217.14C506.248 217.6 507.118 217.98 508.118 218.28C509.138 218.56 510.138 218.7 511.118 218.7C512.198 218.7 512.958 218.57 513.398 218.31C513.858 218.05 514.088 217.69 514.088 217.23C514.088 216.85 513.908 216.57 513.548 216.39C513.208 216.19 512.748 216.04 512.168 215.94C511.588 215.84 510.948 215.74 510.248 215.64C509.568 215.54 508.878 215.41 508.178 215.25C507.478 215.07 506.838 214.81 506.258 214.47C505.678 214.13 505.208 213.67 504.848 213.09C504.508 212.51 504.338 211.76 504.338 210.84C504.338 209.82 504.628 208.92 505.208 208.14C505.808 207.36 506.668 206.75 507.788 206.31C508.908 205.85 510.248 205.62 511.808 205.62C512.908 205.62 514.028 205.74 515.168 205.98C516.308 206.22 517.258 206.57 518.018 207.03L516.458 210.36C515.678 209.9 514.888 209.59 514.088 209.43C513.308 209.25 512.548 209.16 511.808 209.16C510.768 209.16 510.008 209.3 509.528 209.58C509.048 209.86 508.808 210.22 508.808 210.66C508.808 211.06 508.978 211.36 509.318 211.56C509.678 211.76 510.148 211.92 510.728 212.04C511.308 212.16 511.938 212.27 512.618 212.37C513.318 212.45 514.018 212.58 514.718 212.76C515.418 212.94 516.048 213.2 516.608 213.54C517.188 213.86 517.658 214.31 518.018 214.89C518.378 215.45 518.558 216.19 518.558 217.11C518.558 218.11 518.258 219 517.658 219.78C517.058 220.54 516.188 221.14 515.048 221.58C513.928 222.02 512.558 222.24 510.938 222.24ZM530.271 222V201H539.361C541.241 201 542.861 201.31 544.221 201.93C545.581 202.53 546.631 203.4 547.371 204.54C548.111 205.68 548.481 207.04 548.481 208.62C548.481 210.18 548.111 211.53 547.371 212.67C546.631 213.81 545.581 214.69 544.221 215.31C542.861 215.91 541.241 216.21 539.361 216.21H532.971L535.131 214.02V222H530.271ZM535.131 214.56L532.971 212.25H539.091C540.591 212.25 541.711 211.93 542.451 211.29C543.191 210.65 543.561 209.76 543.561 208.62C543.561 207.46 543.191 206.56 542.451 205.92C541.711 205.28 540.591 204.96 539.091 204.96H532.971L535.131 202.65V214.56ZM551.914 222V205.86H556.594V222H551.914ZM554.254 203.61C553.394 203.61 552.694 203.36 552.154 202.86C551.614 202.36 551.344 201.74 551.344 201C551.344 200.26 551.614 199.64 552.154 199.14C552.694 198.64 553.394 198.39 554.254 198.39C555.114 198.39 555.814 198.63 556.354 199.11C556.894 199.57 557.164 200.17 557.164 200.91C557.164 201.69 556.894 202.34 556.354 202.86C555.834 203.36 555.134 203.61 554.254 203.61ZM570.747 205.62C572.027 205.62 573.167 205.88 574.167 206.4C575.187 206.9 575.987 207.68 576.567 208.74C577.147 209.78 577.437 211.12 577.437 212.76V222H572.757V213.48C572.757 212.18 572.467 211.22 571.887 210.6C571.327 209.98 570.527 209.67 569.487 209.67C568.747 209.67 568.077 209.83 567.477 210.15C566.897 210.45 566.437 210.92 566.097 211.56C565.777 212.2 565.617 213.02 565.617 214.02V222H560.937V205.86H565.407V210.33L564.567 208.98C565.147 207.9 565.977 207.07 567.057 206.49C568.137 205.91 569.367 205.62 570.747 205.62ZM591.58 222V218.85L591.28 218.16V212.52C591.28 211.52 590.97 210.74 590.35 210.18C589.75 209.62 588.82 209.34 587.56 209.34C586.7 209.34 585.85 209.48 585.01 209.76C584.19 210.02 583.49 210.38 582.91 210.84L581.23 207.57C582.11 206.95 583.17 206.47 584.41 206.13C585.65 205.79 586.91 205.62 588.19 205.62C590.65 205.62 592.56 206.2 593.92 207.36C595.28 208.52 595.96 210.33 595.96 212.79V222H591.58ZM586.66 222.24C585.4 222.24 584.32 222.03 583.42 221.61C582.52 221.17 581.83 220.58 581.35 219.84C580.87 219.1 580.63 218.27 580.63 217.35C580.63 216.39 580.86 215.55 581.32 214.83C581.8 214.11 582.55 213.55 583.57 213.15C584.59 212.73 585.92 212.52 587.56 212.52H591.85V215.25H588.07C586.97 215.25 586.21 215.43 585.79 215.79C585.39 216.15 585.19 216.6 585.19 217.14C585.19 217.74 585.42 218.22 585.88 218.58C586.36 218.92 587.01 219.09 587.83 219.09C588.61 219.09 589.31 218.91 589.93 218.55C590.55 218.17 591 217.62 591.28 216.9L592 219.06C591.66 220.1 591.04 220.89 590.14 221.43C589.24 221.97 588.08 222.24 586.66 222.24ZM605.625 222.24C604.245 222.24 602.915 222.08 601.635 221.76C600.375 221.42 599.375 221 598.635 220.5L600.195 217.14C600.935 217.6 601.805 217.98 602.805 218.28C603.825 218.56 604.825 218.7 605.805 218.7C606.885 218.7 607.645 218.57 608.085 218.31C608.545 218.05 608.775 217.69 608.775 217.23C608.775 216.85 608.595 216.57 608.235 216.39C607.895 216.19 607.435 216.04 606.855 215.94C606.275 215.84 605.635 215.74 604.935 215.64C604.255 215.54 603.565 215.41 602.865 215.25C602.165 215.07 601.525 214.81 600.945 214.47C600.365 214.13 599.895 213.67 599.535 213.09C599.195 212.51 599.025 211.76 599.025 210.84C599.025 209.82 599.315 208.92 599.895 208.14C600.495 207.36 601.355 206.75 602.475 206.31C603.595 205.85 604.935 205.62 606.495 205.62C607.595 205.62 608.715 205.74 609.855 205.98C610.995 206.22 611.945 206.57 612.705 207.03L611.145 210.36C610.365 209.9 609.575 209.59 608.775 209.43C607.995 209.25 607.235 209.16 606.495 209.16C605.455 209.16 604.695 209.3 604.215 209.58C603.735 209.86 603.495 210.22 603.495 210.66C603.495 211.06 603.665 211.36 604.005 211.56C604.365 211.76 604.835 211.92 605.415 212.04C605.995 212.16 606.625 212.27 607.305 212.37C608.005 212.45 608.705 212.58 609.405 212.76C610.105 212.94 610.735 213.2 611.295 213.54C611.875 213.86 612.345 214.31 612.705 214.89C613.065 215.45 613.245 216.19 613.245 217.11C613.245 218.11 612.945 219 612.345 219.78C611.745 220.54 610.875 221.14 609.735 221.58C608.615 222.02 607.245 222.24 605.625 222.24ZM618.743 227.82H614.273C615.573 225.56 616.503 223.29 617.063 221.01C617.643 218.71 617.933 216.3 617.933 213.78C617.933 211.26 617.643 208.86 617.063 206.58C616.503 204.28 615.573 202 614.273 199.74H618.743C619.983 201.52 620.923 203.62 621.563 206.04C622.203 208.44 622.523 211.02 622.523 213.78C622.523 216.54 622.203 219.12 621.563 221.52C620.923 223.9 619.983 226 618.743 227.82Z" fill="url(#paint1_linear_4195_13)"/>
</g>
<defs>
<filter id="filter0_ddi_4195_13" x="0" y="0" width="691" height="198" filterUnits="userSpaceOnUse" color-interpolation-filters="sRGB">
<feFlood flood-opacity="0" result="BackgroundImageFix"/>
<feColorMatrix in="SourceAlpha" type="matrix" values="0 0 0 0 0 0 0 0 0 0 0 0 0 0 0 0 0 0 127 0" result="hardAlpha"/>
<feOffset dy="5"/>
<feGaussianBlur stdDeviation="2.5"/>
<feComposite in2="hardAlpha" operator="out"/>
<feColorMatrix type="matrix" values="0 0 0 0 0.0156863 0 0 0 0 0.0509804 0 0 0 0 0.00784314 0 0 0 0.5 0"/>
<feBlend mode="normal" in2="BackgroundImageFix" result="effect1_dropShadow_4195_13"/>
<feColorMatrix in="SourceAlpha" type="matrix" values="0 0 0 0 0 0 0 0 0 0 0 0 0 0 0 0 0 0 127 0" result="hardAlpha"/>
<feOffset dy="-4"/>
<feGaussianBlur stdDeviation="2"/>
<feComposite in2="hardAlpha" operator="out"/>
<feColorMatrix type="matrix" values="0 0 0 0 0.266667 0 0 0 0 1 0 0 0 0 0 0 0 0 0.1 0"/>
<feBlend mode="normal" in2="effect1_dropShadow_4195_13" result="effect2_dropShadow_4195_13"/>
<feBlend mode="normal" in="SourceGraphic" in2="effect2_dropShadow_4195_13" result="shape"/>
<feColorMatrix in="SourceAlpha" type="matrix" values="0 0 0 0 0 0 0 0 0 0 0 0 0 0 0 0 0 0 127 0" result="hardAlpha"/>
<feOffset dy="2"/>
<feComposite in2="hardAlpha" operator="arithmetic" k2="-1" k3="1"/>
<feColorMatrix type="matrix" values="0 0 0 0 0.0921474 0 0 0 0 0.552885 0 0 0 0 0 0 0 0 1 0"/>
<feBlend mode="normal" in2="shape" result="effect3_innerShadow_4195_13"/>
</filter>
<filter id="filter1_di_4195_13" x="62.9609" y="198.391" width="564.562" height="39.6719" filterUnits="userSpaceOnUse" color-interpolation-filters="sRGB">
<feFlood flood-opacity="0" result="BackgroundImageFix"/>
<feColorMatrix in="SourceAlpha" type="matrix" values="0 0 0 0 0 0 0 0 0 0 0 0 0 0 0 0 0 0 127 0" result="hardAlpha"/>
<feOffset dy="5"/>
<feGaussianBlur stdDeviation="2.5"/>
<feComposite in2="hardAlpha" operator="out"/>
<feColorMatrix type="matrix" values="0 0 0 0 0.0156863 0 0 0 0 0.0509804 0 0 0 0 0.00784314 0 0 0 0.5 0"/>
<feBlend mode="normal" in2="BackgroundImageFix" result="effect1_dropShadow_4195_13"/>
<feBlend mode="normal" in="SourceGraphic" in2="effect1_dropShadow_4195_13" result="shape"/>
<feColorMatrix in="SourceAlpha" type="matrix" values="0 0 0 0 0 0 0 0 0 0 0 0 0 0 0 0 0 0 127 0" result="hardAlpha"/>
<feOffset dy="1"/>
<feComposite in2="hardAlpha" operator="arithmetic" k2="-1" k3="1"/>
<feColorMatrix type="matrix" values="0 0 0 0 0.0901961 0 0 0 0 0.552941 0 0 0 0 0 0 0 0 1 0"/>
<feBlend mode="normal" in2="shape" result="effect2_innerShadow_4195_13"/>
</filter>
<linearGradient id="paint0_linear_4195_13" x1="357.777" y1="8" x2="360.479" y2="188.035" gradientUnits="userSpaceOnUse">
<stop stop-color="#236515"/>
<stop offset="1" stop-color="#0A2601"/>
</linearGradient>
<linearGradient id="paint1_linear_4195_13" x1="360.886" y1="197.549" x2="360.886" y2="222.115" gradientUnits="userSpaceOnUse">
<stop stop-color="#236515"/>
<stop offset="1" stop-color="#0A2601"/>
</linearGradient>
</defs>
</svg>
