<svg width="206" height="37" viewBox="0 0 206 37" fill="none" xmlns="http://www.w3.org/2000/svg">
<path d="M12.15 36.6969C9.58333 36.6969 7.25 36.2636 5.15 35.3969C3.08333 34.4969 1.36667 33.2136 0 31.5469L5.4 25.1469C6.33333 26.3469 7.3 27.2636 8.3 27.8969C9.3 28.4969 10.35 28.7969 11.45 28.7969C14.3833 28.7969 15.85 27.0969 15.85 23.6969V8.64688H3.75V0.996875H25.65V23.0969C25.65 27.6636 24.5 31.0802 22.2 33.3469C19.9 35.5802 16.55 36.6969 12.15 36.6969ZM27.3996 35.9969L42.8496 0.996875H52.5996L68.0996 35.9969H57.7996L45.6996 5.84688H49.5996L37.4996 35.9969H27.3996ZM35.8496 29.1969L38.3996 21.8969H55.4996L58.0496 29.1969H35.8496ZM87.868 36.6969C85.1013 36.6969 82.5346 36.2636 80.168 35.3969C77.8346 34.4969 75.8013 33.2302 74.068 31.5969C72.368 29.9636 71.0346 28.0469 70.068 25.8469C69.1013 23.6136 68.618 21.1636 68.618 18.4969C68.618 15.8302 69.1013 13.3969 70.068 11.1969C71.0346 8.96355 72.368 7.03021 74.068 5.39688C75.8013 3.76355 77.8346 2.51355 80.168 1.64688C82.5346 0.746875 85.1013 0.296875 87.868 0.296875C91.1013 0.296875 93.9846 0.863542 96.518 1.99688C99.0846 3.13021 101.218 4.76355 102.918 6.89688L96.618 12.5969C95.4846 11.2636 94.2346 10.2469 92.868 9.54688C91.5346 8.84688 90.0346 8.49688 88.368 8.49688C86.9346 8.49688 85.618 8.73021 84.418 9.19688C83.218 9.66355 82.1846 10.3469 81.318 11.2469C80.4846 12.1136 79.818 13.1636 79.318 14.3969C78.8513 15.6302 78.618 16.9969 78.618 18.4969C78.618 19.9969 78.8513 21.3636 79.318 22.5969C79.818 23.8302 80.4846 24.8969 81.318 25.7969C82.1846 26.6636 83.218 27.3302 84.418 27.7969C85.618 28.2636 86.9346 28.4969 88.368 28.4969C90.0346 28.4969 91.5346 28.1469 92.868 27.4469C94.2346 26.7469 95.4846 25.7302 96.618 24.3969L102.918 30.0969C101.218 32.1969 99.0846 33.8302 96.518 34.9969C93.9846 36.1302 91.1013 36.6969 87.868 36.6969ZM107.332 35.9969V0.996875H123.332C126.532 0.996875 129.282 1.51354 131.582 2.54688C133.915 3.58021 135.715 5.08021 136.982 7.04688C138.249 8.98021 138.882 11.2802 138.882 13.9469C138.882 16.5802 138.249 18.8636 136.982 20.7969C135.715 22.6969 133.915 24.1636 131.582 25.1969C129.282 26.1969 126.532 26.6969 123.332 26.6969H112.832L117.232 22.5469V35.9969H107.332ZM128.982 35.9969L120.282 23.2469H130.832L139.582 35.9969H128.982ZM117.232 23.5969L112.832 19.0469H122.732C124.799 19.0469 126.332 18.5969 127.332 17.6969C128.365 16.7969 128.882 15.5469 128.882 13.9469C128.882 12.3136 128.365 11.0469 127.332 10.1469C126.332 9.24688 124.799 8.79688 122.732 8.79688H112.832L117.232 4.24688V23.5969ZM153.444 14.5469H169.694V21.9469H153.444V14.5469ZM154.144 28.3469H172.444V35.9969H144.344V0.996875H171.794V8.64688H154.144V28.3469ZM190.238 36.6969C187.371 36.6969 184.604 36.3469 181.938 35.6469C179.304 34.9136 177.154 33.9802 175.488 32.8469L178.738 25.5469C180.304 26.5469 182.104 27.3802 184.138 28.0469C186.204 28.6802 188.254 28.9969 190.288 28.9969C191.654 28.9969 192.754 28.8802 193.588 28.6469C194.421 28.3802 195.021 28.0469 195.388 27.6469C195.788 27.2136 195.988 26.7136 195.988 26.1469C195.988 25.3469 195.621 24.7136 194.888 24.2469C194.154 23.7802 193.204 23.3969 192.038 23.0969C190.871 22.7969 189.571 22.4969 188.138 22.1969C186.738 21.8969 185.321 21.5136 183.888 21.0469C182.488 20.5802 181.204 19.9802 180.038 19.2469C178.871 18.4802 177.921 17.4969 177.188 16.2969C176.454 15.0636 176.087 13.5136 176.087 11.6469C176.087 9.54688 176.654 7.64688 177.788 5.94688C178.954 4.24688 180.688 2.88021 182.988 1.84688C185.288 0.813542 188.154 0.296875 191.588 0.296875C193.888 0.296875 196.138 0.563542 198.338 1.09688C200.571 1.59688 202.554 2.34688 204.288 3.34688L201.238 10.6969C199.571 9.79688 197.921 9.13021 196.288 8.69688C194.654 8.23021 193.071 7.99688 191.538 7.99688C190.171 7.99688 189.071 8.14688 188.238 8.44688C187.404 8.71355 186.804 9.08021 186.438 9.54688C186.071 10.0136 185.888 10.5469 185.888 11.1469C185.888 11.9136 186.238 12.5302 186.938 12.9969C187.671 13.4302 188.621 13.7969 189.788 14.0969C190.988 14.3636 192.288 14.6469 193.688 14.9469C195.121 15.2469 196.538 15.6302 197.938 16.0969C199.371 16.5302 200.671 17.1302 201.838 17.8969C203.004 18.6302 203.938 19.6136 204.638 20.8469C205.371 22.0469 205.738 23.5636 205.738 25.3969C205.738 27.4302 205.154 29.3136 203.988 31.0469C202.854 32.7469 201.138 34.1136 198.838 35.1469C196.571 36.1802 193.704 36.6969 190.238 36.6969Z" fill="#FF3D00"/>
</svg>
