<svg width="206" height="37" viewBox="0 0 206 37" fill="none" xmlns="http://www.w3.org/2000/svg">
<path d="M12.15 36.4C9.58333 36.4 7.25 35.9667 5.15 35.1C3.08333 34.2 1.36667 32.9167 0 31.25L5.4 24.85C6.33333 26.05 7.3 26.9667 8.3 27.6C9.3 28.2 10.35 28.5 11.45 28.5C14.3833 28.5 15.85 26.8 15.85 23.4V8.35H3.75V0.7H25.65V22.8C25.65 27.3667 24.5 30.7833 22.2 33.05C19.9 35.2833 16.55 36.4 12.15 36.4ZM27.3996 35.7L42.8496 0.7H52.5996L68.0996 35.7H57.7996L45.6996 5.55H49.5996L37.4996 35.7H27.3996ZM35.8496 28.9L38.3996 21.6H55.4996L58.0496 28.9H35.8496ZM87.868 36.4C85.1013 36.4 82.5346 35.9667 80.168 35.1C77.8346 34.2 75.8013 32.9333 74.068 31.3C72.368 29.6667 71.0346 27.75 70.068 25.55C69.1013 23.3167 68.618 20.8667 68.618 18.2C68.618 15.5333 69.1013 13.1 70.068 10.9C71.0346 8.66667 72.368 6.73333 74.068 5.1C75.8013 3.46667 77.8346 2.21667 80.168 1.35C82.5346 0.45 85.1013 0 87.868 0C91.1013 0 93.9846 0.566667 96.518 1.7C99.0846 2.83333 101.218 4.46667 102.918 6.6L96.618 12.3C95.4846 10.9667 94.2346 9.95 92.868 9.25C91.5346 8.55 90.0346 8.2 88.368 8.2C86.9346 8.2 85.618 8.43333 84.418 8.9C83.218 9.36667 82.1846 10.05 81.318 10.95C80.4846 11.8167 79.818 12.8667 79.318 14.1C78.8513 15.3333 78.618 16.7 78.618 18.2C78.618 19.7 78.8513 21.0667 79.318 22.3C79.818 23.5333 80.4846 24.6 81.318 25.5C82.1846 26.3667 83.218 27.0333 84.418 27.5C85.618 27.9667 86.9346 28.2 88.368 28.2C90.0346 28.2 91.5346 27.85 92.868 27.15C94.2346 26.45 95.4846 25.4333 96.618 24.1L102.918 29.8C101.218 31.9 99.0846 33.5333 96.518 34.7C93.9846 35.8333 91.1013 36.4 87.868 36.4ZM107.332 35.7V0.7H123.332C126.532 0.7 129.282 1.21666 131.582 2.25C133.915 3.28333 135.715 4.78333 136.982 6.75C138.249 8.68333 138.882 10.9833 138.882 13.65C138.882 16.2833 138.249 18.5667 136.982 20.5C135.715 22.4 133.915 23.8667 131.582 24.9C129.282 25.9 126.532 26.4 123.332 26.4H112.832L117.232 22.25V35.7H107.332ZM128.982 35.7L120.282 22.95H130.832L139.582 35.7H128.982ZM117.232 23.3L112.832 18.75H122.732C124.799 18.75 126.332 18.3 127.332 17.4C128.365 16.5 128.882 15.25 128.882 13.65C128.882 12.0167 128.365 10.75 127.332 9.85C126.332 8.95 124.799 8.5 122.732 8.5H112.832L117.232 3.95V23.3ZM153.444 14.25H169.694V21.65H153.444V14.25ZM154.144 28.05H172.444V35.7H144.344V0.7H171.794V8.35H154.144V28.05ZM190.238 36.4C187.371 36.4 184.604 36.05 181.938 35.35C179.304 34.6167 177.154 33.6833 175.488 32.55L178.738 25.25C180.304 26.25 182.104 27.0833 184.138 27.75C186.204 28.3833 188.254 28.7 190.288 28.7C191.654 28.7 192.754 28.5833 193.588 28.35C194.421 28.0833 195.021 27.75 195.388 27.35C195.788 26.9167 195.988 26.4167 195.988 25.85C195.988 25.05 195.621 24.4167 194.888 23.95C194.154 23.4833 193.204 23.1 192.038 22.8C190.871 22.5 189.571 22.2 188.138 21.9C186.738 21.6 185.321 21.2167 183.888 20.75C182.488 20.2833 181.204 19.6833 180.038 18.95C178.871 18.1833 177.921 17.2 177.188 16C176.454 14.7667 176.087 13.2167 176.087 11.35C176.087 9.25 176.654 7.35 177.788 5.65C178.954 3.95 180.688 2.58333 182.988 1.55C185.288 0.516667 188.154 0 191.588 0C193.888 0 196.138 0.266667 198.338 0.800002C200.571 1.3 202.554 2.05 204.288 3.05L201.238 10.4C199.571 9.5 197.921 8.83333 196.288 8.4C194.654 7.93333 193.071 7.7 191.538 7.7C190.171 7.7 189.071 7.85 188.238 8.15C187.404 8.41667 186.804 8.78333 186.438 9.25C186.071 9.7167 185.888 10.25 185.888 10.85C185.888 11.6167 186.238 12.2333 186.938 12.7C187.671 13.1333 188.621 13.5 189.788 13.8C190.988 14.0667 192.288 14.35 193.688 14.65C195.121 14.95 196.538 15.3333 197.938 15.8C199.371 16.2333 200.671 16.8333 201.838 17.6C203.004 18.3333 203.938 19.3167 204.638 20.55C205.371 21.75 205.738 23.2667 205.738 25.1C205.738 27.1333 205.154 29.0167 203.988 30.75C202.854 32.45 201.138 33.8167 198.838 34.85C196.571 35.8833 193.704 36.4 190.238 36.4Z" fill="white"/>
</svg>
