<svg width="255" height="60" viewBox="0 0 255 60" fill="none" xmlns="http://www.w3.org/2000/svg">
<path d="M5 30L0 60L10 60L15 30L20 1.74846e-06L10 8.74228e-07L5 30Z" fill="white"/>
<path d="M30 30L35 60L25 60L20 30L15 1.74846e-06L25 8.74228e-07L30 30Z" fill="white"/>
<rect x="10" y="40" width="14" height="10" fill="white"/>
<path d="M235 40H225V50C225 55.5228 229.477 60 235 60H245C250.523 60 255 55.5228 255 50V40C255 36.8524 253.518 33.8885 251 32L235.8 20.6C235.296 20.2223 235 19.6295 235 19V12C235 10.8954 235.895 10 237 10H243C244.105 10 245 10.8954 245 12V20H255V10C255 4.47715 250.523 0 245 0H235C229.477 0 225 4.47715 225 10V20C225 23.1476 226.482 26.1115 229 28L244.2 39.4C244.704 39.7777 245 40.3705 245 41V48C245 49.1046 244.105 50 243 50H237C235.895 50 235 49.1046 235 48V40Z" fill="white"/>
<path d="M107 0H117V48C117 49.1046 117.895 50 119 50H125C126.105 50 127 49.1046 127 48V0H137V50V50C137 55.5228 132.523 60 127 60V60H117V60C111.477 60 107 55.5228 107 50V50V0Z" fill="white"/>
<path d="M191 0H201V48C201 49.1046 201.895 50 203 50H209C210.105 50 211 49.1046 211 48V0H221V50V50C221 55.5228 216.523 60 211 60V60H201V60C195.477 60 191 55.5228 191 50V50V0Z" fill="white"/>
<path d="M73 10C73 4.47715 77.4772 0 83 0V0H93L88 10H85C83.8954 10 83 10.8954 83 12V48C83 49.1046 83.8954 50 85 50H91C92.1046 50 93 49.1046 93 48V12C93 10.8954 92.1046 10 91 10H88L93 0V0C98.5228 0 103 4.47715 103 10V50V50C103 55.5228 98.5228 60 93 60V60H83V60C77.4772 60 73 55.5228 73 50V50V10Z" fill="white"/>
<rect x="141" width="30" height="10" fill="white"/>
<rect x="161" y="8" width="52" height="10" transform="rotate(90 161 8)" fill="white"/>
<rect x="39" width="10" height="60" fill="white"/>
<path d="M49 0H59V0C64.5221 0.00112272 69 4.47795 69 10V20.9501C69 26.0876 65.1071 30.3893 59.995 30.9005L49 32V25H57C58.1046 25 59 24.1046 59 23V12.0751C59 10.9778 58.116 10.0854 57.0187 10.0751L49 10V0Z" fill="white"/>
<path d="M49 28L59.996 29.1007C65.1076 29.6124 69 33.9139 69 39.051V50V50C69 55.5228 64.5228 60 59 60V60H49V50H57C58.1046 50 59 49.1046 59 48V37.0751C59 35.9778 58.116 35.0854 57.0187 35.0751L49 35V28Z" fill="white"/>
</svg>
