<svg width="189" height="60" viewBox="0 0 189 60" fill="none" xmlns="http://www.w3.org/2000/svg">
<path d="M0 10C0 4.47715 4.47715 0 10 0V0H20C25.5228 0 30 4.47715 30 10V10V20H20V12C20 10.8954 19.1046 10 18 10H12C10.8954 10 10 10.8954 10 12V48C10 49.1046 10.8954 50 12 50H18C19.1046 50 20 49.1046 20 48V40H15V30H30V50V50C30 55.5228 25.5228 60 20 60H10C4.47715 60 0 55.5228 0 50V50V10V10Z" fill="white"/>
<rect x="81" width="60" height="10" transform="rotate(90 81 0)" fill="white"/>
<rect width="60" height="10" transform="matrix(4.37114e-08 1 1 -4.37114e-08 111 0)" fill="white"/>
<path d="M91 30L101 60L91 60L81 30L71 -2.62268e-06L81 -1.74846e-06L91 30Z" fill="white"/>
<path d="M101 30L91 60L101 60L111 30L121 -2.62268e-06L111 -1.74846e-06L101 30Z" fill="white"/>
<path d="M37 30L32 60L42 60L47 30L52 1.74846e-06L42 8.74228e-07L37 30Z" fill="white"/>
<path d="M62 30L67 60L57 60L52 30L47 1.74846e-06L57 8.74228e-07L62 30Z" fill="white"/>
<rect x="42" y="40" width="14" height="10" fill="white"/>
<path d="M125 0H135H155V10H135V25H151V35H135V50H155V60H125V50V10V0Z" fill="white"/>
<path d="M169 40H159V50C159 55.5228 163.477 60 169 60H179C184.523 60 189 55.5228 189 50V40C189 36.8524 187.518 33.8885 185 32L169.8 20.6C169.296 20.2223 169 19.6295 169 19V12C169 10.8954 169.895 10 171 10H177C178.105 10 179 10.8954 179 12V20H189V10C189 4.47715 184.523 0 179 0H169C163.477 0 159 4.47715 159 10V20C159 23.1476 160.482 26.1115 163 28L178.2 39.4C178.704 39.7777 179 40.3705 179 41V48C179 49.1046 178.105 50 177 50H171C169.895 50 169 49.1046 169 48V40Z" fill="white"/>
</svg>
