<svg width="137" height="60" viewBox="0 0 137 60" fill="none" xmlns="http://www.w3.org/2000/svg">
<path d="M70 10C70 4.47715 74.4772 0 80 0V0H90C95.5228 0 100 4.47715 100 10V10V20H90V12C90 10.8954 89.1046 10 88 10H82C80.8954 10 80 10.8954 80 12V48C80 49.1046 80.8954 50 82 50H88C89.1046 50 90 49.1046 90 48V40H85V30H100V50V50C100 55.5228 95.5228 60 90 60H80C74.4772 60 70 55.5228 70 50V50V10V10Z" fill="#0038FF"/>
<path d="M107 30L102 60L112 60L117 30L122 1.74846e-06L112 8.74228e-07L107 30Z" fill="#0038FF"/>
<path d="M132 30L137 60L127 60L122 30L117 1.74846e-06L127 8.74228e-07L132 30Z" fill="#0038FF"/>
<rect x="112" y="40" width="14" height="10" fill="#0038FF"/>
<path d="M38 30L33 60L43 60L48 30L53 1.74846e-06L43 8.74228e-07L38 30Z" fill="#0038FF"/>
<path d="M63 30L68 60L58 60L53 30L48 1.74846e-06L58 8.74228e-07L63 30Z" fill="#0038FF"/>
<rect x="43" y="40" width="14" height="10" fill="#0038FF"/>
<path d="M10 40H0V50C0 55.5228 4.47715 60 10 60H20C25.5228 60 30 55.5228 30 50V40C30 36.8524 28.5181 33.8885 26 32L10.8 20.6C10.2964 20.2223 10 19.6295 10 19V12C10 10.8954 10.8954 10 12 10H18C19.1046 10 20 10.8954 20 12V20H30V10C30 4.47715 25.5228 0 20 0H10C4.47715 0 0 4.47715 0 10V20C0 23.1476 1.48194 26.1115 4 28L19.2 39.4C19.7036 39.7777 20 40.3705 20 41V48C20 49.1046 19.1046 50 18 50H12C10.8954 50 10 49.1046 10 48V40Z" fill="#0038FF"/>
</svg>
