<svg width="284" height="60" viewBox="0 0 284 60" fill="none" xmlns="http://www.w3.org/2000/svg">
<rect x="220" y="50" width="30" height="10" fill="#FF3D00"/>
<rect x="230" width="52" height="10" transform="rotate(90 230 0)" fill="#FF3D00"/>
<rect x="68" width="10" height="60" fill="#FF3D00"/>
<path d="M78 0H88V0C93.5221 0.00112272 98 4.47795 98 10V25V25C98 30.5228 93.5228 35 88 35H78V25H86C87.1046 25 88 24.1046 88 23V12.0751C88 10.9778 87.116 10.0854 86.0187 10.0751L78 10V0Z" fill="#FF3D00"/>
<path d="M81 32V31L91 32L98 60H88L81 32Z" fill="#FF3D00"/>
<path d="M264 40H254V50C254 55.5228 258.477 60 264 60H274C279.523 60 284 55.5228 284 50V40C284 36.8524 282.518 33.8885 280 32L264.8 20.6C264.296 20.2223 264 19.6295 264 19V12C264 10.8954 264.895 10 266 10H272C273.105 10 274 10.8954 274 12V20H284V10C284 4.47715 279.523 0 274 0H264C258.477 0 254 4.47715 254 10V20C254 23.1476 255.482 26.1115 258 28L273.2 39.4C273.704 39.7777 274 40.3705 274 41V48C274 49.1046 273.105 50 272 50H266C264.895 50 264 49.1046 264 48V40Z" fill="#FF3D00"/>
<path d="M34 0H44V48C44 49.1046 44.8954 50 46 50H52C53.1046 50 54 49.1046 54 48V0H64V50V50C64 55.5228 59.5228 60 54 60V60H44V60C38.4772 60 34 55.5228 34 50V50V0Z" fill="#FF3D00"/>
<path d="M152 10C152 4.47715 156.477 0 162 0V0H172L167 10H164C162.895 10 162 10.8954 162 12V48C162 49.1046 162.895 50 164 50H170C171.105 50 172 49.1046 172 48V12C172 10.8954 171.105 10 170 10H167L172 0V0C177.523 0 182 4.47715 182 10V50V50C182 55.5228 177.523 60 172 60V60H162V60C156.477 60 152 55.5228 152 50V50V10Z" fill="#FF3D00"/>
<path d="M186 10C186 4.47715 190.477 0 196 0V0H206L201 10H198C196.895 10 196 10.8954 196 12V48C196 49.1046 196.895 50 198 50H204C205.105 50 206 49.1046 206 48V12C206 10.8954 205.105 10 204 10H201L206 0V0C211.523 0 216 4.47715 216 10V50V50C216 55.5228 211.523 60 206 60V60H196V60C190.477 60 186 55.5228 186 50V50V10Z" fill="#FF3D00"/>
<rect x="118" width="30" height="10" fill="#FF3D00"/>
<rect x="138" y="8" width="52" height="10" transform="rotate(90 138 8)" fill="#FF3D00"/>
<path d="M0 10C0 4.47715 4.47715 0 10 0V0H20L15 10H12C10.8954 10 10 10.8954 10 12V48C10 49.1046 10.8954 50 12 50H18C19.1046 50 20 49.1046 20 48V12C20 10.8954 19.1046 10 18 10H15L20 0V0C25.5228 0 30 4.47715 30 10V50V50C30 55.5228 25.5228 60 20 60V60H10V60C4.47715 60 0 55.5228 0 50V50V10Z" fill="#FF3D00"/>
</svg>
