<svg width="307" height="60" viewBox="0 0 307 60" fill="none" xmlns="http://www.w3.org/2000/svg">
<path d="M118 10C118 4.47715 122.477 0 128 0V0H138C143.523 0 148 4.47715 148 10V10V20H138V12C138 10.8954 137.105 10 136 10H130C128.895 10 128 10.8954 128 12V48C128 49.1046 128.895 50 130 50H136C137.105 50 138 49.1046 138 48V40H133V30H148V50V50C148 55.5228 143.523 60 138 60H128C122.477 60 118 55.5228 118 50V50V10V10Z" fill="#FF3D00"/>
<rect x="199" width="60" height="10" transform="rotate(90 199 0)" fill="#FF3D00"/>
<rect width="60" height="10" transform="matrix(4.37114e-08 1 1 -4.37114e-08 229 0)" fill="#FF3D00"/>
<path d="M209 30L219 60L209 60L199 30L189 -2.62268e-06L199 -1.74846e-06L209 30Z" fill="#FF3D00"/>
<path d="M219 30L209 60L219 60L229 30L239 -2.62268e-06L229 -1.74846e-06L219 30Z" fill="#FF3D00"/>
<path d="M155 30L150 60L160 60L165 30L170 1.74846e-06L160 8.74228e-07L155 30Z" fill="#FF3D00"/>
<path d="M180 30L185 60L175 60L170 30L165 1.74846e-06L175 8.74228e-07L180 30Z" fill="#FF3D00"/>
<rect x="160" y="40" width="14" height="10" fill="#FF3D00"/>
<path d="M243 0H253H273V10H253V25H269V35H253V50H273V60H243V50V10V0Z" fill="#FF3D00"/>
<rect x="68" width="10" height="60" fill="#FF3D00"/>
<path d="M78 0H88V0C93.5221 0.00112272 98 4.47795 98 10V25V25C98 30.5228 93.5228 35 88 35H78V25H86C87.1046 25 88 24.1046 88 23V12.0751C88 10.9778 87.116 10.0854 86.0187 10.0751L78 10V0Z" fill="#FF3D00"/>
<path d="M81 32V31L91 32L98 60H88L81 32Z" fill="#FF3D00"/>
<path d="M287 40H277V50C277 55.5228 281.477 60 287 60H297C302.523 60 307 55.5228 307 50V40C307 36.8524 305.518 33.8885 303 32L287.8 20.6C287.296 20.2223 287 19.6295 287 19V12C287 10.8954 287.895 10 289 10H295C296.105 10 297 10.8954 297 12V20H307V10C307 4.47715 302.523 0 297 0H287C281.477 0 277 4.47715 277 10V20C277 23.1476 278.482 26.1115 281 28L296.2 39.4C296.704 39.7777 297 40.3705 297 41V48C297 49.1046 296.105 50 295 50H289C287.895 50 287 49.1046 287 48V40Z" fill="#FF3D00"/>
<path d="M34 0H44V48C44 49.1046 44.8954 50 46 50H52C53.1046 50 54 49.1046 54 48V0H64V50V50C64 55.5228 59.5228 60 54 60V60H44V60C38.4772 60 34 55.5228 34 50V50V0Z" fill="#FF3D00"/>
<path d="M0 10C0 4.47715 4.47715 0 10 0V0H20L15 10H12C10.8954 10 10 10.8954 10 12V48C10 49.1046 10.8954 50 12 50H18C19.1046 50 20 49.1046 20 48V12C20 10.8954 19.1046 10 18 10H15L20 0V0C25.5228 0 30 4.47715 30 10V50V50C30 55.5228 25.5228 60 20 60V60H10V60C4.47715 60 0 55.5228 0 50V50V10Z" fill="#FF3D00"/>
</svg>
