<svg width="632" height="60" viewBox="0 0 632 60" fill="none" xmlns="http://www.w3.org/2000/svg">
<rect x="321" width="30" height="10" fill="white"/>
<path d="M0 0H10H30V10H10V25H26V35H10V50V60H0V50V10V0Z" fill="white"/>
<rect x="118" width="30" height="10" fill="white"/>
<rect x="118" y="50" width="30" height="10" fill="white"/>
<rect x="138" y="8" width="52" height="10" transform="rotate(90 138 8)" fill="white"/>
<rect x="266" width="60" height="10" transform="rotate(90 266 0)" fill="white"/>
<rect x="286" width="60" height="10" transform="rotate(90 286 0)" fill="white"/>
<rect x="286" y="35" width="30" height="10" transform="rotate(-180 286 35)" fill="white"/>
<path d="M295 30L290 60L300 60L305 30L310 1.74846e-06L300 8.74228e-07L295 30Z" fill="white"/>
<path d="M320 30L325 60L315 60L310 30L305 1.74846e-06L315 8.74228e-07L320 30Z" fill="white"/>
<rect x="300" y="40" width="14" height="10" fill="white"/>
<path d="M524 30L519 60L529 60L534 30L539 1.74846e-06L529 8.74228e-07L524 30Z" fill="white"/>
<path d="M549 30L554 60L544 60L539 30L534 1.74846e-06L544 8.74228e-07L549 30Z" fill="white"/>
<rect x="529" y="40" width="14" height="10" fill="white"/>
<path d="M425 0H435H455V10H435V25H451V35H435V50H455V60H425V50V10V0Z" fill="white"/>
<path d="M162 40H152V50C152 55.5228 156.477 60 162 60H172C177.523 60 182 55.5228 182 50V40C182 36.8524 180.518 33.8885 178 32L162.8 20.6C162.296 20.2223 162 19.6295 162 19V12C162 10.8954 162.895 10 164 10H170C171.105 10 172 10.8954 172 12V20H182V10C182 4.47715 177.523 0 172 0H162C156.477 0 152 4.47715 152 10V20C152 23.1476 153.482 26.1115 156 28L171.2 39.4C171.704 39.7777 172 40.3705 172 41V48C172 49.1046 171.105 50 170 50H164C162.895 50 162 49.1046 162 48V40Z" fill="white"/>
<path d="M34 0H44V48C44 49.1046 44.8954 50 46 50H52C53.1046 50 54 49.1046 54 48V0H64V50V50C64 55.5228 59.5228 60 54 60V60H44V60C38.4772 60 34 55.5228 34 50V50V0Z" fill="white"/>
<rect x="341" y="8" width="52" height="10" transform="rotate(90 341 8)" fill="white"/>
<rect x="592" width="30" height="10" fill="white"/>
<rect x="612" y="8" width="52" height="10" transform="rotate(90 612 8)" fill="white"/>
<rect x="78" width="60" height="10" transform="rotate(90 78 0)" fill="white"/>
<rect x="98" width="60" height="10" transform="rotate(90 98 0)" fill="white"/>
<path d="M88 30L98 60L88 60L78 30L68 -2.62268e-06L78 -1.74846e-06L88 30Z" fill="white"/>
<rect x="568" width="60" height="10" transform="rotate(90 568 0)" fill="white"/>
<rect x="588" width="60" height="10" transform="rotate(90 588 0)" fill="white"/>
<path d="M578 30L588 60L578 60L568 30L558 -2.62268e-06L568 -1.74846e-06L578 30Z" fill="white"/>
<path d="M207 30L202 0L212 -8.74228e-07L217 30L222 60L212 60L207 30Z" fill="white"/>
<path d="M227 30L232 0L222 -8.74228e-07L217 30L212 60L222 60L227 30Z" fill="white"/>
<path d="M227 30L222 0L232 -8.74228e-07L237 30L242 60L232 60L227 30Z" fill="white"/>
<path d="M247 30L252 0L242 -8.74228e-07L237 30L232 60L242 60L247 30Z" fill="white"/>
<path d="M376 30L371 0L381 -8.74228e-07L386 30L391 60L381 60L376 30Z" fill="white"/>
<path d="M396 30L401 0L391 -8.74228e-07L386 30L381 60L391 60L396 30Z" fill="white"/>
<path d="M396 30L391 0L401 -8.74228e-07L406 30L411 60L401 60L396 30Z" fill="white"/>
<path d="M416 30L421 0L411 -8.74228e-07L406 30L401 60L411 60L416 30Z" fill="white"/>
<path d="M478 30L473 0L483 -8.74228e-07L488 30L493 60L483 60L478 30Z" fill="white"/>
<path d="M498 30L503 0L493 -8.74228e-07L488 30L483 60L493 60L498 30Z" fill="white"/>
<path d="M498 30L493 0L503 -8.74228e-07L508 30L513 60L503 60L498 30Z" fill="white"/>
<path d="M518 30L523 0L513 -8.74228e-07L508 30L503 60L513 60L518 30Z" fill="white"/>
<rect x="622" y="50" width="10" height="10" fill="white"/>
</svg>
