<svg width="4115" height="728" viewBox="0 0 4115 728" fill="none" xmlns="http://www.w3.org/2000/svg">
<path d="M243 728C191.667 728 145 719.333 103 702C61.6667 684 27.3333 658.333 -1.41561e-06 625L108 497C126.667 521 146 539.333 166 552C186 564 207 570 229 570C287.667 570 317 536 317 468V167H75V14H513V456C513 547.333 490 615.667 444 661C398 705.667 331 728 243 728ZM547.992 714L856.992 14H1051.99L1361.99 714H1155.99L913.992 111H991.992L749.992 714H547.992ZM716.992 578L767.992 432H1109.99L1160.99 578H716.992ZM1757.36 728C1702.03 728 1650.69 719.333 1603.36 702C1556.69 684 1516.03 658.667 1481.36 626C1447.36 593.333 1420.69 555 1401.36 511C1382.03 466.333 1372.36 417.333 1372.36 364C1372.36 310.667 1382.03 262 1401.36 218C1420.69 173.333 1447.36 134.667 1481.36 102C1516.03 69.3333 1556.69 44.3333 1603.36 27C1650.69 8.99996 1702.03 -4.62532e-05 1757.36 -4.62532e-05C1822.03 -4.62532e-05 1879.69 11.3333 1930.36 34C1981.69 56.6666 2024.36 89.3333 2058.36 132L1932.36 246C1909.69 219.333 1884.69 199 1857.36 185C1830.69 171 1800.69 164 1767.36 164C1738.69 164 1712.36 168.667 1688.36 178C1664.36 187.333 1643.69 201 1626.36 219C1609.69 236.333 1596.36 257.333 1586.36 282C1577.03 306.667 1572.36 334 1572.36 364C1572.36 394 1577.03 421.333 1586.36 446C1596.36 470.667 1609.69 492 1626.36 510C1643.69 527.333 1664.36 540.667 1688.36 550C1712.36 559.333 1738.69 564 1767.36 564C1800.69 564 1830.69 557 1857.36 543C1884.69 529 1909.69 508.667 1932.36 482L2058.36 596C2024.36 638 1981.69 670.667 1930.36 694C1879.69 716.667 1822.03 728 1757.36 728ZM2146.64 714V14H2466.64C2530.64 14 2585.64 24.3333 2631.64 45C2678.31 65.6666 2714.31 95.6666 2739.64 135C2764.97 173.667 2777.64 219.667 2777.64 273C2777.64 325.667 2764.97 371.333 2739.64 410C2714.31 448 2678.31 477.333 2631.64 498C2585.64 518 2530.64 528 2466.64 528H2256.64L2344.64 445V714H2146.64ZM2579.64 714L2405.64 459H2616.64L2791.64 714H2579.64ZM2344.64 466L2256.64 375H2454.64C2495.97 375 2526.64 366 2546.64 348C2567.31 330 2577.64 305 2577.64 273C2577.64 240.333 2567.31 215 2546.64 197C2526.64 179 2495.97 170 2454.64 170H2256.64L2344.64 78.9999V466ZM3068.88 285H3393.88V433H3068.88V285ZM3082.88 561H3448.88V714H2886.88V14H3435.88V167H3082.88V561ZM3804.75 728C3747.42 728 3692.08 721 3638.75 707C3586.08 692.333 3543.08 673.667 3509.75 651L3574.75 505C3606.08 525 3642.08 541.667 3682.75 555C3724.08 567.667 3765.08 574 3805.75 574C3833.08 574 3855.08 571.667 3871.75 567C3888.42 561.667 3900.42 555 3907.75 547C3915.75 538.333 3919.75 528.333 3919.75 517C3919.75 501 3912.42 488.333 3897.75 479C3883.08 469.667 3864.08 462 3840.75 456C3817.42 450 3791.42 444 3762.75 438C3734.75 432 3706.42 424.333 3677.75 415C3649.75 405.667 3624.08 393.667 3600.75 379C3577.42 363.667 3558.42 344 3543.75 320C3529.08 295.333 3521.75 264.333 3521.75 227C3521.75 185 3533.08 147 3555.75 113C3579.08 79 3613.75 51.6667 3659.75 31C3705.75 10.3333 3763.08 -4.62532e-05 3831.75 -4.62532e-05C3877.75 -4.62532e-05 3922.75 5.3333 3966.75 16C4011.42 26 4051.08 41 4085.75 60.9999L4024.75 208C3991.42 190 3958.42 176.667 3925.75 168C3893.08 158.667 3861.42 154 3830.75 154C3803.42 154 3781.42 157 3764.75 163C3748.08 168.333 3736.08 175.667 3728.75 185C3721.42 194.333 3717.75 205 3717.75 217C3717.75 232.333 3724.75 244.667 3738.75 254C3753.42 262.667 3772.42 270 3795.75 276C3819.75 281.333 3845.75 287 3873.75 293C3902.42 299 3930.75 306.667 3958.75 316C3987.42 324.667 4013.42 336.667 4036.75 352C4060.08 366.667 4078.75 386.333 4092.75 411C4107.42 435 4114.75 465.333 4114.75 502C4114.75 542.667 4103.08 580.333 4079.75 615C4057.08 649 4022.75 676.333 3976.75 697C3931.42 717.667 3874.08 728 3804.75 728Z" fill="white"/>
</svg>
