<svg width="493" height="110" viewBox="0 0 493 110" fill="none" xmlns="http://www.w3.org/2000/svg">
<path d="M11.5191 38L0.169141 3H10.3691L19.9191 33.3H14.7691L24.8191 3H33.9191L43.4191 33.3H38.4691L48.3191 3H57.7691L46.4191 38H35.8191L27.7191 12.25H30.5691L22.1191 38H11.5191ZM79.2488 10.45C81.3488 10.45 83.2488 10.8833 84.9488 11.75C86.6488 12.5833 87.9822 13.8833 88.9488 15.65C89.9488 17.4167 90.4488 19.7 90.4488 22.5V38H80.9488V24.05C80.9488 22.1167 80.5488 20.7167 79.7488 19.85C78.9822 18.95 77.8988 18.5 76.4988 18.5C75.4988 18.5 74.5822 18.7333 73.7488 19.2C72.9155 19.6333 72.2655 20.3167 71.7988 21.25C71.3322 22.1833 71.0988 23.4 71.0988 24.9V38H61.5988V0.899998H71.0988V18.6L68.8988 16.35C69.9322 14.3833 71.3488 12.9167 73.1488 11.95C74.9488 10.95 76.9822 10.45 79.2488 10.45ZM112.963 38V32.95L112.313 31.7V22.4C112.313 20.9 111.847 19.75 110.913 18.95C110.013 18.1167 108.563 17.7 106.563 17.7C105.263 17.7 103.947 17.9167 102.613 18.35C101.28 18.75 100.147 19.3167 99.2133 20.05L96.0133 13.6C97.5466 12.6 99.3799 11.8333 101.513 11.3C103.68 10.7333 105.83 10.45 107.963 10.45C112.363 10.45 115.763 11.4667 118.163 13.5C120.597 15.5 121.813 18.65 121.813 22.95V38H112.963ZM104.963 38.45C102.797 38.45 100.963 38.0833 99.4633 37.35C97.9633 36.6167 96.8133 35.6167 96.0133 34.35C95.2466 33.0833 94.8633 31.6667 94.8633 30.1C94.8633 28.4333 95.2799 27 96.1133 25.8C96.9799 24.5667 98.2966 23.6333 100.063 23C101.83 22.3333 104.113 22 106.913 22H113.313V26.95H108.213C106.68 26.95 105.597 27.2 104.963 27.7C104.363 28.2 104.063 28.8667 104.063 29.7C104.063 30.5333 104.38 31.2 105.013 31.7C105.647 32.2 106.513 32.45 107.613 32.45C108.647 32.45 109.58 32.2 110.413 31.7C111.28 31.1667 111.913 30.3667 112.313 29.3L113.613 32.8C113.113 34.6667 112.13 36.0833 110.663 37.05C109.23 37.9833 107.33 38.45 104.963 38.45ZM139.91 38.45C136.443 38.45 133.743 37.6 131.81 35.9C129.876 34.1667 128.91 31.5667 128.91 28.1V4.85H138.41V28C138.41 28.9667 138.676 29.7333 139.21 30.3C139.743 30.8333 140.426 31.1 141.26 31.1C142.393 31.1 143.36 30.8167 144.16 30.25L146.51 36.9C145.71 37.4333 144.726 37.8167 143.56 38.05C142.393 38.3167 141.176 38.45 139.91 38.45ZM124.96 19V11.9H144.61V19H124.96ZM176.524 38.45C174.057 38.45 171.807 37.8833 169.774 36.75C167.774 35.5833 166.174 33.9667 164.974 31.9C163.774 29.8 163.174 27.3 163.174 24.4C163.174 21.5333 163.774 19.0667 164.974 17C166.174 14.9 167.774 13.2833 169.774 12.15C171.807 11.0167 174.057 10.45 176.524 10.45C178.857 10.45 180.824 10.95 182.424 11.95C184.057 12.95 185.29 14.4833 186.124 16.55C186.957 18.6167 187.374 21.2333 187.374 24.4C187.374 27.6333 186.974 30.2833 186.174 32.35C185.374 34.4167 184.174 35.95 182.574 36.95C180.974 37.95 178.957 38.45 176.524 38.45ZM178.524 30.9C179.59 30.9 180.54 30.65 181.374 30.15C182.24 29.65 182.924 28.9167 183.424 27.95C183.924 26.95 184.174 25.7667 184.174 24.4C184.174 23.0333 183.924 21.8833 183.424 20.95C182.924 19.9833 182.24 19.25 181.374 18.75C180.54 18.25 179.59 18 178.524 18C177.424 18 176.44 18.25 175.574 18.75C174.74 19.25 174.074 19.9833 173.574 20.95C173.074 21.8833 172.824 23.0333 172.824 24.4C172.824 25.7667 173.074 26.95 173.574 27.95C174.074 28.9167 174.74 29.65 175.574 30.15C176.44 30.65 177.424 30.9 178.524 30.9ZM184.474 38V33.35L184.524 24.4L184.024 15.45V0.899998H193.524V38H184.474ZM213.236 38.45C210.269 38.45 207.636 37.85 205.336 36.65C203.036 35.45 201.219 33.8 199.886 31.7C198.586 29.5667 197.936 27.1333 197.936 24.4C197.936 21.6667 198.586 19.25 199.886 17.15C201.219 15.05 203.036 13.4167 205.336 12.25C207.636 11.05 210.269 10.45 213.236 10.45C216.203 10.45 218.836 11.05 221.136 12.25C223.469 13.4167 225.286 15.05 226.586 17.15C227.886 19.25 228.536 21.6667 228.536 24.4C228.536 27.1333 227.886 29.5667 226.586 31.7C225.286 33.8 223.469 35.45 221.136 36.65C218.836 37.85 216.203 38.45 213.236 38.45ZM213.236 30.9C214.336 30.9 215.303 30.65 216.136 30.15C217.003 29.65 217.686 28.9167 218.186 27.95C218.686 26.95 218.936 25.7667 218.936 24.4C218.936 23.0333 218.686 21.8833 218.186 20.95C217.686 19.9833 217.003 19.25 216.136 18.75C215.303 18.25 214.336 18 213.236 18C212.169 18 211.203 18.25 210.336 18.75C209.503 19.25 208.819 19.9833 208.286 20.95C207.786 21.8833 207.536 23.0333 207.536 24.4C207.536 25.7667 207.786 26.95 208.286 27.95C208.819 28.9167 209.503 29.65 210.336 30.15C211.203 30.65 212.169 30.9 213.236 30.9ZM252.138 48.15C250.704 48.15 249.254 47.9167 247.788 47.45C246.354 47.0167 245.188 46.4333 244.287 45.7L247.588 39.05C248.154 39.55 248.804 39.9333 249.538 40.2C250.304 40.5 251.054 40.65 251.787 40.65C252.821 40.65 253.638 40.4167 254.238 39.95C254.838 39.4833 255.354 38.75 255.788 37.75L257.038 34.6L257.788 33.65L266.988 10.9H276.038L264.338 39.1C263.404 41.4333 262.321 43.25 261.088 44.55C259.888 45.8833 258.538 46.8167 257.038 47.35C255.571 47.8833 253.938 48.15 252.138 48.15ZM255.838 39.15L243.887 10.9H253.638L262.438 32.8L255.838 39.15ZM291.361 38.45C288.394 38.45 285.761 37.85 283.461 36.65C281.161 35.45 279.344 33.8 278.011 31.7C276.711 29.5667 276.061 27.1333 276.061 24.4C276.061 21.6667 276.711 19.25 278.011 17.15C279.344 15.05 281.161 13.4167 283.461 12.25C285.761 11.05 288.394 10.45 291.361 10.45C294.328 10.45 296.961 11.05 299.261 12.25C301.594 13.4167 303.411 15.05 304.711 17.15C306.011 19.25 306.661 21.6667 306.661 24.4C306.661 27.1333 306.011 29.5667 304.711 31.7C303.411 33.8 301.594 35.45 299.261 36.65C296.961 37.85 294.328 38.45 291.361 38.45ZM291.361 30.9C292.461 30.9 293.428 30.65 294.261 30.15C295.128 29.65 295.811 28.9167 296.311 27.95C296.811 26.95 297.061 25.7667 297.061 24.4C297.061 23.0333 296.811 21.8833 296.311 20.95C295.811 19.9833 295.128 19.25 294.261 18.75C293.428 18.25 292.461 18 291.361 18C290.294 18 289.328 18.25 288.461 18.75C287.628 19.25 286.944 19.9833 286.411 20.95C285.911 21.8833 285.661 23.0333 285.661 24.4C285.661 25.7667 285.911 26.95 286.411 27.95C286.944 28.9167 287.628 29.65 288.461 30.15C289.328 30.65 290.294 30.9 291.361 30.9ZM322.462 38.45C320.262 38.45 318.278 38.0167 316.512 37.15C314.778 36.2833 313.412 34.9333 312.412 33.1C311.445 31.2333 310.962 28.8833 310.962 26.05V10.9H320.462V24.5C320.462 26.6 320.845 28.1 321.612 29C322.412 29.9 323.528 30.35 324.962 30.35C325.895 30.35 326.745 30.1333 327.512 29.7C328.278 29.2667 328.895 28.5833 329.362 27.65C329.828 26.6833 330.062 25.45 330.062 23.95V10.9H339.562V38H330.512V30.35L332.262 32.5C331.328 34.5 329.978 36 328.212 37C326.445 37.9667 324.528 38.45 322.462 38.45ZM366.682 38L357.032 10.9H366.032L373.682 33.55H369.382L377.332 10.9H385.432L393.082 33.55H388.882L396.782 10.9H405.132L395.482 38H386.282L379.782 19.25H382.582L375.882 38H366.682ZM423.657 38V32.95L423.007 31.7V22.4C423.007 20.9 422.54 19.75 421.607 18.95C420.707 18.1167 419.257 17.7 417.257 17.7C415.957 17.7 414.64 17.9167 413.307 18.35C411.973 18.75 410.84 19.3167 409.907 20.05L406.707 13.6C408.24 12.6 410.073 11.8333 412.207 11.3C414.373 10.7333 416.523 10.45 418.657 10.45C423.057 10.45 426.457 11.4667 428.857 13.5C431.29 15.5 432.507 18.65 432.507 22.95V38H423.657ZM415.657 38.45C413.49 38.45 411.657 38.0833 410.157 37.35C408.657 36.6167 407.507 35.6167 406.707 34.35C405.94 33.0833 405.557 31.6667 405.557 30.1C405.557 28.4333 405.973 27 406.807 25.8C407.673 24.5667 408.99 23.6333 410.757 23C412.523 22.3333 414.807 22 417.607 22H424.007V26.95H418.907C417.373 26.95 416.29 27.2 415.657 27.7C415.057 28.2 414.757 28.8667 414.757 29.7C414.757 30.5333 415.073 31.2 415.707 31.7C416.34 32.2 417.207 32.45 418.307 32.45C419.34 32.45 420.273 32.2 421.107 31.7C421.973 31.1667 422.607 30.3667 423.007 29.3L424.307 32.8C423.807 34.6667 422.823 36.0833 421.357 37.05C419.923 37.9833 418.023 38.45 415.657 38.45ZM456.153 10.45C458.253 10.45 460.153 10.8833 461.853 11.75C463.553 12.5833 464.886 13.8833 465.853 15.65C466.853 17.4167 467.353 19.7 467.353 22.5V38H457.853V24.05C457.853 22.1167 457.453 20.7167 456.653 19.85C455.886 18.95 454.803 18.5 453.403 18.5C452.403 18.5 451.486 18.7333 450.653 19.2C449.82 19.6333 449.17 20.3167 448.703 21.25C448.236 22.1833 448.003 23.4 448.003 24.9V38H438.503V10.9H447.553V18.6L445.803 16.35C446.836 14.3833 448.253 12.9167 450.053 11.95C451.853 10.95 453.886 10.45 456.153 10.45ZM485.418 38.45C481.951 38.45 479.251 37.6 477.318 35.9C475.384 34.1667 474.418 31.5667 474.418 28.1V4.85H483.918V28C483.918 28.9667 484.184 29.7333 484.718 30.3C485.251 30.8333 485.934 31.1 486.768 31.1C487.901 31.1 488.868 30.8167 489.668 30.25L492.018 36.9C491.218 37.4333 490.234 37.8167 489.068 38.05C487.901 38.3167 486.684 38.45 485.418 38.45ZM470.468 19V11.9H490.118V19H470.468ZM93.3277 99.45C89.8611 99.45 87.1611 98.6 85.2277 96.9C83.2944 95.1667 82.3277 92.5667 82.3277 89.1V65.85H91.8277V89C91.8277 89.9667 92.0944 90.7333 92.6277 91.3C93.1611 91.8333 93.8444 92.1 94.6777 92.1C95.8111 92.1 96.7777 91.8167 97.5777 91.25L99.9277 97.9C99.1277 98.4333 98.1444 98.8167 96.9777 99.05C95.8111 99.3167 94.5944 99.45 93.3277 99.45ZM78.3777 80V72.9H98.0277V80H78.3777ZM116.41 99.45C113.443 99.45 110.81 98.85 108.51 97.65C106.21 96.45 104.393 94.8 103.06 92.7C101.76 90.5667 101.11 88.1333 101.11 85.4C101.11 82.6667 101.76 80.25 103.06 78.15C104.393 76.05 106.21 74.4167 108.51 73.25C110.81 72.05 113.443 71.45 116.41 71.45C119.376 71.45 122.01 72.05 124.31 73.25C126.643 74.4167 128.46 76.05 129.76 78.15C131.06 80.25 131.71 82.6667 131.71 85.4C131.71 88.1333 131.06 90.5667 129.76 92.7C128.46 94.8 126.643 96.45 124.31 97.65C122.01 98.85 119.376 99.45 116.41 99.45ZM116.41 91.9C117.51 91.9 118.476 91.65 119.31 91.15C120.176 90.65 120.86 89.9167 121.36 88.95C121.86 87.95 122.11 86.7667 122.11 85.4C122.11 84.0333 121.86 82.8833 121.36 81.95C120.86 80.9833 120.176 80.25 119.31 79.75C118.476 79.25 117.51 79 116.41 79C115.343 79 114.376 79.25 113.51 79.75C112.676 80.25 111.993 80.9833 111.46 81.95C110.96 82.8833 110.71 84.0333 110.71 85.4C110.71 86.7667 110.96 87.95 111.46 88.95C111.993 89.9167 112.676 90.65 113.51 91.15C114.376 91.65 115.343 91.9 116.41 91.9ZM162.461 99.45C159.995 99.45 157.745 98.8833 155.711 97.75C153.711 96.5833 152.111 94.9667 150.911 92.9C149.711 90.8 149.111 88.3 149.111 85.4C149.111 82.5333 149.711 80.0667 150.911 78C152.111 75.9 153.711 74.2833 155.711 73.15C157.745 72.0167 159.995 71.45 162.461 71.45C164.795 71.45 166.761 71.95 168.361 72.95C169.995 73.95 171.228 75.4833 172.061 77.55C172.895 79.6167 173.311 82.2333 173.311 85.4C173.311 88.6333 172.911 91.2833 172.111 93.35C171.311 95.4167 170.111 96.95 168.511 97.95C166.911 98.95 164.895 99.45 162.461 99.45ZM164.461 91.9C165.528 91.9 166.478 91.65 167.311 91.15C168.178 90.65 168.861 89.9167 169.361 88.95C169.861 87.95 170.111 86.7667 170.111 85.4C170.111 84.0333 169.861 82.8833 169.361 81.95C168.861 80.9833 168.178 80.25 167.311 79.75C166.478 79.25 165.528 79 164.461 79C163.361 79 162.378 79.25 161.511 79.75C160.678 80.25 160.011 80.9833 159.511 81.95C159.011 82.8833 158.761 84.0333 158.761 85.4C158.761 86.7667 159.011 87.95 159.511 88.95C160.011 89.9167 160.678 90.65 161.511 91.15C162.378 91.65 163.361 91.9 164.461 91.9ZM170.411 99V94.35L170.461 85.4L169.961 76.45V61.9H179.461V99H170.411ZM199.173 99.45C196.207 99.45 193.573 98.85 191.273 97.65C188.973 96.45 187.157 94.8 185.823 92.7C184.523 90.5667 183.873 88.1333 183.873 85.4C183.873 82.6667 184.523 80.25 185.823 78.15C187.157 76.05 188.973 74.4167 191.273 73.25C193.573 72.05 196.207 71.45 199.173 71.45C202.14 71.45 204.773 72.05 207.073 73.25C209.407 74.4167 211.223 76.05 212.523 78.15C213.823 80.25 214.473 82.6667 214.473 85.4C214.473 88.1333 213.823 90.5667 212.523 92.7C211.223 94.8 209.407 96.45 207.073 97.65C204.773 98.85 202.14 99.45 199.173 99.45ZM199.173 91.9C200.273 91.9 201.24 91.65 202.073 91.15C202.94 90.65 203.623 89.9167 204.123 88.95C204.623 87.95 204.873 86.7667 204.873 85.4C204.873 84.0333 204.623 82.8833 204.123 81.95C203.623 80.9833 202.94 80.25 202.073 79.75C201.24 79.25 200.273 79 199.173 79C198.107 79 197.14 79.25 196.273 79.75C195.44 80.25 194.757 80.9833 194.223 81.95C193.723 82.8833 193.473 84.0333 193.473 85.4C193.473 86.7667 193.723 87.95 194.223 88.95C194.757 89.9167 195.44 90.65 196.273 91.15C197.14 91.65 198.107 91.9 199.173 91.9ZM245.525 99.45C242.058 99.45 239.358 98.6 237.425 96.9C235.492 95.1667 234.525 92.5667 234.525 89.1V65.85H244.025V89C244.025 89.9667 244.292 90.7333 244.825 91.3C245.358 91.8333 246.042 92.1 246.875 92.1C248.008 92.1 248.975 91.8167 249.775 91.25L252.125 97.9C251.325 98.4333 250.342 98.8167 249.175 99.05C248.008 99.3167 246.792 99.45 245.525 99.45ZM230.575 80V72.9H250.225V80H230.575ZM268.607 99.45C265.64 99.45 263.007 98.85 260.707 97.65C258.407 96.45 256.59 94.8 255.257 92.7C253.957 90.5667 253.307 88.1333 253.307 85.4C253.307 82.6667 253.957 80.25 255.257 78.15C256.59 76.05 258.407 74.4167 260.707 73.25C263.007 72.05 265.64 71.45 268.607 71.45C271.574 71.45 274.207 72.05 276.507 73.25C278.84 74.4167 280.657 76.05 281.957 78.15C283.257 80.25 283.907 82.6667 283.907 85.4C283.907 88.1333 283.257 90.5667 281.957 92.7C280.657 94.8 278.84 96.45 276.507 97.65C274.207 98.85 271.574 99.45 268.607 99.45ZM268.607 91.9C269.707 91.9 270.674 91.65 271.507 91.15C272.374 90.65 273.057 89.9167 273.557 88.95C274.057 87.95 274.307 86.7667 274.307 85.4C274.307 84.0333 274.057 82.8833 273.557 81.95C273.057 80.9833 272.374 80.25 271.507 79.75C270.674 79.25 269.707 79 268.607 79C267.54 79 266.574 79.25 265.707 79.75C264.874 80.25 264.19 80.9833 263.657 81.95C263.157 82.8833 262.907 84.0333 262.907 85.4C262.907 86.7667 263.157 87.95 263.657 88.95C264.19 89.9167 264.874 90.65 265.707 91.15C266.574 91.65 267.54 91.9 268.607 91.9ZM300.108 99.45C297.641 99.45 295.391 98.8833 293.358 97.75C291.358 96.5833 289.758 94.9667 288.558 92.9C287.358 90.8 286.758 88.3 286.758 85.4C286.758 82.5333 287.358 80.0667 288.558 78C289.758 75.9 291.358 74.2833 293.358 73.15C295.391 72.0167 297.641 71.45 300.108 71.45C302.441 71.45 304.408 71.95 306.008 72.95C307.641 73.95 308.874 75.4833 309.708 77.55C310.541 79.6167 310.958 82.2333 310.958 85.4C310.958 88.6333 310.558 91.2833 309.758 93.35C308.958 95.4167 307.758 96.95 306.158 97.95C304.558 98.95 302.541 99.45 300.108 99.45ZM302.108 91.9C303.174 91.9 304.124 91.65 304.958 91.15C305.824 90.65 306.508 89.9167 307.008 88.95C307.508 87.95 307.758 86.7667 307.758 85.4C307.758 84.0333 307.508 82.8833 307.008 81.95C306.508 80.9833 305.824 80.25 304.958 79.75C304.124 79.25 303.174 79 302.108 79C301.008 79 300.024 79.25 299.158 79.75C298.324 80.25 297.658 80.9833 297.158 81.95C296.658 82.8833 296.408 84.0333 296.408 85.4C296.408 86.7667 296.658 87.95 297.158 88.95C297.658 89.9167 298.324 90.65 299.158 91.15C300.024 91.65 301.008 91.9 302.108 91.9ZM308.058 99V94.35L308.108 85.4L307.608 76.45V61.9H317.108V99H308.058ZM339.77 99V93.95L339.12 92.7V83.4C339.12 81.9 338.653 80.75 337.72 79.95C336.82 79.1167 335.37 78.7 333.37 78.7C332.07 78.7 330.753 78.9167 329.42 79.35C328.087 79.75 326.953 80.3167 326.02 81.05L322.82 74.6C324.353 73.6 326.187 72.8333 328.32 72.3C330.487 71.7333 332.637 71.45 334.77 71.45C339.17 71.45 342.57 72.4667 344.97 74.5C347.403 76.5 348.62 79.65 348.62 83.95V99H339.77ZM331.77 99.45C329.603 99.45 327.77 99.0833 326.27 98.35C324.77 97.6167 323.62 96.6167 322.82 95.35C322.053 94.0833 321.67 92.6667 321.67 91.1C321.67 89.4333 322.087 88 322.92 86.8C323.787 85.5667 325.103 84.6333 326.87 84C328.637 83.3333 330.92 83 333.72 83H340.12V87.95H335.02C333.487 87.95 332.403 88.2 331.77 88.7C331.17 89.2 330.87 89.8667 330.87 90.7C330.87 91.5333 331.187 92.2 331.82 92.7C332.453 93.2 333.32 93.45 334.42 93.45C335.453 93.45 336.387 93.2 337.22 92.7C338.087 92.1667 338.72 91.3667 339.12 90.3L340.42 93.8C339.92 95.6667 338.937 97.0833 337.47 98.05C336.037 98.9833 334.137 99.45 331.77 99.45ZM358.778 109.15C357.345 109.15 355.895 108.917 354.428 108.45C352.995 108.017 351.828 107.433 350.928 106.7L354.228 100.05C354.795 100.55 355.445 100.933 356.178 101.2C356.945 101.5 357.695 101.65 358.428 101.65C359.461 101.65 360.278 101.417 360.878 100.95C361.478 100.483 361.995 99.75 362.428 98.75L363.678 95.6L364.428 94.65L373.628 71.9H382.678L370.978 100.1C370.045 102.433 368.961 104.25 367.728 105.55C366.528 106.883 365.178 107.817 363.678 108.35C362.211 108.883 360.578 109.15 358.778 109.15ZM362.478 100.15L350.528 71.9H360.278L369.078 93.8L362.478 100.15ZM394.588 86.25C394.588 85.15 394.755 84.1833 395.088 83.35C395.455 82.4833 395.905 81.7167 396.438 81.05C396.972 80.3833 397.538 79.7833 398.138 79.25C398.772 78.6833 399.355 78.15 399.888 77.65C400.422 77.1167 400.855 76.5833 401.188 76.05C401.555 75.5167 401.738 74.9333 401.738 74.3C401.738 73.3 401.322 72.5167 400.488 71.95C399.688 71.3833 398.638 71.1 397.338 71.1C396.005 71.1 394.788 71.4167 393.688 72.05C392.622 72.6833 391.755 73.5667 391.088 74.7L383.638 70.7C384.938 68.4667 386.822 66.6833 389.288 65.35C391.755 63.9833 394.822 63.3 398.488 63.3C401.055 63.3 403.322 63.6667 405.288 64.4C407.288 65.1 408.855 66.15 409.988 67.55C411.122 68.95 411.688 70.6667 411.688 72.7C411.688 74 411.488 75.1333 411.088 76.1C410.688 77.0667 410.172 77.9167 409.538 78.65C408.938 79.3833 408.288 80.0667 407.588 80.7C406.888 81.3 406.222 81.8833 405.588 82.45C404.988 83.0167 404.488 83.6 404.088 84.2C403.688 84.8 403.488 85.4833 403.488 86.25H394.588ZM399.038 99.45C397.405 99.45 396.055 98.9333 394.988 97.9C393.922 96.8667 393.388 95.6333 393.388 94.2C393.388 92.7333 393.922 91.5167 394.988 90.55C396.055 89.55 397.405 89.05 399.038 89.05C400.738 89.05 402.105 89.55 403.138 90.55C404.205 91.5167 404.738 92.7333 404.738 94.2C404.738 95.6333 404.205 96.8667 403.138 97.9C402.105 98.9333 400.738 99.45 399.038 99.45Z" fill="white"/>
</svg>
