<svg width="296" height="67" viewBox="0 0 296 67" fill="none" xmlns="http://www.w3.org/2000/svg">
<path d="M7.31148 23L0.501484 2H6.62148L12.3515 20.18H9.26149L15.2915 2H20.7515L26.4515 20.18H23.4815L29.3915 2H35.0615L28.2515 23H21.8915L17.0315 7.55H18.7415L13.6715 23H7.31148ZM47.9493 6.47C49.2093 6.47 50.3493 6.73 51.3693 7.25C52.3893 7.75 53.1893 8.53 53.7693 9.59C54.3693 10.65 54.6693 12.02 54.6693 13.7V23H48.9693V14.63C48.9693 13.47 48.7293 12.63 48.2493 12.11C47.7893 11.57 47.1393 11.3 46.2993 11.3C45.6993 11.3 45.1493 11.44 44.6493 11.72C44.1493 11.98 43.7593 12.39 43.4793 12.95C43.1993 13.51 43.0593 14.24 43.0593 15.14V23H37.3593V0.739999H43.0593V11.36L41.7393 10.01C42.3593 8.83 43.2093 7.95 44.2893 7.37C45.3693 6.77 46.5893 6.47 47.9493 6.47ZM68.178 23V19.97L67.788 19.22V13.64C67.788 12.74 67.508 12.05 66.948 11.57C66.408 11.07 65.538 10.82 64.338 10.82C63.558 10.82 62.768 10.95 61.968 11.21C61.168 11.45 60.488 11.79 59.928 12.23L58.008 8.36C58.928 7.76 60.028 7.3 61.308 6.98C62.608 6.64 63.898 6.47 65.178 6.47C67.818 6.47 69.858 7.08 71.298 8.3C72.758 9.5 73.488 11.39 73.488 13.97V23H68.178ZM63.378 23.27C62.078 23.27 60.978 23.05 60.078 22.61C59.178 22.17 58.488 21.57 58.008 20.81C57.548 20.05 57.318 19.2 57.318 18.26C57.318 17.26 57.568 16.4 58.068 15.68C58.588 14.94 59.378 14.38 60.438 14C61.498 13.6 62.868 13.4 64.548 13.4H68.388V16.37H65.328C64.408 16.37 63.758 16.52 63.378 16.82C63.018 17.12 62.838 17.52 62.838 18.02C62.838 18.52 63.028 18.92 63.408 19.22C63.788 19.52 64.308 19.67 64.968 19.67C65.588 19.67 66.148 19.52 66.648 19.22C67.168 18.9 67.548 18.42 67.788 17.78L68.568 19.88C68.268 21 67.678 21.85 66.798 22.43C65.938 22.99 64.798 23.27 63.378 23.27ZM84.3459 23.27C82.2659 23.27 80.6459 22.76 79.4859 21.74C78.3259 20.7 77.7459 19.14 77.7459 17.06V3.11H83.4459V17C83.4459 17.58 83.6059 18.04 83.9259 18.38C84.2459 18.7 84.6559 18.86 85.1559 18.86C85.8359 18.86 86.4159 18.69 86.8959 18.35L88.3059 22.34C87.8259 22.66 87.2359 22.89 86.5359 23.03C85.8359 23.19 85.1059 23.27 84.3459 23.27ZM75.3759 11.6V7.34H87.1659V11.6H75.3759ZM106.314 23.27C104.834 23.27 103.484 22.93 102.264 22.25C101.064 21.55 100.104 20.58 99.3843 19.34C98.6643 18.08 98.3043 16.58 98.3043 14.84C98.3043 13.12 98.6643 11.64 99.3843 10.4C100.104 9.14 101.064 8.17 102.264 7.49C103.484 6.81 104.834 6.47 106.314 6.47C107.714 6.47 108.894 6.77 109.854 7.37C110.834 7.97 111.574 8.89 112.074 10.13C112.574 11.37 112.824 12.94 112.824 14.84C112.824 16.78 112.584 18.37 112.104 19.61C111.624 20.85 110.904 21.77 109.944 22.37C108.984 22.97 107.774 23.27 106.314 23.27ZM107.514 18.74C108.154 18.74 108.724 18.59 109.224 18.29C109.744 17.99 110.154 17.55 110.454 16.97C110.754 16.37 110.904 15.66 110.904 14.84C110.904 14.02 110.754 13.33 110.454 12.77C110.154 12.19 109.744 11.75 109.224 11.45C108.724 11.15 108.154 11 107.514 11C106.854 11 106.264 11.15 105.744 11.45C105.244 11.75 104.844 12.19 104.544 12.77C104.244 13.33 104.094 14.02 104.094 14.84C104.094 15.66 104.244 16.37 104.544 16.97C104.844 17.55 105.244 17.99 105.744 18.29C106.264 18.59 106.854 18.74 107.514 18.74ZM111.084 23V20.21L111.114 14.84L110.814 9.47V0.739999H116.514V23H111.084ZM128.342 23.27C126.562 23.27 124.982 22.91 123.602 22.19C122.222 21.47 121.132 20.48 120.332 19.22C119.552 17.94 119.162 16.48 119.162 14.84C119.162 13.2 119.552 11.75 120.332 10.49C121.132 9.23 122.222 8.25 123.602 7.55C124.982 6.83 126.562 6.47 128.342 6.47C130.122 6.47 131.702 6.83 133.082 7.55C134.482 8.25 135.572 9.23 136.352 10.49C137.132 11.75 137.522 13.2 137.522 14.84C137.522 16.48 137.132 17.94 136.352 19.22C135.572 20.48 134.482 21.47 133.082 22.19C131.702 22.91 130.122 23.27 128.342 23.27ZM128.342 18.74C129.002 18.74 129.582 18.59 130.082 18.29C130.602 17.99 131.012 17.55 131.312 16.97C131.612 16.37 131.762 15.66 131.762 14.84C131.762 14.02 131.612 13.33 131.312 12.77C131.012 12.19 130.602 11.75 130.082 11.45C129.582 11.15 129.002 11 128.342 11C127.702 11 127.122 11.15 126.602 11.45C126.102 11.75 125.692 12.19 125.372 12.77C125.072 13.33 124.922 14.02 124.922 14.84C124.922 15.66 125.072 16.37 125.372 16.97C125.692 17.55 126.102 17.99 126.602 18.29C127.122 18.59 127.702 18.74 128.342 18.74ZM151.683 29.09C150.823 29.09 149.953 28.95 149.073 28.67C148.213 28.41 147.513 28.06 146.972 27.62L148.953 23.63C149.293 23.93 149.683 24.16 150.123 24.32C150.583 24.5 151.032 24.59 151.472 24.59C152.093 24.59 152.583 24.45 152.943 24.17C153.303 23.89 153.613 23.45 153.873 22.85L154.623 20.96L155.073 20.39L160.593 6.74H166.023L159.003 23.66C158.443 25.06 157.793 26.15 157.053 26.93C156.333 27.73 155.523 28.29 154.623 28.61C153.743 28.93 152.763 29.09 151.683 29.09ZM153.903 23.69L146.732 6.74H152.583L157.863 19.88L153.903 23.69ZM175.217 23.27C173.437 23.27 171.857 22.91 170.477 22.19C169.097 21.47 168.007 20.48 167.207 19.22C166.427 17.94 166.037 16.48 166.037 14.84C166.037 13.2 166.427 11.75 167.207 10.49C168.007 9.23 169.097 8.25 170.477 7.55C171.857 6.83 173.437 6.47 175.217 6.47C176.997 6.47 178.577 6.83 179.957 7.55C181.357 8.25 182.447 9.23 183.227 10.49C184.007 11.75 184.397 13.2 184.397 14.84C184.397 16.48 184.007 17.94 183.227 19.22C182.447 20.48 181.357 21.47 179.957 22.19C178.577 22.91 176.997 23.27 175.217 23.27ZM175.217 18.74C175.877 18.74 176.457 18.59 176.957 18.29C177.477 17.99 177.887 17.55 178.187 16.97C178.487 16.37 178.637 15.66 178.637 14.84C178.637 14.02 178.487 13.33 178.187 12.77C177.887 12.19 177.477 11.75 176.957 11.45C176.457 11.15 175.877 11 175.217 11C174.577 11 173.997 11.15 173.477 11.45C172.977 11.75 172.567 12.19 172.247 12.77C171.947 13.33 171.797 14.02 171.797 14.84C171.797 15.66 171.947 16.37 172.247 16.97C172.567 17.55 172.977 17.99 173.477 18.29C173.997 18.59 174.577 18.74 175.217 18.74ZM193.877 23.27C192.557 23.27 191.367 23.01 190.307 22.49C189.267 21.97 188.447 21.16 187.847 20.06C187.267 18.94 186.977 17.53 186.977 15.83V6.74H192.677V14.9C192.677 16.16 192.907 17.06 193.367 17.6C193.847 18.14 194.517 18.41 195.377 18.41C195.937 18.41 196.447 18.28 196.907 18.02C197.367 17.76 197.737 17.35 198.017 16.79C198.297 16.21 198.437 15.47 198.437 14.57V6.74H204.137V23H198.707V18.41L199.757 19.7C199.197 20.9 198.387 21.8 197.327 22.4C196.267 22.98 195.117 23.27 193.877 23.27ZM220.409 23L214.619 6.74H220.019L224.609 20.33H222.029L226.799 6.74H231.659L236.249 20.33H233.729L238.469 6.74H243.479L237.689 23H232.169L228.269 11.75H229.949L225.929 23H220.409ZM254.594 23V19.97L254.204 19.22V13.64C254.204 12.74 253.924 12.05 253.364 11.57C252.824 11.07 251.954 10.82 250.754 10.82C249.974 10.82 249.184 10.95 248.384 11.21C247.584 11.45 246.904 11.79 246.344 12.23L244.424 8.36C245.344 7.76 246.444 7.3 247.724 6.98C249.024 6.64 250.314 6.47 251.594 6.47C254.234 6.47 256.274 7.08 257.714 8.3C259.174 9.5 259.904 11.39 259.904 13.97V23H254.594ZM249.794 23.27C248.494 23.27 247.394 23.05 246.494 22.61C245.594 22.17 244.904 21.57 244.424 20.81C243.964 20.05 243.734 19.2 243.734 18.26C243.734 17.26 243.984 16.4 244.484 15.68C245.004 14.94 245.794 14.38 246.854 14C247.914 13.6 249.284 13.4 250.964 13.4H254.804V16.37H251.744C250.824 16.37 250.174 16.52 249.794 16.82C249.434 17.12 249.254 17.52 249.254 18.02C249.254 18.52 249.444 18.92 249.824 19.22C250.204 19.52 250.724 19.67 251.384 19.67C252.004 19.67 252.564 19.52 253.064 19.22C253.584 18.9 253.964 18.42 254.204 17.78L254.984 19.88C254.684 21 254.094 21.85 253.214 22.43C252.354 22.99 251.214 23.27 249.794 23.27ZM274.092 6.47C275.352 6.47 276.492 6.73 277.512 7.25C278.532 7.75 279.332 8.53 279.912 9.59C280.512 10.65 280.812 12.02 280.812 13.7V23H275.112V14.63C275.112 13.47 274.872 12.63 274.392 12.11C273.932 11.57 273.282 11.3 272.442 11.3C271.842 11.3 271.292 11.44 270.792 11.72C270.292 11.98 269.902 12.39 269.622 12.95C269.342 13.51 269.202 14.24 269.202 15.14V23H263.502V6.74H268.932V11.36L267.882 10.01C268.502 8.83 269.352 7.95 270.432 7.37C271.512 6.77 272.732 6.47 274.092 6.47ZM291.651 23.27C289.571 23.27 287.951 22.76 286.791 21.74C285.631 20.7 285.051 19.14 285.051 17.06V3.11H290.751V17C290.751 17.58 290.911 18.04 291.231 18.38C291.551 18.7 291.961 18.86 292.461 18.86C293.141 18.86 293.721 18.69 294.201 18.35L295.611 22.34C295.131 22.66 294.541 22.89 293.841 23.03C293.141 23.19 292.411 23.27 291.651 23.27ZM282.681 11.6V7.34H294.471V11.6H282.681ZM56.3966 60.27C54.3166 60.27 52.6966 59.76 51.5366 58.74C50.3766 57.7 49.7966 56.14 49.7966 54.06V40.11H55.4966V54C55.4966 54.58 55.6566 55.04 55.9766 55.38C56.2966 55.7 56.7066 55.86 57.2066 55.86C57.8866 55.86 58.4666 55.69 58.9466 55.35L60.3566 59.34C59.8766 59.66 59.2866 59.89 58.5866 60.03C57.8866 60.19 57.1566 60.27 56.3966 60.27ZM47.4266 48.6V44.34H59.2166V48.6H47.4266ZM70.2459 60.27C68.4659 60.27 66.8859 59.91 65.5059 59.19C64.1259 58.47 63.0359 57.48 62.2359 56.22C61.4559 54.94 61.0659 53.48 61.0659 51.84C61.0659 50.2 61.4559 48.75 62.2359 47.49C63.0359 46.23 64.1259 45.25 65.5059 44.55C66.8859 43.83 68.4659 43.47 70.2459 43.47C72.0259 43.47 73.6059 43.83 74.9859 44.55C76.3859 45.25 77.4759 46.23 78.2559 47.49C79.0359 48.75 79.4259 50.2 79.4259 51.84C79.4259 53.48 79.0359 54.94 78.2559 56.22C77.4759 57.48 76.3859 58.47 74.9859 59.19C73.6059 59.91 72.0259 60.27 70.2459 60.27ZM70.2459 55.74C70.9059 55.74 71.4859 55.59 71.9859 55.29C72.5059 54.99 72.9159 54.55 73.2159 53.97C73.5159 53.37 73.6659 52.66 73.6659 51.84C73.6659 51.02 73.5159 50.33 73.2159 49.77C72.9159 49.19 72.5059 48.75 71.9859 48.45C71.4859 48.15 70.9059 48 70.2459 48C69.6059 48 69.0259 48.15 68.5059 48.45C68.0059 48.75 67.5959 49.19 67.2759 49.77C66.9759 50.33 66.8259 51.02 66.8259 51.84C66.8259 52.66 66.9759 53.37 67.2759 53.97C67.5959 54.55 68.0059 54.99 68.5059 55.29C69.0259 55.59 69.6059 55.74 70.2459 55.74ZM97.8768 60.27C96.3968 60.27 95.0468 59.93 93.8268 59.25C92.6268 58.55 91.6668 57.58 90.9468 56.34C90.2268 55.08 89.8668 53.58 89.8668 51.84C89.8668 50.12 90.2268 48.64 90.9468 47.4C91.6668 46.14 92.6268 45.17 93.8268 44.49C95.0468 43.81 96.3968 43.47 97.8768 43.47C99.2768 43.47 100.457 43.77 101.417 44.37C102.397 44.97 103.137 45.89 103.637 47.13C104.137 48.37 104.387 49.94 104.387 51.84C104.387 53.78 104.147 55.37 103.667 56.61C103.187 57.85 102.467 58.77 101.507 59.37C100.547 59.97 99.3368 60.27 97.8768 60.27ZM99.0768 55.74C99.7168 55.74 100.287 55.59 100.787 55.29C101.307 54.99 101.717 54.55 102.017 53.97C102.317 53.37 102.467 52.66 102.467 51.84C102.467 51.02 102.317 50.33 102.017 49.77C101.717 49.19 101.307 48.75 100.787 48.45C100.287 48.15 99.7168 48 99.0768 48C98.4168 48 97.8268 48.15 97.3068 48.45C96.8068 48.75 96.4068 49.19 96.1068 49.77C95.8068 50.33 95.6568 51.02 95.6568 51.84C95.6568 52.66 95.8068 53.37 96.1068 53.97C96.4068 54.55 96.8068 54.99 97.3068 55.29C97.8268 55.59 98.4168 55.74 99.0768 55.74ZM102.647 60V57.21L102.677 51.84L102.377 46.47V37.74H108.077V60H102.647ZM119.904 60.27C118.124 60.27 116.544 59.91 115.164 59.19C113.784 58.47 112.694 57.48 111.894 56.22C111.114 54.94 110.724 53.48 110.724 51.84C110.724 50.2 111.114 48.75 111.894 47.49C112.694 46.23 113.784 45.25 115.164 44.55C116.544 43.83 118.124 43.47 119.904 43.47C121.684 43.47 123.264 43.83 124.644 44.55C126.044 45.25 127.134 46.23 127.914 47.49C128.694 48.75 129.084 50.2 129.084 51.84C129.084 53.48 128.694 54.94 127.914 56.22C127.134 57.48 126.044 58.47 124.644 59.19C123.264 59.91 121.684 60.27 119.904 60.27ZM119.904 55.74C120.564 55.74 121.144 55.59 121.644 55.29C122.164 54.99 122.574 54.55 122.874 53.97C123.174 53.37 123.324 52.66 123.324 51.84C123.324 51.02 123.174 50.33 122.874 49.77C122.574 49.19 122.164 48.75 121.644 48.45C121.144 48.15 120.564 48 119.904 48C119.264 48 118.684 48.15 118.164 48.45C117.664 48.75 117.254 49.19 116.934 49.77C116.634 50.33 116.484 51.02 116.484 51.84C116.484 52.66 116.634 53.37 116.934 53.97C117.254 54.55 117.664 54.99 118.164 55.29C118.684 55.59 119.264 55.74 119.904 55.74ZM147.715 60.27C145.635 60.27 144.015 59.76 142.855 58.74C141.695 57.7 141.115 56.14 141.115 54.06V40.11H146.815V54C146.815 54.58 146.975 55.04 147.295 55.38C147.615 55.7 148.025 55.86 148.525 55.86C149.205 55.86 149.785 55.69 150.265 55.35L151.675 59.34C151.195 59.66 150.605 59.89 149.905 60.03C149.205 60.19 148.475 60.27 147.715 60.27ZM138.745 48.6V44.34H150.535V48.6H138.745ZM161.564 60.27C159.784 60.27 158.204 59.91 156.824 59.19C155.444 58.47 154.354 57.48 153.554 56.22C152.774 54.94 152.384 53.48 152.384 51.84C152.384 50.2 152.774 48.75 153.554 47.49C154.354 46.23 155.444 45.25 156.824 44.55C158.204 43.83 159.784 43.47 161.564 43.47C163.344 43.47 164.924 43.83 166.304 44.55C167.704 45.25 168.794 46.23 169.574 47.49C170.354 48.75 170.744 50.2 170.744 51.84C170.744 53.48 170.354 54.94 169.574 56.22C168.794 57.48 167.704 58.47 166.304 59.19C164.924 59.91 163.344 60.27 161.564 60.27ZM161.564 55.74C162.224 55.74 162.804 55.59 163.304 55.29C163.824 54.99 164.234 54.55 164.534 53.97C164.834 53.37 164.984 52.66 164.984 51.84C164.984 51.02 164.834 50.33 164.534 49.77C164.234 49.19 163.824 48.75 163.304 48.45C162.804 48.15 162.224 48 161.564 48C160.924 48 160.344 48.15 159.824 48.45C159.324 48.75 158.914 49.19 158.594 49.77C158.294 50.33 158.144 51.02 158.144 51.84C158.144 52.66 158.294 53.37 158.594 53.97C158.914 54.55 159.324 54.99 159.824 55.29C160.344 55.59 160.924 55.74 161.564 55.74ZM180.465 60.27C178.985 60.27 177.635 59.93 176.415 59.25C175.215 58.55 174.255 57.58 173.535 56.34C172.815 55.08 172.455 53.58 172.455 51.84C172.455 50.12 172.815 48.64 173.535 47.4C174.255 46.14 175.215 45.17 176.415 44.49C177.635 43.81 178.985 43.47 180.465 43.47C181.865 43.47 183.045 43.77 184.005 44.37C184.985 44.97 185.725 45.89 186.225 47.13C186.725 48.37 186.975 49.94 186.975 51.84C186.975 53.78 186.735 55.37 186.255 56.61C185.775 57.85 185.055 58.77 184.095 59.37C183.135 59.97 181.925 60.27 180.465 60.27ZM181.665 55.74C182.305 55.74 182.875 55.59 183.375 55.29C183.895 54.99 184.305 54.55 184.605 53.97C184.905 53.37 185.055 52.66 185.055 51.84C185.055 51.02 184.905 50.33 184.605 49.77C184.305 49.19 183.895 48.75 183.375 48.45C182.875 48.15 182.305 48 181.665 48C181.005 48 180.415 48.15 179.895 48.45C179.395 48.75 178.995 49.19 178.695 49.77C178.395 50.33 178.245 51.02 178.245 51.84C178.245 52.66 178.395 53.37 178.695 53.97C178.995 54.55 179.395 54.99 179.895 55.29C180.415 55.59 181.005 55.74 181.665 55.74ZM185.235 60V57.21L185.265 51.84L184.965 46.47V37.74H190.665V60H185.235ZM204.262 60V56.97L203.872 56.22V50.64C203.872 49.74 203.592 49.05 203.032 48.57C202.492 48.07 201.622 47.82 200.422 47.82C199.642 47.82 198.852 47.95 198.052 48.21C197.252 48.45 196.572 48.79 196.012 49.23L194.092 45.36C195.012 44.76 196.112 44.3 197.392 43.98C198.692 43.64 199.982 43.47 201.262 43.47C203.902 43.47 205.942 44.08 207.382 45.3C208.842 46.5 209.572 48.39 209.572 50.97V60H204.262ZM199.462 60.27C198.162 60.27 197.062 60.05 196.162 59.61C195.262 59.17 194.572 58.57 194.092 57.81C193.632 57.05 193.402 56.2 193.402 55.26C193.402 54.26 193.652 53.4 194.152 52.68C194.672 51.94 195.462 51.38 196.522 51C197.582 50.6 198.952 50.4 200.632 50.4H204.472V53.37H201.412C200.492 53.37 199.842 53.52 199.462 53.82C199.102 54.12 198.922 54.52 198.922 55.02C198.922 55.52 199.112 55.92 199.492 56.22C199.872 56.52 200.392 56.67 201.052 56.67C201.672 56.67 202.232 56.52 202.732 56.22C203.252 55.9 203.632 55.42 203.872 54.78L204.652 56.88C204.352 58 203.762 58.85 202.882 59.43C202.022 59.99 200.882 60.27 199.462 60.27ZM215.667 66.09C214.807 66.09 213.937 65.95 213.057 65.67C212.197 65.41 211.497 65.06 210.957 64.62L212.937 60.63C213.277 60.93 213.667 61.16 214.107 61.32C214.567 61.5 215.017 61.59 215.457 61.59C216.077 61.59 216.567 61.45 216.927 61.17C217.287 60.89 217.597 60.45 217.857 59.85L218.607 57.96L219.057 57.39L224.577 43.74H230.007L222.987 60.66C222.427 62.06 221.777 63.15 221.037 63.93C220.317 64.73 219.507 65.29 218.607 65.61C217.727 65.93 216.747 66.09 215.667 66.09ZM217.887 60.69L210.717 43.74H216.567L221.847 56.88L217.887 60.69ZM237.153 52.35C237.153 51.69 237.253 51.11 237.453 50.61C237.673 50.09 237.943 49.63 238.263 49.23C238.583 48.83 238.923 48.47 239.283 48.15C239.663 47.81 240.013 47.49 240.333 47.19C240.653 46.87 240.913 46.55 241.113 46.23C241.333 45.91 241.443 45.56 241.443 45.18C241.443 44.58 241.193 44.11 240.693 43.77C240.213 43.43 239.583 43.26 238.803 43.26C238.003 43.26 237.273 43.45 236.613 43.83C235.973 44.21 235.453 44.74 235.053 45.42L230.583 43.02C231.363 41.68 232.493 40.61 233.973 39.81C235.453 38.99 237.293 38.58 239.493 38.58C241.033 38.58 242.393 38.8 243.573 39.24C244.773 39.66 245.713 40.29 246.393 41.13C247.073 41.97 247.413 43 247.413 44.22C247.413 45 247.293 45.68 247.053 46.26C246.813 46.84 246.503 47.35 246.123 47.79C245.763 48.23 245.373 48.64 244.953 49.02C244.533 49.38 244.133 49.73 243.753 50.07C243.393 50.41 243.093 50.76 242.853 51.12C242.613 51.48 242.493 51.89 242.493 52.35H237.153ZM239.823 60.27C238.843 60.27 238.033 59.96 237.393 59.34C236.753 58.72 236.433 57.98 236.433 57.12C236.433 56.24 236.753 55.51 237.393 54.93C238.033 54.33 238.843 54.03 239.823 54.03C240.843 54.03 241.663 54.33 242.283 54.93C242.923 55.51 243.243 56.24 243.243 57.12C243.243 57.98 242.923 58.72 242.283 59.34C241.663 59.96 240.843 60.27 239.823 60.27Z" fill="black"/>
</svg>
