<svg width="138" height="61" viewBox="0 0 138 61" fill="none" xmlns="http://www.w3.org/2000/svg">
<path d="M15.9 48.8C12.9667 48.8 10.1333 48.4667 7.4 47.8C4.66667 47.1333 2.41667 46.2667 0.65 45.2L4.45 36.6C6.11667 37.5667 7.96667 38.35 10 38.95C12.0667 39.5167 14.0667 39.8 16 39.8C17.1333 39.8 18.0167 39.7333 18.65 39.6C19.3167 39.4333 19.8 39.2167 20.1 38.95C20.4 38.65 20.55 38.3 20.55 37.9C20.55 37.2667 20.2 36.7667 19.5 36.4C18.8 36.0333 17.8667 35.7333 16.7 35.5C15.5667 35.2333 14.3167 34.9667 12.95 34.7C11.5833 34.4 10.2 34.0167 8.8 33.55C7.43333 33.0833 6.16667 32.4667 5 31.7C3.86667 30.9333 2.95 29.9333 2.25 28.7C1.55 27.4333 1.2 25.8667 1.2 24C1.2 21.8333 1.8 19.8667 3 18.1C4.23333 16.3 6.05 14.8667 8.45 13.8C10.8833 12.7333 13.9 12.2 17.5 12.2C19.8667 12.2 22.2 12.45 24.5 12.95C26.8 13.45 28.8667 14.2167 30.7 15.25L27.15 23.8C25.4167 22.9333 23.7333 22.2833 22.1 21.85C20.5 21.4167 18.9333 21.2 17.4 21.2C16.2667 21.2 15.3667 21.3 14.7 21.5C14.0333 21.7 13.55 21.9667 13.25 22.3C12.9833 22.6333 12.85 23 12.85 23.4C12.85 24 13.2 24.4833 13.9 24.85C14.6 25.1833 15.5167 25.4667 16.65 25.7C17.8167 25.9333 19.0833 26.1833 20.45 26.45C21.85 26.7167 23.2333 27.0833 24.6 27.55C25.9667 28.0167 27.2167 28.6333 28.35 29.4C29.5167 30.1667 30.45 31.1667 31.15 32.4C31.85 33.6333 32.2 35.1667 32.2 37C32.2 39.1333 31.5833 41.1 30.35 42.9C29.15 44.6667 27.35 46.1 24.95 47.2C22.55 48.2667 19.5333 48.8 15.9 48.8Z" fill="white"/>
<path d="M28.05 48L43.35 13H54.95L70.25 48H58.05L46.75 18.6H51.35L40.05 48H28.05ZM37.15 41.9L40.15 33.4H56.25L59.25 41.9H37.15Z" fill="white"/>
<path d="M83 48.8C80.1667 48.8 77.55 48.3667 75.15 47.5C72.7833 46.6 70.7167 45.3333 68.95 43.7C67.2167 42.0667 65.8667 40.1333 64.9 37.9C63.9333 35.6667 63.45 33.2 63.45 30.5C63.45 27.8 63.9333 25.3333 64.9 23.1C65.8667 20.8667 67.2333 18.9333 69 17.3C70.7667 15.6667 72.85 14.4167 75.25 13.55C77.6833 12.65 80.35 12.2 83.25 12.2C86.7167 12.2 89.8 12.7833 92.5 13.95C95.2333 15.1167 97.4833 16.7833 99.25 18.95L91.7 25.6C90.6 24.3333 89.4 23.3833 88.1 22.75C86.8333 22.0833 85.4167 21.75 83.85 21.75C82.55 21.75 81.3667 21.95 80.3 22.35C79.2667 22.75 78.3833 23.3333 77.65 24.1C76.9167 24.8667 76.35 25.7833 75.95 26.85C75.55 27.9167 75.35 29.1333 75.35 30.5C75.35 31.8 75.55 33 75.95 34.1C76.35 35.1667 76.9167 36.0833 77.65 36.85C78.3833 37.6167 79.25 38.2167 80.25 38.65C81.2833 39.05 82.4333 39.25 83.7 39.25C85.0333 39.25 86.3333 39.0333 87.6 38.6C88.8667 38.1333 90.2167 37.35 91.65 36.25L98.25 44.35C96.1167 45.7833 93.6833 46.8833 90.95 47.65C88.2167 48.4167 85.5667 48.8 83 48.8ZM88 42.85V29.55H98.25V44.35L88 42.85Z" fill="white"/>
<path d="M95.05 48L110.35 13H121.95L137.25 48H125.05L113.75 18.6H118.35L107.05 48H95.05ZM104.15 41.9L107.15 33.4H123.25L126.25 41.9H104.15Z" fill="white"/>
</svg>
